<?xml version="1.0" standalone="no"?>
<!DOCTYPE svg PUBLIC "-//W3C//DTD SVG 1.1//EN" "http://www.w3.org/Graphics/SVG/1.1/DTD/svg11.dtd" >
<svg xmlns="http://www.w3.org/2000/svg" xmlns:xlink="http://www.w3.org/1999/xlink" version="1.1">
<metadata>
Created by FontForge 20180321 at Fri Aug 24 16:29:50 2018
 By Josh
Copyright (c) 2017 by Josh Finklea. All rights reserved.
</metadata>
<defs>
<font id="VVCentra2-LightItalic" horiz-adv-x="600" >
  <font-face 
    font-family="VV Centra 2 Light"
    font-weight="300"
    font-style="italic"
    font-stretch="normal"
    units-per-em="1000"
    panose-1="0 0 0 0 0 0 0 0 0 0"
    ascent="800"
    descent="-200"
    x-height="481"
    cap-height="700"
    bbox="-239 -229 1138 916"
    underline-thickness="50"
    underline-position="-100"
    unicode-range="U+000D-FB02"
  />
<missing-glyph horiz-adv-x="833" 
d="M67 700h700v-700h-700v700zM137 70h560v560h-560v-560zM230 113l-50 50l188 187l-188 187l50 50l187 -188l187 188l50 -50l-188 -187l188 -187l-50 -50l-187 188z" />
    <glyph glyph-name=".notdef" horiz-adv-x="833" 
d="M67 700h700v-700h-700v700zM137 70h560v560h-560v-560zM230 113l-50 50l188 187l-188 187l50 50l187 -188l187 188l50 -50l-188 -187l188 -187l-50 -50l-187 188z" />
    <glyph glyph-name="NULL" horiz-adv-x="0" 
 />
    <glyph glyph-name="NULL" horiz-adv-x="0" 
 />
    <glyph glyph-name="nonmarkingreturn" unicode="&#xd;" horiz-adv-x="250" 
 />
    <glyph glyph-name="space" unicode=" " horiz-adv-x="250" 
 />
    <glyph glyph-name="A" unicode="A" horiz-adv-x="668" 
d="M428 700l186 -700h-62l-60 224h-317l-126 -224h-67l397 700h49zM206 280h273l-88 332z" />
    <glyph glyph-name="B" unicode="B" horiz-adv-x="603" 
d="M554 535q0 -57 -33 -102t-92 -65q54 -17 87 -57.5t33 -101.5q0 -50 -20 -89t-54 -65.5t-79.5 -40.5t-95.5 -14h-244l105 700h201q38 0 73 -10.5t61.5 -31.5t42 -52t15.5 -71zM301 56q36 0 69.5 10.5t59 30t41 47.5t15.5 64q0 33 -13 57.5t-35.5 41t-51.5 24.5t-60 8h-157
l-43 -283h175zM493 532q0 28 -11 49.5t-30 35t-44.5 20.5t-53.5 7h-140l-37 -251h153q33 0 62.5 10t52 28t35.5 43.5t13 57.5z" />
    <glyph glyph-name="C" unicode="C" horiz-adv-x="664" 
d="M452 652q-65 0 -123 -27t-101.5 -72t-68.5 -104.5t-25 -124.5q0 -57 20.5 -107t56.5 -87.5t85 -59t107 -21.5q51 0 102 17.5t95 46.5l-10 -70q-42 -25 -91 -39.5t-97 -14.5q-70 0 -130.5 26t-105.5 71t-70.5 106t-25.5 131q0 78 30.5 148.5t83 124t122.5 85t148 31.5
q61 0 118.5 -19t104.5 -56l-10 -68q-45 39 -99.5 61t-115.5 22z" />
    <glyph glyph-name="D" unicode="D" horiz-adv-x="705" 
d="M161 700h203q66 0 122 -23.5t96.5 -64.5t63.5 -97.5t23 -122.5q0 -81 -31.5 -152.5t-85.5 -125t-126.5 -84t-154.5 -30.5h-215zM605 389q0 55 -18 101t-51 80t-78 53t-99 19h-145l-87 -584h150q66 0 125.5 26.5t104.5 71.5t71.5 105t26.5 128z" />
    <glyph glyph-name="E" unicode="E" horiz-adv-x="523" 
d="M161 700h374l-9 -57h-312l-37 -250h288l-9 -57h-288l-41 -279h314l-9 -57h-376z" />
    <glyph glyph-name="F" unicode="F" horiz-adv-x="504" 
d="M118 0h-62l105 700h365l-9 -57h-303l-37 -250h287l-9 -57h-287z" />
    <glyph glyph-name="G" unicode="G" horiz-adv-x="787" 
d="M750 326q-11 -71 -40.5 -133t-74.5 -107.5t-105 -71t-133 -25.5q-70 0 -129.5 26t-103.5 70.5t-69 104.5t-25 130q0 78 29.5 149t81 125t120.5 86t148 32q49 0 94.5 -12.5t84 -35.5t69 -57.5t49.5 -77.5l-58 -24q-32 72 -96 110t-146 38q-66 0 -123 -27t-99 -73
t-66 -105.5t-24 -124.5q0 -58 19.5 -108.5t55 -87.5t84 -58t106.5 -21q54 0 101.5 19.5t84.5 53.5t62 80.5t35 100.5h-280l8 59h345z" />
    <glyph glyph-name="H" unicode="H" horiz-adv-x="727" 
d="M161 700h62l-46 -307h419l46 307h62l-105 -700h-62l50 334h-419l-50 -334h-62z" />
    <glyph glyph-name="I" unicode="I" horiz-adv-x="246" 
d="M223 700l-105 -700h-62l105 700h62z" />
    <glyph glyph-name="J" unicode="J" horiz-adv-x="495" 
d="M407 197q-7 -45 -24.5 -83.5t-44.5 -66t-64 -43t-82 -15.5q-73 0 -123 39t-64 111l53 22q14 -51 47 -82.5t88 -31.5q33 0 59 12t45.5 33t31.5 49.5t17 62.5l74 496h62z" />
    <glyph glyph-name="K" unicode="K" horiz-adv-x="608" 
d="M173 371l383 329h82l-372 -322l287 -378h-75l-257 340l-60 -51l-43 -289h-62l105 700h62z" />
    <glyph glyph-name="L" unicode="L" horiz-adv-x="435" 
d="M223 700l-96 -641h256l-9 -59h-318l105 700h62z" />
    <glyph glyph-name="M" unicode="M" horiz-adv-x="923" 
d="M900 700l-105 -700h-60l88 592l-376 -592h-43l-200 592l-88 -592h-60l105 700h71l205 -614l388 614h75z" />
    <glyph glyph-name="N" unicode="N" horiz-adv-x="769" 
d="M746 700l-105 -700h-56l-378 608l-91 -608h-60l105 700h60l374 -604l91 604h60z" />
    <glyph glyph-name="O" unicode="O" horiz-adv-x="822" 
d="M786 377q0 -78 -31 -148t-83.5 -123.5t-122.5 -85t-148 -31.5q-70 0 -130.5 26t-105 71t-70 106t-25.5 131q0 78 31 148.5t83.5 124t122.5 85t148 31.5q70 0 130.5 -26t105 -71.5t70 -106.5t25.5 -131zM403 48q65 0 123 27t101.5 72t69 104t25.5 124q0 58 -20.5 109
t-56.5 88.5t-85.5 59t-107.5 21.5q-65 0 -123 -27t-101.5 -72t-68.5 -104.5t-25 -124.5q0 -58 20 -108.5t56 -88t85.5 -59t107.5 -21.5z" />
    <glyph glyph-name="P" unicode="P" horiz-adv-x="544" 
d="M348 700q46 0 84 -12t65 -34.5t42 -55.5t15 -75q0 -50 -19.5 -89t-53 -66t-80 -41.5t-100.5 -14.5h-136l-47 -312h-62l105 700h187zM174 370h131q40 0 74 10.5t59 30t39 47t14 62.5q0 59 -40.5 90.5t-108.5 31.5h-128z" />
    <glyph glyph-name="Q" unicode="Q" horiz-adv-x="822" 
d="M689 -11l-71 71q-47 -34 -102 -52.5t-115 -18.5q-70 0 -130.5 26t-105 71t-70 106t-25.5 131q0 78 31 148.5t83.5 124t122.5 85t148 31.5q70 0 130.5 -26t105 -71.5t70 -106.5t25.5 -131q0 -81 -33 -153.5t-89 -126.5l67 -67zM403 48q48 0 91 14.5t81 40.5l-86 87l43 41
l89 -91q47 46 74 106.5t27 128.5q0 58 -20.5 109t-56.5 88.5t-85.5 59t-107.5 21.5q-65 0 -123 -27t-101.5 -72t-68.5 -104.5t-25 -124.5q0 -58 20 -108.5t56 -88t85.5 -59t107.5 -21.5z" />
    <glyph glyph-name="R" unicode="R" horiz-adv-x="570" 
d="M340 700q92 0 146.5 -45.5t54.5 -130.5q0 -46 -16.5 -83.5t-45.5 -64.5t-69.5 -43t-88.5 -19l184 -314h-71l-182 312h-88l-46 -312h-62l105 700h179zM173 369h122q40 0 73.5 10.5t58 30.5t38 48t13.5 63q0 58 -39.5 89.5t-107.5 31.5h-117z" />
    <glyph glyph-name="S" unicode="S" horiz-adv-x="529" 
d="M90 198q14 -67 57 -108.5t110 -41.5q32 0 60.5 10t49.5 29t33.5 44.5t12.5 57.5q0 73 -92 121l-92 48q-118 61 -118 168q0 42 15 76t42 58.5t63.5 38t79.5 13.5q76 0 130 -43.5t69 -121.5l-59 -18q-11 54 -46.5 89t-95.5 35q-28 0 -52.5 -8.5t-43 -24.5t-29 -38.5
t-10.5 -49.5q0 -75 89 -121l90 -47q63 -32 93.5 -73.5t30.5 -95.5q0 -46 -17.5 -84t-47.5 -65.5t-70.5 -42t-86.5 -14.5q-88 0 -148.5 50.5t-76.5 141.5z" />
    <glyph glyph-name="T" unicode="T" horiz-adv-x="530" 
d="M90 700h488l-9 -59h-212l-96 -641h-63l96 641h-213z" />
    <glyph glyph-name="U" unicode="U" horiz-adv-x="692" 
d="M319 -11q-67 0 -115 21.5t-77 60t-39 92.5t0 119l62 418h63l-62 -417q-8 -52 -1 -95.5t28 -74.5t56.5 -48t85.5 -17q48 0 88 17.5t69.5 48.5t49 74t27.5 95l63 417h62l-62 -419q-10 -66 -34.5 -120t-62.5 -92t-88.5 -59t-112.5 -21z" />
    <glyph glyph-name="V" unicode="V" horiz-adv-x="623" 
d="M254 0l-167 700h63l139 -599l320 599h65l-377 -700h-43z" />
    <glyph glyph-name="W" unicode="W" horiz-adv-x="995" 
d="M222 0l-130 700h62l107 -585l284 585h40l110 -585l281 585h65l-341 -700h-41l-110 583l-285 -583h-42z" />
    <glyph glyph-name="X" unicode="X" horiz-adv-x="619" 
d="M366 358l199 -358h-69l-173 314l-268 -314h-73l310 363l-186 337h69l160 -292l248 292h73z" />
    <glyph glyph-name="Y" unicode="Y" horiz-adv-x="616" 
d="M86 700h69l171 -327l268 327h74l-317 -384l-48 -316h-62l48 316z" />
    <glyph glyph-name="Z" unicode="Z" horiz-adv-x="602" 
d="M99 57h438l-9 -57h-526l6 39l524 604h-410l9 57h498l-6 -39z" />
    <glyph glyph-name="AE" unicode="&#xc6;" horiz-adv-x="923" 
d="M489 218h-266l-173 -218h-70l553 700h402l-9 -57h-312l-37 -250h288l-9 -57h-288l-41 -279h314l-9 -57h-376zM497 274l54 363l-285 -363h231z" />
    <glyph glyph-name="AEacute" unicode="&#x1fc;" horiz-adv-x="923" 
d="M489 218h-266l-173 -218h-70l553 700h402l-9 -57h-312l-37 -250h288l-9 -57h-288l-41 -279h314l-9 -57h-376zM497 274l54 363l-285 -363h231zM620 756l112 137h73l-123 -137h-62z" />
    <glyph glyph-name="Oslash" unicode="&#xd8;" horiz-adv-x="822" 
d="M825 677l-106 -97q32 -42 49.5 -93.5t17.5 -109.5q0 -78 -31 -148t-83.5 -123.5t-122.5 -85t-148 -31.5q-68 0 -125.5 24t-102.5 66l-103 -95l-38 42l104 94q-32 42 -49 93.5t-17 109.5q0 78 31 148.5t83.5 124t122.5 85t148 31.5q68 0 126 -24.5t103 -67.5l105 96z
M134 325q0 -46 12.5 -87t35.5 -75l456 416q-35 35 -82.5 54.5t-103.5 19.5q-65 0 -123 -27t-101.5 -72t-68.5 -104.5t-25 -124.5zM403 48q65 0 123 27t101.5 72t69 104t25.5 124q0 46 -13 87t-36 76l-455 -418q35 -34 82.5 -53t102.5 -19z" />
    <glyph glyph-name="Oslashacute" unicode="&#x1fe;" horiz-adv-x="822" 
d="M825 677l-106 -97q32 -42 49.5 -93.5t17.5 -109.5q0 -78 -31 -148t-83.5 -123.5t-122.5 -85t-148 -31.5q-68 0 -125.5 24t-102.5 66l-103 -95l-38 42l104 94q-32 42 -49 93.5t-17 109.5q0 78 31 148.5t83.5 124t122.5 85t148 31.5q68 0 126 -24.5t103 -67.5l105 96z
M134 325q0 -46 12.5 -87t35.5 -75l456 416q-35 35 -82.5 54.5t-103.5 19.5q-65 0 -123 -27t-101.5 -72t-68.5 -104.5t-25 -124.5zM403 48q65 0 123 27t101.5 72t69 104t25.5 124q0 46 -13 87t-36 76l-455 -418q35 -34 82.5 -53t102.5 -19zM438 756l112 137h73l-123 -137h-62
z" />
    <glyph glyph-name="Aring" unicode="&#xc5;" horiz-adv-x="668" 
d="M428 700l186 -700h-62l-60 224h-317l-126 -224h-67l397 700h49zM206 280h273l-88 332zM512 830q0 -40 -28.5 -66t-67.5 -26q-38 0 -63.5 24.5t-25.5 60.5q0 41 28.5 67t68.5 26q36 0 62 -24t26 -62zM469 828q0 20 -13.5 34t-32.5 14t-36 -14t-17 -37q0 -20 13.5 -33.5
t34.5 -13.5q19 0 35 14t16 36z" />
    <glyph glyph-name="Aacute" unicode="&#xc1;" horiz-adv-x="668" 
d="M428 700l186 -700h-62l-60 224h-317l-126 -224h-67l397 700h49zM206 280h273l-88 332zM384 756l112 137h73l-123 -137h-62z" />
    <glyph glyph-name="Abreve" unicode="&#x102;" horiz-adv-x="668" 
d="M428 700l186 -700h-62l-60 224h-317l-126 -224h-67l397 700h49zM206 280h273l-88 332zM424 803q33 0 56.5 23t28.5 63h48q-2 -30 -13 -54t-29 -41t-42 -26t-51 -9q-28 0 -51 10t-38.5 27.5t-23 41t-5.5 51.5h49q-2 -38 18 -62t53 -24z" />
    <glyph glyph-name="Acircumflex" unicode="&#xc2;" horiz-adv-x="668" 
d="M428 700l186 -700h-62l-60 224h-317l-126 -224h-67l397 700h49zM206 280h273l-88 332zM277 756l131 137h48l90 -137h-61l-59 89l-85 -89h-64z" />
    <glyph glyph-name="Adieresis" unicode="&#xc4;" horiz-adv-x="668" 
d="M428 700l186 -700h-62l-60 224h-317l-126 -224h-67l397 700h49zM206 280h273l-88 332zM544 827q0 -17 -12 -29t-29 -12t-28 11t-11 28t12 29t29 12t28 -11t11 -28zM377 827q0 -17 -12 -29t-29 -12t-28 11t-11 28t12 29t29 12t28 -11t11 -28z" />
    <glyph glyph-name="Adieresis.square" horiz-adv-x="668" 
d="M428 700l186 -700h-62l-60 224h-317l-126 -224h-67l397 700h49zM206 280h273l-88 332zM306 782l13 88h59l-13 -88h-59zM466 782l13 88h59l-13 -88h-59z" />
    <glyph glyph-name="Agrave" unicode="&#xc0;" horiz-adv-x="668" 
d="M428 700l186 -700h-62l-60 224h-317l-126 -224h-67l397 700h49zM206 280h273l-88 332zM380 756l-84 137h69l71 -137h-56z" />
    <glyph glyph-name="Amacron" unicode="&#x100;" horiz-adv-x="668" 
d="M428 700l186 -700h-62l-60 224h-317l-126 -224h-67l397 700h49zM206 280h273l-88 332zM292 793l6 43h250l-6 -43h-250z" />
    <glyph glyph-name="Aogonek" unicode="&#x104;" horiz-adv-x="668" 
d="M428 700l186 -700q-63 -23 -101 -53t-38 -62q0 -23 13.5 -33t35.5 -10q15 0 30.5 3.5t28.5 14.5l-7 -47q-14 -7 -31 -11t-35 -4q-40 0 -63 20.5t-23 55.5q0 43 34.5 75.5t91.5 55.5l-58 219h-317l-126 -224h-67l397 700h49zM206 280h273l-88 332z" />
    <glyph glyph-name="Atilde" unicode="&#xc3;" horiz-adv-x="668" 
d="M428 700l186 -700h-62l-60 224h-317l-126 -224h-67l397 700h49zM206 280h273l-88 332zM267 775q4 48 29 70.5t60 22.5q25 0 41.5 -8.5t29.5 -18.5t25.5 -18.5t29.5 -8.5q20 0 32 14t14 37h44q-3 -48 -28.5 -70.5t-60.5 -22.5q-25 0 -41.5 8.5t-30 18.5t-26 18.5
t-28.5 8.5q-21 0 -32.5 -14t-13.5 -37h-44z" />
    <glyph glyph-name="Anocross" horiz-adv-x="668" 
d="M49 0h-67l397 700h49l186 -700h-62l-161 612z" />
    <glyph glyph-name="Cacute" unicode="&#x106;" horiz-adv-x="664" 
d="M452 652q-65 0 -123 -27t-101.5 -72t-68.5 -104.5t-25 -124.5q0 -57 20.5 -107t56.5 -87.5t85 -59t107 -21.5q51 0 102 17.5t95 46.5l-10 -70q-42 -25 -91 -39.5t-97 -14.5q-70 0 -130.5 26t-105.5 71t-70.5 106t-25.5 131q0 78 30.5 148.5t83 124t122.5 85t148 31.5
q61 0 118.5 -19t104.5 -56l-10 -68q-45 39 -99.5 61t-115.5 22zM441 756l112 137h73l-123 -137h-62z" />
    <glyph glyph-name="Ccaron" unicode="&#x10c;" horiz-adv-x="664" 
d="M452 652q-65 0 -123 -27t-101.5 -72t-68.5 -104.5t-25 -124.5q0 -57 20.5 -107t56.5 -87.5t85 -59t107 -21.5q51 0 102 17.5t95 46.5l-10 -70q-42 -25 -91 -39.5t-97 -14.5q-70 0 -130.5 26t-105.5 71t-70.5 106t-25.5 131q0 78 30.5 148.5t83 124t122.5 85t148 31.5
q61 0 118.5 -19t104.5 -56l-10 -68q-45 39 -99.5 61t-115.5 22zM642 893l-131 -137h-48l-90 137h61l59 -89l85 89h64z" />
    <glyph glyph-name="Ccedilla" unicode="&#xc7;" horiz-adv-x="664" 
d="M352 -55q34 -1 55 -22t21 -53q0 -38 -27 -62t-66 -24q-35 0 -58.5 21t-26.5 52h46q2 -13 13 -23.5t29 -10.5q20 0 33 13t13 32q0 17 -11.5 28.5t-29.5 11.5q-20 0 -37 -17l-38 29l58 78q-56 12 -103 42t-81 72.5t-53 96.5t-19 114q0 78 30.5 148.5t83 124t122.5 85
t148 31.5q61 0 118.5 -19t104.5 -56l-10 -68q-45 39 -99.5 61t-115.5 22q-65 0 -123 -27t-101.5 -72t-68.5 -104.5t-25 -124.5q0 -57 20.5 -107t56.5 -87.5t85 -59t107 -21.5q51 0 102 17.5t95 46.5l-10 -70q-42 -25 -91 -39.5t-97 -14.5h-15t-19 1l-38 -49q9 4 22 4z" />
    <glyph glyph-name="Ccircumflex" unicode="&#x108;" horiz-adv-x="664" 
d="M452 652q-65 0 -123 -27t-101.5 -72t-68.5 -104.5t-25 -124.5q0 -57 20.5 -107t56.5 -87.5t85 -59t107 -21.5q51 0 102 17.5t95 46.5l-10 -70q-42 -25 -91 -39.5t-97 -14.5q-70 0 -130.5 26t-105.5 71t-70.5 106t-25.5 131q0 78 30.5 148.5t83 124t122.5 85t148 31.5
q61 0 118.5 -19t104.5 -56l-10 -68q-45 39 -99.5 61t-115.5 22zM353 756l131 137h48l90 -137h-61l-59 89l-85 -89h-64z" />
    <glyph glyph-name="Cdotaccent" unicode="&#x10a;" horiz-adv-x="664" 
d="M452 652q-65 0 -123 -27t-101.5 -72t-68.5 -104.5t-25 -124.5q0 -57 20.5 -107t56.5 -87.5t85 -59t107 -21.5q51 0 102 17.5t95 46.5l-10 -70q-42 -25 -91 -39.5t-97 -14.5q-70 0 -130.5 26t-105.5 71t-70.5 106t-25.5 131q0 78 30.5 148.5t83 124t122.5 85t148 31.5
q61 0 118.5 -19t104.5 -56l-10 -68q-45 39 -99.5 61t-115.5 22zM458 826q0 17 13 30t30 13t29 -12t12 -29t-13 -30t-31 -13q-17 0 -28.5 12t-11.5 29z" />
    <glyph glyph-name="Cdotaccent.square" horiz-adv-x="664" 
d="M452 652q-65 0 -123 -27t-101.5 -72t-68.5 -104.5t-25 -124.5q0 -57 20.5 -107t56.5 -87.5t85 -59t107 -21.5q51 0 102 17.5t95 46.5l-10 -70q-42 -25 -91 -39.5t-97 -14.5q-70 0 -130.5 26t-105.5 71t-70.5 106t-25.5 131q0 78 30.5 148.5t83 124t122.5 85t148 31.5
q61 0 118.5 -19t104.5 -56l-10 -68q-45 39 -99.5 61t-115.5 22zM464 782l13 87h60l-13 -87h-60z" />
    <glyph glyph-name="Dcaron" unicode="&#x10e;" horiz-adv-x="705" 
d="M161 700h203q66 0 122 -23.5t96.5 -64.5t63.5 -97.5t23 -122.5q0 -81 -31.5 -152.5t-85.5 -125t-126.5 -84t-154.5 -30.5h-215zM605 389q0 55 -18 101t-51 80t-78 53t-99 19h-145l-87 -584h150q66 0 125.5 26.5t104.5 71.5t71.5 105t26.5 128zM554 893l-131 -137h-48
l-90 137h61l59 -89l85 89h64z" />
    <glyph glyph-name="Dcroat" unicode="&#x110;" horiz-adv-x="720" 
d="M120 327h-98l8 56h98l48 317h203q66 0 122 -23.5t96.5 -64.5t63.5 -97.5t23 -122.5q0 -81 -31.5 -152.5t-85.5 -125t-126.5 -84t-154.5 -30.5h-215zM397 327h-215l-40 -269h150q66 0 125.5 26.5t104.5 71.5t71.5 105t26.5 128q0 55 -18 101t-51 80t-78 53t-99 19h-145
l-39 -259h215z" />
    <glyph glyph-name="Eth" unicode="&#xd0;" horiz-adv-x="720" 
d="M120 327h-98l8 56h98l48 317h203q66 0 122 -23.5t96.5 -64.5t63.5 -97.5t23 -122.5q0 -81 -31.5 -152.5t-85.5 -125t-126.5 -84t-154.5 -30.5h-215zM397 327h-215l-40 -269h150q66 0 125.5 26.5t104.5 71.5t71.5 105t26.5 128q0 55 -18 101t-51 80t-78 53t-99 19h-145
l-39 -259h215z" />
    <glyph glyph-name="Eacute" unicode="&#xc9;" horiz-adv-x="523" 
d="M161 700h374l-9 -57h-312l-37 -250h288l-9 -57h-288l-41 -279h314l-9 -57h-376zM311 756l112 137h73l-123 -137h-62z" />
    <glyph glyph-name="Ebreve" unicode="&#x114;" horiz-adv-x="523" 
d="M161 700h374l-9 -57h-312l-37 -250h288l-9 -57h-288l-41 -279h314l-9 -57h-376zM370 803q33 0 56.5 23t28.5 63h48q-2 -30 -13 -54t-29 -41t-42 -26t-51 -9q-28 0 -51 10t-38.5 27.5t-23 41t-5.5 51.5h49q-2 -38 18 -62t53 -24z" />
    <glyph glyph-name="Ecaron" unicode="&#x11a;" horiz-adv-x="523" 
d="M161 700h374l-9 -57h-312l-37 -250h288l-9 -57h-288l-41 -279h314l-9 -57h-376zM511 893l-131 -137h-48l-90 137h61l59 -89l85 89h64z" />
    <glyph glyph-name="Ecircumflex" unicode="&#xca;" horiz-adv-x="523" 
d="M161 700h374l-9 -57h-312l-37 -250h288l-9 -57h-288l-41 -279h314l-9 -57h-376zM222 756l131 137h48l90 -137h-61l-59 89l-85 -89h-64z" />
    <glyph glyph-name="Edieresis" unicode="&#xcb;" horiz-adv-x="523" 
d="M161 700h374l-9 -57h-312l-37 -250h288l-9 -57h-288l-41 -279h314l-9 -57h-376zM490 827q0 -17 -12 -29t-29 -12t-28 11t-11 28t12 29t29 12t28 -11t11 -28zM323 827q0 -17 -12 -29t-29 -12t-28 11t-11 28t12 29t29 12t28 -11t11 -28z" />
    <glyph glyph-name="Edieresis.square" horiz-adv-x="523" 
d="M161 700h374l-9 -57h-312l-37 -250h288l-9 -57h-288l-41 -279h314l-9 -57h-376zM251 782l13 88h59l-13 -88h-59zM411 782l13 88h59l-13 -88h-59z" />
    <glyph glyph-name="Edotaccent" unicode="&#x116;" horiz-adv-x="523" 
d="M161 700h374l-9 -57h-312l-37 -250h288l-9 -57h-288l-41 -279h314l-9 -57h-376zM328 826q0 17 13 30t30 13t29 -12t12 -29t-13 -30t-31 -13q-17 0 -28.5 12t-11.5 29z" />
    <glyph glyph-name="Edotaccent.square" horiz-adv-x="523" 
d="M161 700h374l-9 -57h-312l-37 -250h288l-9 -57h-288l-41 -279h314l-9 -57h-376zM333 782l13 87h60l-13 -87h-60z" />
    <glyph glyph-name="Egrave" unicode="&#xc8;" horiz-adv-x="523" 
d="M161 700h374l-9 -57h-312l-37 -250h288l-9 -57h-288l-41 -279h314l-9 -57h-376zM354 756l-84 137h69l71 -137h-56z" />
    <glyph glyph-name="Emacron" unicode="&#x112;" horiz-adv-x="523" 
d="M161 700h374l-9 -57h-312l-37 -250h288l-9 -57h-288l-41 -279h314l-9 -57h-376zM237 793l6 43h250l-6 -43h-250z" />
    <glyph glyph-name="Eogonek" unicode="&#x118;" horiz-adv-x="523" 
d="M161 700h374l-9 -57h-312l-37 -250h288l-9 -57h-288l-41 -279h314l-9 -57h-26q-62 -23 -99 -53t-37 -62q0 -23 13.5 -33t35.5 -10q15 0 30.5 3.5t28.5 14.5l-7 -47q-14 -7 -31 -11t-35 -4q-40 0 -63 20.5t-23 55.5q0 41 30.5 72t80.5 54h-274z" />
    <glyph glyph-name="Gbreve" unicode="&#x11e;" horiz-adv-x="787" 
d="M750 326q-11 -71 -40.5 -133t-74.5 -107.5t-105 -71t-133 -25.5q-70 0 -129.5 26t-103.5 70.5t-69 104.5t-25 130q0 78 29.5 149t81 125t120.5 86t148 32q49 0 94.5 -12.5t84 -35.5t69 -57.5t49.5 -77.5l-58 -24q-32 72 -96 110t-146 38q-66 0 -123 -27t-99 -73
t-66 -105.5t-24 -124.5q0 -58 19.5 -108.5t55 -87.5t84 -58t106.5 -21q54 0 101.5 19.5t84.5 53.5t62 80.5t35 100.5h-280l8 59h345zM485 803q33 0 56.5 23t28.5 63h48q-2 -30 -13 -54t-29 -41t-42 -26t-51 -9q-28 0 -51 10t-38.5 27.5t-23 41t-5.5 51.5h49q-2 -38 18 -62
t53 -24z" />
    <glyph glyph-name="Gcircumflex" unicode="&#x11c;" horiz-adv-x="787" 
d="M750 326q-11 -71 -40.5 -133t-74.5 -107.5t-105 -71t-133 -25.5q-70 0 -129.5 26t-103.5 70.5t-69 104.5t-25 130q0 78 29.5 149t81 125t120.5 86t148 32q49 0 94.5 -12.5t84 -35.5t69 -57.5t49.5 -77.5l-58 -24q-32 72 -96 110t-146 38q-66 0 -123 -27t-99 -73
t-66 -105.5t-24 -124.5q0 -58 19.5 -108.5t55 -87.5t84 -58t106.5 -21q54 0 101.5 19.5t84.5 53.5t62 80.5t35 100.5h-280l8 59h345zM340 756l131 137h48l90 -137h-61l-59 89l-85 -89h-64z" />
    <glyph glyph-name="Gcommaaccent" unicode="&#x122;" horiz-adv-x="787" 
d="M750 326q-11 -71 -40.5 -133t-74.5 -107.5t-105 -71t-133 -25.5q-70 0 -129.5 26t-103.5 70.5t-69 104.5t-25 130q0 78 29.5 149t81 125t120.5 86t148 32q49 0 94.5 -12.5t84 -35.5t69 -57.5t49.5 -77.5l-58 -24q-32 72 -96 110t-146 38q-66 0 -123 -27t-99 -73
t-66 -105.5t-24 -124.5q0 -58 19.5 -108.5t55 -87.5t84 -58t106.5 -21q54 0 101.5 19.5t84.5 53.5t62 80.5t35 100.5h-280l8 59h345zM318 -209l42 78q-14 1 -23.5 10.5t-9.5 24.5q0 17 13 29t32 12q17 0 28.5 -11t11.5 -28q0 -10 -3.5 -18.5t-9.5 -19.5l-41 -77h-40z" />
    <glyph glyph-name="Gcommaaccent.square" horiz-adv-x="787" 
d="M750 326q-11 -71 -40.5 -133t-74.5 -107.5t-105 -71t-133 -25.5q-70 0 -129.5 26t-103.5 70.5t-69 104.5t-25 130q0 78 29.5 149t81 125t120.5 86t148 32q49 0 94.5 -12.5t84 -35.5t69 -57.5t49.5 -77.5l-58 -24q-32 72 -96 110t-146 38q-66 0 -123 -27t-99 -73
t-66 -105.5t-24 -124.5q0 -58 19.5 -108.5t55 -87.5t84 -58t106.5 -21q54 0 101.5 19.5t84.5 53.5t62 80.5t35 100.5h-280l8 59h345zM347 -58h60l-13 -90q-5 -37 -23 -58t-51 -23l5 35q13 2 21.5 12.5t11.5 31.5l1 7h-25z" />
    <glyph glyph-name="Gdotaccent" unicode="&#x120;" horiz-adv-x="787" 
d="M750 326q-11 -71 -40.5 -133t-74.5 -107.5t-105 -71t-133 -25.5q-70 0 -129.5 26t-103.5 70.5t-69 104.5t-25 130q0 78 29.5 149t81 125t120.5 86t148 32q49 0 94.5 -12.5t84 -35.5t69 -57.5t49.5 -77.5l-58 -24q-32 72 -96 110t-146 38q-66 0 -123 -27t-99 -73
t-66 -105.5t-24 -124.5q0 -58 19.5 -108.5t55 -87.5t84 -58t106.5 -21q54 0 101.5 19.5t84.5 53.5t62 80.5t35 100.5h-280l8 59h345zM443 826q0 17 13 30t30 13t29 -12t12 -29t-13 -30t-31 -13q-17 0 -28.5 12t-11.5 29z" />
    <glyph glyph-name="Gdotaccent.square" horiz-adv-x="787" 
d="M750 326q-11 -71 -40.5 -133t-74.5 -107.5t-105 -71t-133 -25.5q-70 0 -129.5 26t-103.5 70.5t-69 104.5t-25 130q0 78 29.5 149t81 125t120.5 86t148 32q49 0 94.5 -12.5t84 -35.5t69 -57.5t49.5 -77.5l-58 -24q-32 72 -96 110t-146 38q-66 0 -123 -27t-99 -73
t-66 -105.5t-24 -124.5q0 -58 19.5 -108.5t55 -87.5t84 -58t106.5 -21q54 0 101.5 19.5t84.5 53.5t62 80.5t35 100.5h-280l8 59h345zM448 782l13 87h60l-13 -87h-60z" />
    <glyph glyph-name="Hbar" unicode="&#x126;" horiz-adv-x="757" 
d="M149 521h-82l9 57h81l19 122h62l-19 -122h419l19 122h62l-19 -122h83l-9 -57h-82l-78 -521h-62l50 334h-419l-50 -334h-62zM611 393l19 128h-419l-19 -128h419z" />
    <glyph glyph-name="Hcircumflex" unicode="&#x124;" horiz-adv-x="727" 
d="M161 700h62l-46 -307h419l46 307h62l-105 -700h-62l50 334h-419l-50 -334h-62zM304 756l131 137h48l90 -137h-61l-59 89l-85 -89h-64z" />
    <glyph glyph-name="Iacute" unicode="&#xcd;" horiz-adv-x="246" 
d="M223 700l-105 -700h-62l105 700h62zM166 756l112 137h73l-123 -137h-62z" />
    <glyph glyph-name="Ibreve" unicode="&#x12c;" horiz-adv-x="246" 
d="M223 700l-105 -700h-62l105 700h62zM207 803q33 0 56.5 23t28.5 63h48q-2 -30 -13 -54t-29 -41t-42 -26t-51 -9q-28 0 -51 10t-38.5 27.5t-23 41t-5.5 51.5h49q-2 -38 18 -62t53 -24z" />
    <glyph glyph-name="Icircumflex" unicode="&#xce;" horiz-adv-x="246" 
d="M223 700l-105 -700h-62l105 700h62zM63 756l131 137h48l90 -137h-61l-59 89l-85 -89h-64z" />
    <glyph glyph-name="Idieresis" unicode="&#xcf;" horiz-adv-x="246" 
d="M223 700l-105 -700h-62l105 700h62zM330 827q0 -17 -12 -29t-29 -12t-28 11t-11 28t12 29t29 12t28 -11t11 -28zM163 827q0 -17 -12 -29t-29 -12t-28 11t-11 28t12 29t29 12t28 -11t11 -28z" />
    <glyph glyph-name="Idieresis.square" horiz-adv-x="246" 
d="M223 700l-105 -700h-62l105 700h62zM92 782l13 88h59l-13 -88h-59zM252 782l13 88h59l-13 -88h-59z" />
    <glyph glyph-name="Idotaccent" unicode="&#x130;" horiz-adv-x="246" 
d="M223 700l-105 -700h-62l105 700h62zM167 826q0 17 13 30t30 13t29 -12t12 -29t-13 -30t-31 -13q-17 0 -28.5 12t-11.5 29z" />
    <glyph glyph-name="Idotaccent.square" horiz-adv-x="246" 
d="M223 700l-105 -700h-62l105 700h62zM172 782l13 87h60l-13 -87h-60z" />
    <glyph glyph-name="Igrave" unicode="&#xcc;" horiz-adv-x="246" 
d="M223 700l-105 -700h-62l105 700h62zM171 756l-84 137h69l71 -137h-56z" />
    <glyph glyph-name="Imacron" unicode="&#x12a;" horiz-adv-x="246" 
d="M223 700l-105 -700h-62l105 700h62zM76 793l6 43h250l-6 -43h-250z" />
    <glyph glyph-name="Iogonek" unicode="&#x12e;" horiz-adv-x="246" 
d="M223 700l-105 -700q-51 -23 -81 -53t-30 -62q0 -23 13.5 -33t35.5 -10q15 0 30.5 3.5t28.5 14.5l-7 -46q-30 -16 -66 -16q-40 0 -63 20.5t-23 55.5q0 43 28 75.5t73 55.5l104 695h62z" />
    <glyph glyph-name="Itilde" unicode="&#x128;" horiz-adv-x="246" 
d="M223 700l-105 -700h-62l105 700h62zM50 775q4 48 29 70.5t60 22.5q25 0 41.5 -8.5t29.5 -18.5t25.5 -18.5t29.5 -8.5q20 0 32 14t14 37h44q-3 -48 -28.5 -70.5t-60.5 -22.5q-25 0 -41.5 8.5t-30 18.5t-26 18.5t-28.5 8.5q-21 0 -32.5 -14t-13.5 -37h-44z" />
    <glyph glyph-name="Jcircumflex" unicode="&#x134;" horiz-adv-x="495" 
d="M407 197q-7 -45 -24.5 -83.5t-44.5 -66t-64 -43t-82 -15.5q-73 0 -123 39t-64 111l53 22q14 -51 47 -82.5t88 -31.5q33 0 59 12t45.5 33t31.5 49.5t17 62.5l74 496h62zM324 756l131 137h48l90 -137h-61l-59 89l-85 -89h-64z" />
    <glyph glyph-name="Kcommaaccent" unicode="&#x136;" horiz-adv-x="608" 
d="M173 371l383 329h82l-372 -322l287 -378h-75l-257 340l-60 -51l-43 -289h-62l105 700h62zM213 -209l42 78q-14 1 -23.5 10.5t-9.5 24.5q0 17 13 29t32 12q17 0 28.5 -11t11.5 -28q0 -10 -3.5 -18.5t-9.5 -19.5l-41 -77h-40z" />
    <glyph glyph-name="Kcommaaccent.square" horiz-adv-x="608" 
d="M173 371l383 329h82l-372 -322l287 -378h-75l-257 340l-60 -51l-43 -289h-62l105 700h62zM244 -58h60l-13 -90q-5 -37 -23 -58t-51 -23l5 35q13 2 21.5 12.5t11.5 31.5l1 7h-25z" />
    <glyph glyph-name="Lacute" unicode="&#x139;" horiz-adv-x="435" 
d="M166 756l112 137h73l-123 -137h-62zM223 700l-96 -641h256l-9 -59h-318l105 700h62z" />
    <glyph glyph-name="Lcaron" unicode="&#x13d;" horiz-adv-x="435" 
d="M223 700l-96 -641h256l-9 -59h-318l105 700h62zM294 550l50 161h63l-60 -161h-53z" />
    <glyph glyph-name="Lcommaaccent" unicode="&#x13b;" horiz-adv-x="435" 
d="M223 700l-96 -641h256l-9 -59h-318l105 700h62zM150 -209l42 78q-14 1 -23.5 10.5t-9.5 24.5q0 17 13 29t32 12q17 0 28.5 -11t11.5 -28q0 -10 -3.5 -18.5t-9.5 -19.5l-41 -77h-40z" />
    <glyph glyph-name="Lcommaaccent.square" horiz-adv-x="435" 
d="M223 700l-96 -641h256l-9 -59h-318l105 700h62zM178 -58h60l-13 -90q-5 -37 -23 -58t-51 -23l5 35q13 2 21.5 12.5t11.5 31.5l1 7h-25z" />
    <glyph glyph-name="Ldot" unicode="&#x13f;" horiz-adv-x="435" 
d="M223 700l-96 -641h256l-9 -59h-318l105 700h62zM314 347q0 17 13 30t30 13t29 -12t12 -29t-13 -30t-31 -13q-17 0 -28.5 12t-11.5 29z" />
    <glyph glyph-name="Ldot.square" horiz-adv-x="435" 
d="M223 700l-96 -641h256l-9 -59h-318l105 700h62zM319 303l14 95h60l-14 -95h-60z" />
    <glyph glyph-name="Lslash" unicode="&#x141;" horiz-adv-x="450" 
d="M238 700l-50 -330l183 87l-9 -58l-182 -88l-38 -252h256l-9 -59h-318l42 279l-97 -46l8 58l97 47l55 362h62z" />
    <glyph glyph-name="Nacute" unicode="&#x143;" horiz-adv-x="769" 
d="M746 700l-105 -700h-56l-378 608l-91 -608h-60l105 700h60l374 -604l91 604h60zM434 756l112 137h73l-123 -137h-62z" />
    <glyph glyph-name="Ncaron" unicode="&#x147;" horiz-adv-x="769" 
d="M746 700l-105 -700h-56l-378 608l-91 -608h-60l105 700h60l374 -604l91 604h60zM625 893l-131 -137h-48l-90 137h61l59 -89l85 89h64z" />
    <glyph glyph-name="Ncommaaccent" unicode="&#x145;" horiz-adv-x="769" 
d="M746 700l-105 -700h-56l-378 608l-91 -608h-60l105 700h60l374 -604l91 604h60zM283 -209l42 78q-14 1 -23.5 10.5t-9.5 24.5q0 17 13 29t32 12q17 0 28.5 -11t11.5 -28q0 -10 -3.5 -18.5t-9.5 -19.5l-41 -77h-40z" />
    <glyph glyph-name="Ncommaaccent.square" horiz-adv-x="769" 
d="M746 700l-105 -700h-56l-378 608l-91 -608h-60l105 700h60l374 -604l91 604h60zM311 -58h60l-13 -90q-5 -37 -23 -58t-51 -23l5 35q13 2 21.5 12.5t11.5 31.5l1 7h-25z" />
    <glyph glyph-name="Ntilde" unicode="&#xd1;" horiz-adv-x="769" 
d="M746 700l-105 -700h-56l-378 608l-91 -608h-60l105 700h60l374 -604l91 604h60zM333 775q4 48 29 70.5t60 22.5q25 0 41.5 -8.5t29.5 -18.5t25.5 -18.5t29.5 -8.5q20 0 32 14t14 37h44q-3 -48 -28.5 -70.5t-60.5 -22.5q-25 0 -41.5 8.5t-30 18.5t-26 18.5t-28.5 8.5
q-21 0 -32.5 -14t-13.5 -37h-44z" />
    <glyph glyph-name="Eng" unicode="&#x14a;" horiz-adv-x="769" 
d="M746 700l-109 -724q-14 -95 -66.5 -145t-137.5 -50q-36 0 -62 9t-41 18l9 58q14 -10 36.5 -18.5t56.5 -8.5q59 0 98 39t48 113l2 16l-373 601l-91 -608h-60l105 700h60l374 -604l91 604h60z" />
    <glyph glyph-name="Oacute" unicode="&#xd3;" horiz-adv-x="822" 
d="M786 377q0 -78 -31 -148t-83.5 -123.5t-122.5 -85t-148 -31.5q-70 0 -130.5 26t-105 71t-70 106t-25.5 131q0 78 31 148.5t83.5 124t122.5 85t148 31.5q70 0 130.5 -26t105 -71.5t70 -106.5t25.5 -131zM403 48q65 0 123 27t101.5 72t69 104t25.5 124q0 58 -20.5 109
t-56.5 88.5t-85.5 59t-107.5 21.5q-65 0 -123 -27t-101.5 -72t-68.5 -104.5t-25 -124.5q0 -58 20 -108.5t56 -88t85.5 -59t107.5 -21.5zM438 756l112 137h73l-123 -137h-62z" />
    <glyph glyph-name="Obreve" unicode="&#x14e;" horiz-adv-x="822" 
d="M786 377q0 -78 -31 -148t-83.5 -123.5t-122.5 -85t-148 -31.5q-70 0 -130.5 26t-105 71t-70 106t-25.5 131q0 78 31 148.5t83.5 124t122.5 85t148 31.5q70 0 130.5 -26t105 -71.5t70 -106.5t25.5 -131zM403 48q65 0 123 27t101.5 72t69 104t25.5 124q0 58 -20.5 109
t-56.5 88.5t-85.5 59t-107.5 21.5q-65 0 -123 -27t-101.5 -72t-68.5 -104.5t-25 -124.5q0 -58 20 -108.5t56 -88t85.5 -59t107.5 -21.5zM495 803q33 0 56.5 23t28.5 63h48q-2 -30 -13 -54t-29 -41t-42 -26t-51 -9q-28 0 -51 10t-38.5 27.5t-23 41t-5.5 51.5h49
q-2 -38 18 -62t53 -24z" />
    <glyph glyph-name="Ocircumflex" unicode="&#xd4;" horiz-adv-x="822" 
d="M786 377q0 -78 -31 -148t-83.5 -123.5t-122.5 -85t-148 -31.5q-70 0 -130.5 26t-105 71t-70 106t-25.5 131q0 78 31 148.5t83.5 124t122.5 85t148 31.5q70 0 130.5 -26t105 -71.5t70 -106.5t25.5 -131zM403 48q65 0 123 27t101.5 72t69 104t25.5 124q0 58 -20.5 109
t-56.5 88.5t-85.5 59t-107.5 21.5q-65 0 -123 -27t-101.5 -72t-68.5 -104.5t-25 -124.5q0 -58 20 -108.5t56 -88t85.5 -59t107.5 -21.5zM348 756l131 137h48l90 -137h-61l-59 89l-85 -89h-64z" />
    <glyph glyph-name="Odieresis" unicode="&#xd6;" horiz-adv-x="822" 
d="M786 377q0 -78 -31 -148t-83.5 -123.5t-122.5 -85t-148 -31.5q-70 0 -130.5 26t-105 71t-70 106t-25.5 131q0 78 31 148.5t83.5 124t122.5 85t148 31.5q70 0 130.5 -26t105 -71.5t70 -106.5t25.5 -131zM403 48q65 0 123 27t101.5 72t69 104t25.5 124q0 58 -20.5 109
t-56.5 88.5t-85.5 59t-107.5 21.5q-65 0 -123 -27t-101.5 -72t-68.5 -104.5t-25 -124.5q0 -58 20 -108.5t56 -88t85.5 -59t107.5 -21.5zM615 827q0 -17 -12 -29t-29 -12t-28 11t-11 28t12 29t29 12t28 -11t11 -28zM448 827q0 -17 -12 -29t-29 -12t-28 11t-11 28t12 29t29 12
t28 -11t11 -28z" />
    <glyph glyph-name="Odieresis.square" horiz-adv-x="822" 
d="M786 377q0 -78 -31 -148t-83.5 -123.5t-122.5 -85t-148 -31.5q-70 0 -130.5 26t-105 71t-70 106t-25.5 131q0 78 31 148.5t83.5 124t122.5 85t148 31.5q70 0 130.5 -26t105 -71.5t70 -106.5t25.5 -131zM403 48q65 0 123 27t101.5 72t69 104t25.5 124q0 58 -20.5 109
t-56.5 88.5t-85.5 59t-107.5 21.5q-65 0 -123 -27t-101.5 -72t-68.5 -104.5t-25 -124.5q0 -58 20 -108.5t56 -88t85.5 -59t107.5 -21.5zM376 782l13 88h59l-13 -88h-59zM536 782l13 88h59l-13 -88h-59z" />
    <glyph glyph-name="Ograve" unicode="&#xd2;" horiz-adv-x="822" 
d="M786 377q0 -78 -31 -148t-83.5 -123.5t-122.5 -85t-148 -31.5q-70 0 -130.5 26t-105 71t-70 106t-25.5 131q0 78 31 148.5t83.5 124t122.5 85t148 31.5q70 0 130.5 -26t105 -71.5t70 -106.5t25.5 -131zM403 48q65 0 123 27t101.5 72t69 104t25.5 124q0 58 -20.5 109
t-56.5 88.5t-85.5 59t-107.5 21.5q-65 0 -123 -27t-101.5 -72t-68.5 -104.5t-25 -124.5q0 -58 20 -108.5t56 -88t85.5 -59t107.5 -21.5zM465 756l-84 137h69l71 -137h-56z" />
    <glyph glyph-name="Ohungarumlaut" unicode="&#x150;" horiz-adv-x="822" 
d="M786 377q0 -78 -31 -148t-83.5 -123.5t-122.5 -85t-148 -31.5q-70 0 -130.5 26t-105 71t-70 106t-25.5 131q0 78 31 148.5t83.5 124t122.5 85t148 31.5q70 0 130.5 -26t105 -71.5t70 -106.5t25.5 -131zM403 48q65 0 123 27t101.5 72t69 104t25.5 124q0 58 -20.5 109
t-56.5 88.5t-85.5 59t-107.5 21.5q-65 0 -123 -27t-101.5 -72t-68.5 -104.5t-25 -124.5q0 -58 20 -108.5t56 -88t85.5 -59t107.5 -21.5zM378 756l105 137h67l-116 -137h-56zM528 756l105 137h67l-116 -137h-56z" />
    <glyph glyph-name="Omacron" unicode="&#x14c;" horiz-adv-x="822" 
d="M786 377q0 -78 -31 -148t-83.5 -123.5t-122.5 -85t-148 -31.5q-70 0 -130.5 26t-105 71t-70 106t-25.5 131q0 78 31 148.5t83.5 124t122.5 85t148 31.5q70 0 130.5 -26t105 -71.5t70 -106.5t25.5 -131zM403 48q65 0 123 27t101.5 72t69 104t25.5 124q0 58 -20.5 109
t-56.5 88.5t-85.5 59t-107.5 21.5q-65 0 -123 -27t-101.5 -72t-68.5 -104.5t-25 -124.5q0 -58 20 -108.5t56 -88t85.5 -59t107.5 -21.5zM363 793l6 43h250l-6 -43h-250z" />
    <glyph glyph-name="Otilde" unicode="&#xd5;" horiz-adv-x="822" 
d="M786 377q0 -78 -31 -148t-83.5 -123.5t-122.5 -85t-148 -31.5q-70 0 -130.5 26t-105 71t-70 106t-25.5 131q0 78 31 148.5t83.5 124t122.5 85t148 31.5q70 0 130.5 -26t105 -71.5t70 -106.5t25.5 -131zM403 48q65 0 123 27t101.5 72t69 104t25.5 124q0 58 -20.5 109
t-56.5 88.5t-85.5 59t-107.5 21.5q-65 0 -123 -27t-101.5 -72t-68.5 -104.5t-25 -124.5q0 -58 20 -108.5t56 -88t85.5 -59t107.5 -21.5zM338 775q4 48 29 70.5t60 22.5q25 0 41.5 -8.5t29.5 -18.5t25.5 -18.5t29.5 -8.5q20 0 32 14t14 37h44q-3 -48 -28.5 -70.5t-60.5 -22.5
q-25 0 -41.5 8.5t-30 18.5t-26 18.5t-28.5 8.5q-21 0 -32.5 -14t-13.5 -37h-44z" />
    <glyph glyph-name="OE" unicode="&#x152;" horiz-adv-x="974" 
d="M977 643h-312l-37 -250h288l-9 -57h-288l-41 -279h314l-9 -57h-508q-66 0 -122 23.5t-96.5 64.5t-63.5 97.5t-23 122.5q0 81 31.5 152.5t85.5 125t126.5 84t154.5 30.5h518zM134 311q0 -55 18 -101.5t51 -80t78 -52.5t99 -19h136l87 584h-141q-66 0 -125.5 -26.5
t-104.5 -71.5t-71.5 -105t-26.5 -128z" />
    <glyph glyph-name="Racute" unicode="&#x154;" horiz-adv-x="570" 
d="M340 700q92 0 146.5 -45.5t54.5 -130.5q0 -46 -16.5 -83.5t-45.5 -64.5t-69.5 -43t-88.5 -19l184 -314h-71l-182 312h-88l-46 -312h-62l105 700h179zM173 369h122q40 0 73.5 10.5t58 30.5t38 48t13.5 63q0 58 -39.5 89.5t-107.5 31.5h-117zM299 756l112 137h73l-123 -137
h-62z" />
    <glyph glyph-name="Rcaron" unicode="&#x158;" horiz-adv-x="570" 
d="M340 700q92 0 146.5 -45.5t54.5 -130.5q0 -46 -16.5 -83.5t-45.5 -64.5t-69.5 -43t-88.5 -19l184 -314h-71l-182 312h-88l-46 -312h-62l105 700h179zM173 369h122q40 0 73.5 10.5t58 30.5t38 48t13.5 63q0 58 -39.5 89.5t-107.5 31.5h-117zM505 893l-131 -137h-48
l-90 137h61l59 -89l85 89h64z" />
    <glyph glyph-name="Rcommaaccent" unicode="&#x156;" horiz-adv-x="570" 
d="M340 700q92 0 146.5 -45.5t54.5 -130.5q0 -46 -16.5 -83.5t-45.5 -64.5t-69.5 -43t-88.5 -19l184 -314h-71l-182 312h-88l-46 -312h-62l105 700h179zM173 369h122q40 0 73.5 10.5t58 30.5t38 48t13.5 63q0 58 -39.5 89.5t-107.5 31.5h-117zM203 -209l42 78
q-14 1 -23.5 10.5t-9.5 24.5q0 17 13 29t32 12q17 0 28.5 -11t11.5 -28q0 -10 -3.5 -18.5t-9.5 -19.5l-41 -77h-40z" />
    <glyph glyph-name="Rcommaaccent.square" horiz-adv-x="570" 
d="M340 700q92 0 146.5 -45.5t54.5 -130.5q0 -46 -16.5 -83.5t-45.5 -64.5t-69.5 -43t-88.5 -19l184 -314h-71l-182 312h-88l-46 -312h-62l105 700h179zM173 369h122q40 0 73.5 10.5t58 30.5t38 48t13.5 63q0 58 -39.5 89.5t-107.5 31.5h-117zM233 -58h60l-13 -90
q-5 -37 -23 -58t-51 -23l5 35q13 2 21.5 12.5t11.5 31.5l1 7h-25z" />
    <glyph glyph-name="Sacute" unicode="&#x15a;" horiz-adv-x="529" 
d="M90 198q14 -67 57 -108.5t110 -41.5q32 0 60.5 10t49.5 29t33.5 44.5t12.5 57.5q0 73 -92 121l-92 48q-118 61 -118 168q0 42 15 76t42 58.5t63.5 38t79.5 13.5q76 0 130 -43.5t69 -121.5l-59 -18q-11 54 -46.5 89t-95.5 35q-28 0 -52.5 -8.5t-43 -24.5t-29 -38.5
t-10.5 -49.5q0 -75 89 -121l90 -47q63 -32 93.5 -73.5t30.5 -95.5q0 -46 -17.5 -84t-47.5 -65.5t-70.5 -42t-86.5 -14.5q-88 0 -148.5 50.5t-76.5 141.5zM294 756l112 137h73l-123 -137h-62z" />
    <glyph glyph-name="Scaron" unicode="&#x160;" horiz-adv-x="529" 
d="M90 198q14 -67 57 -108.5t110 -41.5q32 0 60.5 10t49.5 29t33.5 44.5t12.5 57.5q0 73 -92 121l-92 48q-118 61 -118 168q0 42 15 76t42 58.5t63.5 38t79.5 13.5q76 0 130 -43.5t69 -121.5l-59 -18q-11 54 -46.5 89t-95.5 35q-28 0 -52.5 -8.5t-43 -24.5t-29 -38.5
t-10.5 -49.5q0 -75 89 -121l90 -47q63 -32 93.5 -73.5t30.5 -95.5q0 -46 -17.5 -84t-47.5 -65.5t-70.5 -42t-86.5 -14.5q-88 0 -148.5 50.5t-76.5 141.5zM487 893l-131 -137h-48l-90 137h61l59 -89l85 89h64z" />
    <glyph glyph-name="Scedilla" unicode="&#x15e;" horiz-adv-x="529" 
d="M242 -55q34 -1 55 -22t21 -53q0 -38 -27 -62t-66 -24q-35 0 -58.5 21t-26.5 52h46q2 -13 13 -23.5t29 -10.5q20 0 33 13t13 32q0 17 -11.5 28.5t-29.5 11.5q-20 0 -37 -17l-38 29l54 73q-72 11 -120 60t-62 128l60 17q14 -67 57 -108.5t110 -41.5q32 0 60.5 10t49.5 29
t33.5 44.5t12.5 57.5q0 73 -92 121l-92 48q-118 61 -118 168q0 42 15 76t42 58.5t63.5 38t79.5 13.5q76 0 130 -43.5t69 -121.5l-59 -18q-11 54 -46.5 89t-95.5 35q-28 0 -52.5 -8.5t-43 -24.5t-29 -38.5t-10.5 -49.5q0 -75 89 -121l90 -47q63 -32 93.5 -73.5t30.5 -95.5
q0 -46 -17 -84t-47 -65t-70 -42t-86 -15l-37 -48q9 4 22 4z" />
    <glyph glyph-name="Scircumflex" unicode="&#x15c;" horiz-adv-x="529" 
d="M90 198q14 -67 57 -108.5t110 -41.5q32 0 60.5 10t49.5 29t33.5 44.5t12.5 57.5q0 73 -92 121l-92 48q-118 61 -118 168q0 42 15 76t42 58.5t63.5 38t79.5 13.5q76 0 130 -43.5t69 -121.5l-59 -18q-11 54 -46.5 89t-95.5 35q-28 0 -52.5 -8.5t-43 -24.5t-29 -38.5
t-10.5 -49.5q0 -75 89 -121l90 -47q63 -32 93.5 -73.5t30.5 -95.5q0 -46 -17.5 -84t-47.5 -65.5t-70.5 -42t-86.5 -14.5q-88 0 -148.5 50.5t-76.5 141.5zM197 756l131 137h48l90 -137h-61l-59 89l-85 -89h-64z" />
    <glyph glyph-name="Scommaaccent" unicode="&#x218;" horiz-adv-x="529" 
d="M90 198q14 -67 57 -108.5t110 -41.5q32 0 60.5 10t49.5 29t33.5 44.5t12.5 57.5q0 73 -92 121l-92 48q-118 61 -118 168q0 42 15 76t42 58.5t63.5 38t79.5 13.5q76 0 130 -43.5t69 -121.5l-59 -18q-11 54 -46.5 89t-95.5 35q-28 0 -52.5 -8.5t-43 -24.5t-29 -38.5
t-10.5 -49.5q0 -75 89 -121l90 -47q63 -32 93.5 -73.5t30.5 -95.5q0 -46 -17.5 -84t-47.5 -65.5t-70.5 -42t-86.5 -14.5q-88 0 -148.5 50.5t-76.5 141.5zM175 -209l42 78q-14 1 -23.5 10.5t-9.5 24.5q0 17 13 29t32 12q17 0 28.5 -11t11.5 -28q0 -10 -3.5 -18.5t-9.5 -19.5
l-41 -77h-40z" />
    <glyph glyph-name="Scommaaccent.square" horiz-adv-x="529" 
d="M90 198q14 -67 57 -108.5t110 -41.5q32 0 60.5 10t49.5 29t33.5 44.5t12.5 57.5q0 73 -92 121l-92 48q-118 61 -118 168q0 42 15 76t42 58.5t63.5 38t79.5 13.5q76 0 130 -43.5t69 -121.5l-59 -18q-11 54 -46.5 89t-95.5 35q-28 0 -52.5 -8.5t-43 -24.5t-29 -38.5
t-10.5 -49.5q0 -75 89 -121l90 -47q63 -32 93.5 -73.5t30.5 -95.5q0 -46 -17.5 -84t-47.5 -65.5t-70.5 -42t-86.5 -14.5q-88 0 -148.5 50.5t-76.5 141.5zM204 -58h60l-13 -90q-5 -37 -23 -58t-51 -23l5 35q13 2 21.5 12.5t11.5 31.5l1 7h-25z" />
    <glyph glyph-name="Tbar" unicode="&#x166;" horiz-adv-x="530" 
d="M90 700h488l-9 -59h-212l-40 -261h137l-9 -58h-136l-48 -322h-63l48 322h-137l9 58h136l40 261h-213z" />
    <glyph glyph-name="Tcaron" unicode="&#x164;" horiz-adv-x="530" 
d="M90 700h488l-9 -59h-212l-96 -641h-63l96 641h-213zM497 893l-131 -137h-48l-90 137h61l59 -89l85 89h64z" />
    <glyph glyph-name="Tcommaaccent" unicode="&#x162;" horiz-adv-x="530" 
d="M90 700h488l-9 -59h-212l-96 -641h-63l96 641h-213zM164 -209l42 78q-14 1 -23.5 10.5t-9.5 24.5q0 17 13 29t32 12q17 0 28.5 -11t11.5 -28q0 -10 -3.5 -18.5t-9.5 -19.5l-41 -77h-40z" />
    <glyph glyph-name="Tcommaaccent.square" horiz-adv-x="530" 
d="M90 700h488l-9 -59h-212l-96 -641h-63l96 641h-213zM192 -58h60l-13 -90q-5 -37 -23 -58t-51 -23l5 35q13 2 21.5 12.5t11.5 31.5l1 7h-25z" />
    <glyph glyph-name="Uacute" unicode="&#xda;" horiz-adv-x="692" 
d="M319 -11q-67 0 -115 21.5t-77 60t-39 92.5t0 119l62 418h63l-62 -417q-8 -52 -1 -95.5t28 -74.5t56.5 -48t85.5 -17q48 0 88 17.5t69.5 48.5t49 74t27.5 95l63 417h62l-62 -419q-10 -66 -34.5 -120t-62.5 -92t-88.5 -59t-112.5 -21zM374 756l112 137h73l-123 -137h-62z
" />
    <glyph glyph-name="Ubreve" unicode="&#x16c;" horiz-adv-x="692" 
d="M319 -11q-67 0 -115 21.5t-77 60t-39 92.5t0 119l62 418h63l-62 -417q-8 -52 -1 -95.5t28 -74.5t56.5 -48t85.5 -17q48 0 88 17.5t69.5 48.5t49 74t27.5 95l63 417h62l-62 -419q-10 -66 -34.5 -120t-62.5 -92t-88.5 -59t-112.5 -21zM433 803q33 0 56.5 23t28.5 63h48
q-2 -30 -13 -54t-29 -41t-42 -26t-51 -9q-28 0 -51 10t-38.5 27.5t-23 41t-5.5 51.5h49q-2 -38 18 -62t53 -24z" />
    <glyph glyph-name="Ucircumflex" unicode="&#xdb;" horiz-adv-x="692" 
d="M319 -11q-67 0 -115 21.5t-77 60t-39 92.5t0 119l62 418h63l-62 -417q-8 -52 -1 -95.5t28 -74.5t56.5 -48t85.5 -17q48 0 88 17.5t69.5 48.5t49 74t27.5 95l63 417h62l-62 -419q-10 -66 -34.5 -120t-62.5 -92t-88.5 -59t-112.5 -21zM289 756l131 137h48l90 -137h-61
l-59 89l-85 -89h-64z" />
    <glyph glyph-name="Udieresis" unicode="&#xdc;" horiz-adv-x="692" 
d="M319 -11q-67 0 -115 21.5t-77 60t-39 92.5t0 119l62 418h63l-62 -417q-8 -52 -1 -95.5t28 -74.5t56.5 -48t85.5 -17q48 0 88 17.5t69.5 48.5t49 74t27.5 95l63 417h62l-62 -419q-10 -66 -34.5 -120t-62.5 -92t-88.5 -59t-112.5 -21zM556 827q0 -17 -12 -29t-29 -12
t-28 11t-11 28t12 29t29 12t28 -11t11 -28zM389 827q0 -17 -12 -29t-29 -12t-28 11t-11 28t12 29t29 12t28 -11t11 -28z" />
    <glyph glyph-name="Udieresis.square" horiz-adv-x="692" 
d="M319 -11q-67 0 -115 21.5t-77 60t-39 92.5t0 119l62 418h63l-62 -417q-8 -52 -1 -95.5t28 -74.5t56.5 -48t85.5 -17q48 0 88 17.5t69.5 48.5t49 74t27.5 95l63 417h62l-62 -419q-10 -66 -34.5 -120t-62.5 -92t-88.5 -59t-112.5 -21zM316 782l13 88h59l-13 -88h-59z
M476 782l13 88h59l-13 -88h-59z" />
    <glyph glyph-name="Ugrave" unicode="&#xd9;" horiz-adv-x="692" 
d="M319 -11q-67 0 -115 21.5t-77 60t-39 92.5t0 119l62 418h63l-62 -417q-8 -52 -1 -95.5t28 -74.5t56.5 -48t85.5 -17q48 0 88 17.5t69.5 48.5t49 74t27.5 95l63 417h62l-62 -419q-10 -66 -34.5 -120t-62.5 -92t-88.5 -59t-112.5 -21zM415 756l-84 137h69l71 -137h-56z" />
    <glyph glyph-name="Uhungarumlaut" unicode="&#x170;" horiz-adv-x="692" 
d="M319 -11q-67 0 -115 21.5t-77 60t-39 92.5t0 119l62 418h63l-62 -417q-8 -52 -1 -95.5t28 -74.5t56.5 -48t85.5 -17q48 0 88 17.5t69.5 48.5t49 74t27.5 95l63 417h62l-62 -419q-10 -66 -34.5 -120t-62.5 -92t-88.5 -59t-112.5 -21zM312 756l105 137h67l-116 -137h-56z
M462 756l105 137h67l-116 -137h-56z" />
    <glyph glyph-name="Umacron" unicode="&#x16a;" horiz-adv-x="692" 
d="M319 -11q-67 0 -115 21.5t-77 60t-39 92.5t0 119l62 418h63l-62 -417q-8 -52 -1 -95.5t28 -74.5t56.5 -48t85.5 -17q48 0 88 17.5t69.5 48.5t49 74t27.5 95l63 417h62l-62 -419q-10 -66 -34.5 -120t-62.5 -92t-88.5 -59t-112.5 -21zM302 793l6 43h250l-6 -43h-250z" />
    <glyph glyph-name="Uogonek" unicode="&#x172;" horiz-adv-x="692" 
d="M320 48q48 0 88 17.5t69.5 48.5t49 74t27.5 95l63 417h62l-62 -419q-16 -107 -68.5 -178.5t-137.5 -101.5q-60 -21 -95.5 -52t-35.5 -63q0 -22 13.5 -33t36.5 -11q15 0 29.5 4t27.5 14l-6 -46q-14 -8 -31 -12.5t-35 -4.5q-40 0 -63 21t-23 58t22.5 64.5t57.5 48.5
q-65 1 -111 23.5t-74 61t-37 91.5t1 117l62 418h63l-62 -417q-8 -52 -1 -95.5t28 -74.5t56.5 -48t85.5 -17z" />
    <glyph glyph-name="Uring" unicode="&#x16e;" horiz-adv-x="692" 
d="M319 -11q-67 0 -115 21.5t-77 60t-39 92.5t0 119l62 418h63l-62 -417q-8 -52 -1 -95.5t28 -74.5t56.5 -48t85.5 -17q48 0 88 17.5t69.5 48.5t49 74t27.5 95l63 417h62l-62 -419q-10 -66 -34.5 -120t-62.5 -92t-88.5 -59t-112.5 -21zM523 830q0 -40 -28.5 -66t-67.5 -26
q-38 0 -63.5 24.5t-25.5 60.5q0 41 28.5 67t68.5 26q36 0 62 -24t26 -62zM480 828q0 20 -13.5 34t-32.5 14t-36 -14t-17 -37q0 -20 13.5 -33.5t34.5 -13.5q19 0 35 14t16 36z" />
    <glyph glyph-name="Utilde" unicode="&#x168;" horiz-adv-x="692" 
d="M319 -11q-67 0 -115 21.5t-77 60t-39 92.5t0 119l62 418h63l-62 -417q-8 -52 -1 -95.5t28 -74.5t56.5 -48t85.5 -17q48 0 88 17.5t69.5 48.5t49 74t27.5 95l63 417h62l-62 -419q-10 -66 -34.5 -120t-62.5 -92t-88.5 -59t-112.5 -21zM278 775q4 48 29 70.5t60 22.5
q25 0 41.5 -8.5t29.5 -18.5t25.5 -18.5t29.5 -8.5q20 0 32 14t14 37h44q-3 -48 -28.5 -70.5t-60.5 -22.5q-25 0 -41.5 8.5t-30 18.5t-26 18.5t-28.5 8.5q-21 0 -32.5 -14t-13.5 -37h-44z" />
    <glyph glyph-name="Wacute" unicode="&#x1e82;" horiz-adv-x="995" 
d="M222 0l-130 700h62l107 -585l284 585h40l110 -585l281 585h65l-341 -700h-41l-110 583l-285 -583h-42zM539 756l112 137h73l-123 -137h-62z" />
    <glyph glyph-name="Wcircumflex" unicode="&#x174;" horiz-adv-x="995" 
d="M222 0l-130 700h62l107 -585l284 585h40l110 -585l281 585h65l-341 -700h-41l-110 583l-285 -583h-42zM439 756l131 137h48l90 -137h-61l-59 89l-85 -89h-64z" />
    <glyph glyph-name="Wdieresis" unicode="&#x1e84;" horiz-adv-x="995" 
d="M222 0l-130 700h62l107 -585l284 585h40l110 -585l281 585h65l-341 -700h-41l-110 583l-285 -583h-42zM706 827q0 -17 -12 -29t-29 -12t-28 11t-11 28t12 29t29 12t28 -11t11 -28zM539 827q0 -17 -12 -29t-29 -12t-28 11t-11 28t12 29t29 12t28 -11t11 -28z" />
    <glyph glyph-name="Wdieresis.square" horiz-adv-x="995" 
d="M222 0l-130 700h62l107 -585l284 585h40l110 -585l281 585h65l-341 -700h-41l-110 583l-285 -583h-42zM467 782l13 88h59l-13 -88h-59zM627 782l13 88h59l-13 -88h-59z" />
    <glyph glyph-name="Wgrave" unicode="&#x1e80;" horiz-adv-x="995" 
d="M222 0l-130 700h62l107 -585l284 585h40l110 -585l281 585h65l-341 -700h-41l-110 583l-285 -583h-42zM550 756l-84 137h69l71 -137h-56z" />
    <glyph glyph-name="Yacute" unicode="&#xdd;" horiz-adv-x="616" 
d="M86 700h69l171 -327l268 327h74l-317 -384l-48 -316h-62l48 316zM351 756l112 137h73l-123 -137h-62z" />
    <glyph glyph-name="Ycircumflex" unicode="&#x176;" horiz-adv-x="616" 
d="M86 700h69l171 -327l268 327h74l-317 -384l-48 -316h-62l48 316zM250 756l131 137h48l90 -137h-61l-59 89l-85 -89h-64z" />
    <glyph glyph-name="Ydieresis" unicode="&#x178;" horiz-adv-x="616" 
d="M86 700h69l171 -327l268 327h74l-317 -384l-48 -316h-62l48 316zM514 827q0 -17 -12 -29t-29 -12t-28 11t-11 28t12 29t29 12t28 -11t11 -28zM347 827q0 -17 -12 -29t-29 -12t-28 11t-11 28t12 29t29 12t28 -11t11 -28z" />
    <glyph glyph-name="Ydieresis.square" horiz-adv-x="616" 
d="M86 700h69l171 -327l268 327h74l-317 -384l-48 -316h-62l48 316zM275 782l13 88h59l-13 -88h-59zM435 782l13 88h59l-13 -88h-59z" />
    <glyph glyph-name="Ygrave" unicode="&#x1ef2;" horiz-adv-x="616" 
d="M86 700h69l171 -327l268 327h74l-317 -384l-48 -316h-62l48 316zM360 756l-84 137h69l71 -137h-56z" />
    <glyph glyph-name="IJ" unicode="&#x132;" horiz-adv-x="723" 
d="M223 700l-105 -700h-62l105 700h62zM635 197q-7 -45 -24.5 -83.5t-44.5 -66t-64 -43t-82 -15.5q-73 0 -123 39t-64 111l53 22q14 -51 47 -82.5t88 -31.5q33 0 59 12t45.5 33t31.5 49.5t17 62.5l74 496h62z" />
    <glyph glyph-name="Zacute" unicode="&#x179;" horiz-adv-x="602" 
d="M99 57h438l-9 -57h-526l6 39l524 604h-410l9 57h498l-6 -39zM349 756l112 137h73l-123 -137h-62z" />
    <glyph glyph-name="Zcaron" unicode="&#x17d;" horiz-adv-x="602" 
d="M99 57h438l-9 -57h-526l6 39l524 604h-410l9 57h498l-6 -39zM552 893l-131 -137h-48l-90 137h61l59 -89l85 89h64z" />
    <glyph glyph-name="Zdotaccent" unicode="&#x17b;" horiz-adv-x="602" 
d="M99 57h438l-9 -57h-526l6 39l524 604h-410l9 57h498l-6 -39zM368 826q0 17 13 30t30 13t29 -12t12 -29t-13 -30t-31 -13q-17 0 -28.5 12t-11.5 29z" />
    <glyph glyph-name="Zdotaccent.square" horiz-adv-x="602" 
d="M99 57h438l-9 -57h-526l6 39l524 604h-410l9 57h498l-6 -39zM373 782l13 87h60l-13 -87h-60z" />
    <glyph glyph-name="Thorn" unicode="&#xde;" horiz-adv-x="544" 
d="M56 0l105 700h62l-23 -153h125q46 0 84 -12t65 -34.5t42 -55.5t15 -75q0 -50 -19.5 -89t-53 -66t-80 -41.5t-100.5 -14.5h-136l-24 -159h-62zM151 217h131q40 0 74 10.5t59 30t39 47t14 62.5q0 59 -40.5 90.5t-108.5 31.5h-128z" />
    <glyph glyph-name="a" unicode="a" horiz-adv-x="625" 
d="M448 0l13 84q-32 -46 -83 -70.5t-107 -24.5q-49 0 -90 17.5t-71 48.5t-47 73t-17 90q0 55 20.5 104.5t56 87t84 60t105.5 22.5q29 0 58.5 -7.5t55.5 -22t46.5 -36t32.5 -49.5l15 104h59l-72 -481h-59zM107 222q0 -37 13 -69.5t36 -56.5t55.5 -38t70.5 -14q44 0 82 18
t66 48t44 69t16 81q0 37 -13.5 69.5t-37 56.5t-56 37.5t-71.5 13.5q-44 0 -81 -18t-65 -47.5t-43.5 -68.5t-15.5 -81z" />
    <glyph glyph-name="b" unicode="b" horiz-adv-x="624" 
d="M210 700l-46 -303q32 46 83 70.5t107 24.5q49 0 90 -17.5t71 -48.5t47 -73t17 -90q0 -55 -20.5 -104.5t-56 -87t-84 -60t-105.5 -22.5q-29 0 -58.5 7.5t-55.5 22t-46.5 36t-32.5 49.5l-15 -104h-59l105 700h59zM518 259q0 37 -13 69.5t-36.5 56.5t-55.5 38t-70 14
q-44 0 -82 -18t-66 -48t-44 -69t-16 -81q0 -38 13.5 -70t37 -56t56 -37.5t71.5 -13.5q43 0 80.5 18t65.5 47.5t43.5 68.5t15.5 81z" />
    <glyph glyph-name="c" unicode="c" horiz-adv-x="485" 
d="M46 221q0 55 21 104.5t57 86.5t84.5 58.5t104.5 21.5q42 0 82.5 -13t71.5 -38l-9 -61q-31 26 -67.5 41t-77.5 15q-43 0 -80.5 -17t-65.5 -46t-44 -67.5t-16 -81.5q0 -38 13 -70.5t36.5 -56.5t55 -38t69.5 -14q35 0 70 13t65 33l-10 -65q-59 -37 -127 -37
q-49 0 -91.5 17.5t-74 48t-49.5 73t-18 93.5z" />
    <glyph glyph-name="d" unicode="d" horiz-adv-x="625" 
d="M448 0l13 84q-32 -46 -83 -70.5t-107 -24.5q-49 0 -90 17.5t-71 48.5t-47 73t-17 90q0 55 20.5 104.5t56 87t84 60t105.5 22.5q29 0 58.5 -7.5t55.5 -22t46.5 -36t32.5 -49.5l48 323h59l-105 -700h-59zM107 222q0 -37 13 -69.5t36 -56.5t55.5 -38t70.5 -14q44 0 82 18
t66 48t44 69t16 81q0 37 -13.5 69.5t-37 56.5t-56 37.5t-71.5 13.5q-44 0 -81 -18t-65 -47.5t-43.5 -68.5t-15.5 -81z" />
    <glyph glyph-name="e" unicode="e" horiz-adv-x="558" 
d="M277 44q56 0 94 26.5t67 68.5l48 -26q-34 -55 -89.5 -89.5t-124.5 -34.5q-49 0 -90.5 16.5t-71.5 46.5t-47 72t-17 93q0 55 19 104.5t53 87.5t81.5 60.5t104.5 22.5q48 0 87.5 -17t68 -46.5t44.5 -70.5t16 -89q0 -11 -1.5 -23.5t-4.5 -22.5h-409v-4q0 -40 13.5 -72
t37 -55t54.5 -35.5t67 -12.5zM300 439q-31 0 -61 -11t-55.5 -32.5t-44.5 -52t-27 -69.5h349v7q-1 34 -13.5 63t-33.5 50t-50.5 33t-63.5 12z" />
    <glyph glyph-name="f" unicode="f" horiz-adv-x="324" 
d="M62 481h75l12 76q11 76 54 115.5t107 39.5q22 0 42.5 -5t34.5 -11l-7 -55q-13 7 -30 11t-37 4q-42 0 -69 -26t-35 -77l-11 -72h138l-8 -54h-138l-64 -427h-60l63 427h-75z" />
    <glyph glyph-name="g" unicode="g" horiz-adv-x="619" 
d="M504 18q-8 -52 -28.5 -95.5t-53.5 -75t-78 -49t-102 -17.5q-75 0 -134 34.5t-85 102.5l51 29q20 -53 64 -81.5t106 -28.5q45 0 80 14.5t60.5 40t41 60.5t21.5 76l9 63q-31 -44 -82 -68t-106 -24q-48 0 -89 17.5t-70.5 47.5t-46 71t-16.5 88q0 54 20 102.5t55 85.5
t83.5 59t104.5 22q29 0 57.5 -7.5t54 -21.5t46 -35.5t32.5 -48.5l15 102h59zM107 227q0 -36 12.5 -67.5t35.5 -55t54.5 -37t69.5 -13.5q43 0 80.5 17.5t65 46.5t43.5 67t16 80q0 36 -13 67.5t-36.5 55t-55.5 36.5t-70 13q-43 0 -80 -17.5t-64 -46.5t-42.5 -67t-15.5 -79z
" />
    <glyph glyph-name="h" unicode="h" horiz-adv-x="585" 
d="M106 0h-60l105 700h60l-45 -301q26 38 71.5 65.5t104.5 27.5q47 0 83 -15.5t58.5 -43.5t31 -67.5t1.5 -87.5l-42 -278h-60l41 274q11 77 -22.5 120t-105.5 43q-35 0 -65.5 -14t-54.5 -38.5t-40 -57.5t-22 -70z" />
    <glyph glyph-name="i" unicode="i" horiz-adv-x="224" 
d="M178 481l-72 -481h-60l72 481h60zM211 630q0 -18 -13.5 -30.5t-30.5 -12.5t-29.5 12t-12.5 29q0 18 13.5 31t30.5 13t29.5 -12.5t12.5 -29.5z" />
    <glyph glyph-name="j" unicode="j" horiz-adv-x="230" 
d="M102 -64q-11 -78 -50 -116.5t-98 -38.5q-20 0 -34 3.5t-28 10.5l8 54q8 -5 21 -8.5t27 -3.5q37 0 62 26t33 77l81 541h60zM217 630q0 -18 -13.5 -30.5t-30.5 -12.5t-29.5 12t-12.5 29q0 18 13.5 31t30.5 13t29.5 -12.5t12.5 -29.5z" />
    <glyph glyph-name="k" unicode="k" horiz-adv-x="489" 
d="M147 274l258 207h81l-254 -205l205 -276h-73l-178 240l-50 -41l-30 -199h-60l105 700h60z" />
    <glyph glyph-name="l" unicode="l" horiz-adv-x="224" 
d="M211 700l-105 -700h-60l105 700h60z" />
    <glyph glyph-name="m" unicode="m" horiz-adv-x="891" 
d="M106 0h-60l72 481h60l-13 -83q23 38 65.5 66t99.5 28q60 0 98.5 -30t51.5 -79q11 19 29.5 38.5t42.5 35.5t52.5 25.5t60.5 9.5q42 0 75 -14.5t53.5 -41t28.5 -64.5t1 -84l-43 -288h-60l42 282q11 72 -18.5 113.5t-91.5 41.5q-31 0 -59.5 -13t-51 -35.5t-37.5 -54
t-21 -67.5l-40 -267h-60l42 280q11 73 -18 115t-91 42q-32 0 -61 -14t-51.5 -38t-37.5 -57t-21 -70z" />
    <glyph glyph-name="n" unicode="n" horiz-adv-x="585" 
d="M106 0h-60l72 481h60l-12 -82q26 38 71.5 65.5t104.5 27.5q47 0 83 -15.5t58.5 -43.5t31 -67.5t1.5 -87.5l-42 -278h-60l41 274q11 77 -22 120t-104 43q-35 0 -66 -14t-55.5 -38.5t-40.5 -57.5t-22 -70z" />
    <glyph glyph-name="o" unicode="o" horiz-adv-x="594" 
d="M315 492q49 0 92 -17.5t74.5 -48.5t49.5 -73.5t18 -92.5q0 -55 -21 -104.5t-57.5 -86.5t-85.5 -58.5t-105 -21.5q-50 0 -92.5 17.5t-74 48.5t-49.5 73.5t-18 92.5q0 55 21 104.5t57.5 86.5t85.5 58.5t105 21.5zM313 437q-41 0 -78 -16.5t-65.5 -45.5t-45.5 -67.5
t-17 -83.5q0 -38 13 -71t36.5 -57t55 -38t69.5 -14q41 0 78.5 16.5t66 45.5t45.5 68.5t17 84.5q0 37 -13.5 69.5t-36.5 56.5t-55.5 38t-69.5 14z" />
    <glyph glyph-name="p" unicode="p" horiz-adv-x="624" 
d="M15 -208l103 689h59l-13 -84q32 46 83 70.5t107 24.5q49 0 90 -18t71 -49t47 -73t17 -90q0 -55 -20.5 -104.5t-56 -87t-84 -59.5t-105.5 -22q-29 0 -58.5 7.5t-55.5 22t-46.5 36t-32.5 49.5l-46 -312h-59zM518 259q0 37 -13 69.5t-36.5 56.5t-55.5 38t-70 14
q-44 0 -82 -18t-66 -48t-44 -69t-16 -81q0 -38 13.5 -70t37 -56t56 -37.5t71.5 -13.5q43 0 80.5 18t65.5 47.5t43.5 68.5t15.5 81z" />
    <glyph glyph-name="q" unicode="q" horiz-adv-x="625" 
d="M417 -208l44 292q-32 -46 -83 -70.5t-107 -24.5q-49 0 -90 17.5t-71 48.5t-47 73t-17 90q0 55 20.5 104.5t56 87t84 60t105.5 22.5q29 0 58.5 -7.5t55.5 -22t46.5 -36t32.5 -49.5l15 104h59l-103 -689h-59zM107 222q0 -37 13 -69.5t36 -56.5t55.5 -38t70.5 -14
q44 0 82 18t66 48t44 69t16 81q0 37 -13.5 69.5t-37 56.5t-56 37.5t-71.5 13.5q-44 0 -81 -18t-65 -47.5t-43.5 -68.5t-15.5 -81z" />
    <glyph glyph-name="r" unicode="r" horiz-adv-x="347" 
d="M349 428h-6q-2 0 -5.5 0.5t-6.5 0.5q-36 0 -67.5 -14.5t-56.5 -40t-42.5 -61t-23.5 -78.5l-35 -235h-60l72 481h59l-14 -97q11 21 29.5 40t41.5 33.5t49 23t53 8.5q5 0 8.5 -0.5t6.5 -0.5h7z" />
    <glyph glyph-name="s" unicode="s" horiz-adv-x="405" 
d="M80 149q5 -47 35 -77t76 -30q42 0 71.5 24.5t29.5 65.5q0 27 -18 45.5t-49 32.5l-53 24q-46 20 -71.5 51.5t-25.5 73.5q0 31 12 55.5t33 42t48 26.5t57 9q58 0 99.5 -33.5t50.5 -91.5l-55 -17q-7 40 -32.5 65t-64.5 25q-37 0 -63 -21t-26 -56q0 -24 18.5 -43t47.5 -33
l52 -25q48 -23 74 -53t26 -73q0 -34 -13.5 -61.5t-36 -46.5t-52 -29t-62.5 -10q-32 0 -60.5 10t-50.5 29t-35.5 45t-16.5 59z" />
    <glyph glyph-name="t" unicode="t" horiz-adv-x="334" 
d="M219 629l-22 -148h139l-8 -54h-139l-43 -290q-7 -48 9.5 -70t58.5 -22q15 0 31 4t29 11l-8 -57q-11 -5 -27.5 -9.5t-37.5 -4.5q-65 0 -96 37.5t-20 106.5l44 294h-77l8 54h77l22 148h60z" />
    <glyph glyph-name="u" unicode="u" horiz-adv-x="583" 
d="M477 481h60l-72 -481h-60l12 82q-26 -38 -71 -65.5t-104 -27.5q-47 0 -82.5 15.5t-57.5 43.5t-30.5 67.5t-1.5 87.5l42 278h60l-41 -274q-11 -77 21.5 -120t102.5 -43q34 0 65 14t55.5 38.5t40.5 57t22 70.5z" />
    <glyph glyph-name="v" unicode="v" horiz-adv-x="501" 
d="M190 0l-131 481h63l104 -398l222 398h65l-274 -481h-49z" />
    <glyph glyph-name="w" unicode="w" horiz-adv-x="797" 
d="M506 0l-84 393l-203 -393h-47l-109 481h61l84 -396l203 396h45l85 -396l202 396h63l-252 -481h-48z" />
    <glyph glyph-name="x" unicode="x" horiz-adv-x="487" 
d="M240 204l-180 -204h-71l220 248l-139 233h67l113 -191l171 191h71l-211 -236l147 -245h-68z" />
    <glyph glyph-name="y" unicode="y" horiz-adv-x="502" 
d="M194 -86q-21 -37 -39.5 -62.5t-37.5 -41t-40 -22.5t-45 -7q-16 0 -28.5 3.5t-22.5 8.5l8 52q8 -4 19 -6.5t24 -2.5q32 0 55 21t51 70l47 83l-126 471h63l104 -402l223 402h66z" />
    <glyph glyph-name="z" unicode="z" horiz-adv-x="445" 
d="M83 481h365l-5 -36l-361 -392h307l-8 -53h-389l6 38l359 391h-282z" />
    <glyph glyph-name="a.alt" horiz-adv-x="515" 
d="M404 0h-57l13 82q-29 -42 -76.5 -67.5t-105.5 -25.5q-64 0 -102 34.5t-38 93.5q0 67 48.5 108.5t139.5 51.5l163 18l4 28q7 52 -22 83.5t-87 31.5q-48 0 -84.5 -25t-58.5 -72l-53 22q26 61 78 95t121 34q43 0 76.5 -13t55 -36t30.5 -55t3 -70zM99 120q0 -35 25.5 -56
t68.5 -21q34 0 65 12.5t55 34t40.5 50t21.5 59.5l7 43l-151 -17q-63 -7 -97.5 -35t-34.5 -70z" />
    <glyph glyph-name="t.alt" horiz-adv-x="282" 
d="M71 0l64 427h-89l8 54h89l22 148h60l-22 -148h102l-8 -54h-102l-64 -427h-60z" />
    <glyph glyph-name="u.alt" horiz-adv-x="562" 
d="M255 -11q-48 0 -86 15.5t-62 44.5t-33.5 70t-1.5 93l40 269h60l-40 -268q-12 -79 21.5 -123.5t103.5 -44.5q66 0 110 45t55 123l40 268h60l-41 -273q-16 -105 -75 -162t-151 -57z" />
    <glyph glyph-name="ae" unicode="&#xe6;" horiz-adv-x="878" 
d="M604 44q54 0 90.5 26.5t63.5 68.5l48 -26q-32 -55 -85.5 -89.5t-121.5 -34.5q-69 0 -120.5 34t-76.5 93q-32 -58 -90 -92.5t-130 -34.5q-66 0 -105 34.5t-39 93.5q0 67 48.5 108.5t139.5 51.5l163 18l3 22q7 52 -21.5 86.5t-86.5 34.5q-48 0 -84.5 -25t-58.5 -72l-53 22
q26 61 78 95t121 34q60 0 99 -29t53 -73q33 46 82.5 74t109.5 28q46 0 84.5 -17t66.5 -46.5t43 -70.5t15 -89q0 -11 -1.5 -23.5t-4.5 -22.5h-396v-4q0 -40 13 -72t35.5 -55t52.5 -35.5t65 -12.5zM627 439q-30 0 -59 -11t-54 -32.5t-43 -52t-26 -69.5h336v7q-1 34 -13 63
t-32.5 50t-48 33t-60.5 12zM196 43q32 0 62.5 12t54.5 32.5t40.5 48t21.5 59.5l7 47l-151 -17q-63 -7 -97.5 -35t-34.5 -70q0 -35 26 -56t71 -21z" />
    <glyph glyph-name="aeacute" unicode="&#x1fd;" horiz-adv-x="875" 
d="M601 44q54 0 90.5 26.5t63.5 68.5l48 -26q-32 -55 -85.5 -89.5t-121.5 -34.5q-69 0 -120.5 34t-76.5 93q-32 -58 -90 -92.5t-130 -34.5q-66 0 -105 34.5t-39 93.5q0 67 48.5 108.5t139.5 51.5l163 18l3 22q7 52 -21.5 86.5t-86.5 34.5q-48 0 -84.5 -25t-58.5 -72l-53 22
q26 61 78 95t121 34q60 0 99 -29t53 -73q33 46 82.5 74t109.5 28q46 0 84.5 -17t66.5 -46.5t43 -70.5t15 -89q0 -11 -1.5 -23.5t-4.5 -22.5h-396v-4q0 -40 13 -72t35.5 -55t52.5 -35.5t65 -12.5zM624 439q-30 0 -59 -11t-54 -32.5t-43 -52t-26 -69.5h336v7q-1 34 -13 63
t-32.5 50t-48 33t-60.5 12zM193 43q32 0 62.5 12t54.5 32.5t40.5 48t21.5 59.5l7 47l-151 -17q-63 -7 -97.5 -35t-34.5 -70q0 -35 26 -56t71 -21zM465 578l112 137h73l-123 -137h-62z" />
    <glyph glyph-name="oslash" unicode="&#xf8;" horiz-adv-x="595" 
d="M572 455l-65 -60q20 -28 31 -62.5t11 -72.5q0 -55 -21 -104.5t-57.5 -86.5t-85.5 -58.5t-105 -21.5q-46 0 -86 14.5t-71 41.5l-65 -60l-35 40l65 59q-42 59 -42 137q0 55 21 104.5t57.5 86.5t85.5 58.5t105 21.5q46 0 85.5 -15t71.5 -42l65 59zM313 437q-41 0 -78 -16.5
t-65.5 -45.5t-45.5 -67.5t-17 -83.5q0 -55 26 -98l295 269q-23 20 -52.5 31t-62.5 11zM488 259q0 26 -7 50t-19 45l-294 -269q47 -41 113 -41q41 0 78.5 16.5t66 45.5t45.5 68.5t17 84.5z" />
    <glyph glyph-name="oslashacute" unicode="&#x1ff;" horiz-adv-x="595" 
d="M572 455l-65 -60q20 -28 31 -62.5t11 -72.5q0 -55 -21 -104.5t-57.5 -86.5t-85.5 -58.5t-105 -21.5q-46 0 -86 14.5t-71 41.5l-65 -60l-35 40l65 59q-42 59 -42 137q0 55 21 104.5t57.5 86.5t85.5 58.5t105 21.5q46 0 85.5 -15t71.5 -42l65 59zM313 437q-41 0 -78 -16.5
t-65.5 -45.5t-45.5 -67.5t-17 -83.5q0 -55 26 -98l295 269q-23 20 -52.5 31t-62.5 11zM488 259q0 26 -7 50t-19 45l-294 -269q47 -41 113 -41q41 0 78.5 16.5t66 45.5t45.5 68.5t17 84.5zM309 578l112 137h73l-123 -137h-62z" />
    <glyph glyph-name="aring" unicode="&#xe5;" horiz-adv-x="625" 
d="M448 0l13 84q-32 -46 -83 -70.5t-107 -24.5q-49 0 -90 17.5t-71 48.5t-47 73t-17 90q0 55 20.5 104.5t56 87t84 60t105.5 22.5q29 0 58.5 -7.5t55.5 -22t46.5 -36t32.5 -49.5l15 104h59l-72 -481h-59zM107 222q0 -37 13 -69.5t36 -56.5t55.5 -38t70.5 -14q44 0 82 18
t66 48t44 69t16 81q0 37 -13.5 69.5t-37 56.5t-56 37.5t-71.5 13.5q-44 0 -81 -18t-65 -47.5t-43.5 -68.5t-15.5 -81zM451 652q0 -40 -28.5 -66t-67.5 -26q-38 0 -63.5 24.5t-25.5 60.5q0 41 28.5 67t68.5 26q36 0 62 -24t26 -62zM408 650q0 20 -13.5 34t-32.5 14t-36 -14
t-17 -37q0 -20 13.5 -33.5t34.5 -13.5q19 0 35 14t16 36z" />
    <glyph glyph-name="aacute" unicode="&#xe1;" horiz-adv-x="625" 
d="M448 0l13 84q-32 -46 -83 -70.5t-107 -24.5q-49 0 -90 17.5t-71 48.5t-47 73t-17 90q0 55 20.5 104.5t56 87t84 60t105.5 22.5q29 0 58.5 -7.5t55.5 -22t46.5 -36t32.5 -49.5l15 104h59l-72 -481h-59zM107 222q0 -37 13 -69.5t36 -56.5t55.5 -38t70.5 -14q44 0 82 18
t66 48t44 69t16 81q0 37 -13.5 69.5t-37 56.5t-56 37.5t-71.5 13.5q-44 0 -81 -18t-65 -47.5t-43.5 -68.5t-15.5 -81zM316 578l112 137h73l-123 -137h-62z" />
    <glyph glyph-name="abreve" unicode="&#x103;" horiz-adv-x="625" 
d="M448 0l13 84q-32 -46 -83 -70.5t-107 -24.5q-49 0 -90 17.5t-71 48.5t-47 73t-17 90q0 55 20.5 104.5t56 87t84 60t105.5 22.5q29 0 58.5 -7.5t55.5 -22t46.5 -36t32.5 -49.5l15 104h59l-72 -481h-59zM107 222q0 -37 13 -69.5t36 -56.5t55.5 -38t70.5 -14q44 0 82 18
t66 48t44 69t16 81q0 37 -13.5 69.5t-37 56.5t-56 37.5t-71.5 13.5q-44 0 -81 -18t-65 -47.5t-43.5 -68.5t-15.5 -81zM358 623q33 0 56.5 23t28.5 63h48q-2 -30 -13 -54t-29 -41t-42 -26t-51 -9q-28 0 -51 10t-38.5 27.5t-23 41t-5.5 51.5h49q-2 -38 18 -62t53 -24z" />
    <glyph glyph-name="acircumflex" unicode="&#xe2;" horiz-adv-x="625" 
d="M448 0l13 84q-32 -46 -83 -70.5t-107 -24.5q-49 0 -90 17.5t-71 48.5t-47 73t-17 90q0 55 20.5 104.5t56 87t84 60t105.5 22.5q29 0 58.5 -7.5t55.5 -22t46.5 -36t32.5 -49.5l15 104h59l-72 -481h-59zM107 222q0 -37 13 -69.5t36 -56.5t55.5 -38t70.5 -14q44 0 82 18
t66 48t44 69t16 81q0 37 -13.5 69.5t-37 56.5t-56 37.5t-71.5 13.5q-44 0 -81 -18t-65 -47.5t-43.5 -68.5t-15.5 -81zM215 578l131 137h48l90 -137h-61l-59 89l-85 -89h-64z" />
    <glyph glyph-name="adieresis" unicode="&#xe4;" horiz-adv-x="625" 
d="M448 0l13 84q-32 -46 -83 -70.5t-107 -24.5q-49 0 -90 17.5t-71 48.5t-47 73t-17 90q0 55 20.5 104.5t56 87t84 60t105.5 22.5q29 0 58.5 -7.5t55.5 -22t46.5 -36t32.5 -49.5l15 104h59l-72 -481h-59zM107 222q0 -37 13 -69.5t36 -56.5t55.5 -38t70.5 -14q44 0 82 18
t66 48t44 69t16 81q0 37 -13.5 69.5t-37 56.5t-56 37.5t-71.5 13.5q-44 0 -81 -18t-65 -47.5t-43.5 -68.5t-15.5 -81zM480 629q0 -17 -12 -29t-29 -12t-28 11t-11 28t12 29t29 12t28 -11t11 -28zM313 629q0 -17 -12 -29t-29 -12t-28 11t-11 28t12 29t29 12t28 -11t11 -28z
" />
    <glyph glyph-name="adieresis.square" horiz-adv-x="625" 
d="M448 0l13 84q-32 -46 -83 -70.5t-107 -24.5q-49 0 -90 17.5t-71 48.5t-47 73t-17 90q0 55 20.5 104.5t56 87t84 60t105.5 22.5q29 0 58.5 -7.5t55.5 -22t46.5 -36t32.5 -49.5l15 104h59l-72 -481h-59zM107 222q0 -37 13 -69.5t36 -56.5t55.5 -38t70.5 -14q44 0 82 18
t66 48t44 69t16 81q0 37 -13.5 69.5t-37 56.5t-56 37.5t-71.5 13.5q-44 0 -81 -18t-65 -47.5t-43.5 -68.5t-15.5 -81zM238 583l14 91h59l-14 -91h-59zM398 583l14 91h59l-14 -91h-59z" />
    <glyph glyph-name="agrave" unicode="&#xe0;" horiz-adv-x="625" 
d="M448 0l13 84q-32 -46 -83 -70.5t-107 -24.5q-49 0 -90 17.5t-71 48.5t-47 73t-17 90q0 55 20.5 104.5t56 87t84 60t105.5 22.5q29 0 58.5 -7.5t55.5 -22t46.5 -36t32.5 -49.5l15 104h59l-72 -481h-59zM107 222q0 -37 13 -69.5t36 -56.5t55.5 -38t70.5 -14q44 0 82 18
t66 48t44 69t16 81q0 37 -13.5 69.5t-37 56.5t-56 37.5t-71.5 13.5q-44 0 -81 -18t-65 -47.5t-43.5 -68.5t-15.5 -81zM349 578l-84 137h69l71 -137h-56z" />
    <glyph glyph-name="amacron" unicode="&#x101;" horiz-adv-x="625" 
d="M448 0l13 84q-32 -46 -83 -70.5t-107 -24.5q-49 0 -90 17.5t-71 48.5t-47 73t-17 90q0 55 20.5 104.5t56 87t84 60t105.5 22.5q29 0 58.5 -7.5t55.5 -22t46.5 -36t32.5 -49.5l15 104h59l-72 -481h-59zM107 222q0 -37 13 -69.5t36 -56.5t55.5 -38t70.5 -14q44 0 82 18
t66 48t44 69t16 81q0 37 -13.5 69.5t-37 56.5t-56 37.5t-71.5 13.5q-44 0 -81 -18t-65 -47.5t-43.5 -68.5t-15.5 -81zM228 607l6 43h250l-6 -43h-250z" />
    <glyph glyph-name="aogonek" unicode="&#x105;" horiz-adv-x="625" 
d="M507 0q-62 -23 -99 -53t-37 -62q0 -23 13.5 -33t35.5 -10q15 0 30.5 3.5t28.5 14.5l-7 -47q-14 -7 -31 -11t-35 -4q-40 0 -63 20.5t-23 55.5q0 44 36 77t93 56l12 77q-32 -46 -83 -70.5t-107 -24.5q-49 0 -90 17.5t-71 48.5t-47 73t-17 90q0 55 20.5 104.5t56 87t84 60
t105.5 22.5q29 0 58.5 -7.5t55.5 -22t46.5 -36t32.5 -49.5l15 104h59zM107 222q0 -37 13 -69.5t36 -56.5t55.5 -38t70.5 -14q44 0 82 18t66 48t44 69t16 81q0 37 -13.5 69.5t-37 56.5t-56 37.5t-71.5 13.5q-44 0 -81 -18t-65 -47.5t-43.5 -68.5t-15.5 -81z" />
    <glyph glyph-name="atilde" unicode="&#xe3;" horiz-adv-x="625" 
d="M448 0l13 84q-32 -46 -83 -70.5t-107 -24.5q-49 0 -90 17.5t-71 48.5t-47 73t-17 90q0 55 20.5 104.5t56 87t84 60t105.5 22.5q29 0 58.5 -7.5t55.5 -22t46.5 -36t32.5 -49.5l15 104h59l-72 -481h-59zM107 222q0 -37 13 -69.5t36 -56.5t55.5 -38t70.5 -14q44 0 82 18
t66 48t44 69t16 81q0 37 -13.5 69.5t-37 56.5t-56 37.5t-71.5 13.5q-44 0 -81 -18t-65 -47.5t-43.5 -68.5t-15.5 -81zM210 591q4 48 29 70.5t60 22.5q25 0 41.5 -8.5t29.5 -18.5t25.5 -18.5t29.5 -8.5q20 0 32 14t14 37h44q-3 -48 -28.5 -70.5t-60.5 -22.5q-25 0 -41.5 8.5
t-30 18.5t-26 18.5t-28.5 8.5q-21 0 -32.5 -14t-13.5 -37h-44z" />
    <glyph glyph-name="cacute" unicode="&#x107;" horiz-adv-x="485" 
d="M46 221q0 55 21 104.5t57 86.5t84.5 58.5t104.5 21.5q42 0 82.5 -13t71.5 -38l-9 -61q-31 26 -67.5 41t-77.5 15q-43 0 -80.5 -17t-65.5 -46t-44 -67.5t-16 -81.5q0 -38 13 -70.5t36.5 -56.5t55 -38t69.5 -14q35 0 70 13t65 33l-10 -65q-59 -37 -127 -37
q-49 0 -91.5 17.5t-74 48t-49.5 73t-18 93.5zM298 578l112 137h73l-123 -137h-62z" />
    <glyph glyph-name="ccaron" unicode="&#x10d;" horiz-adv-x="485" 
d="M46 221q0 55 21 104.5t57 86.5t84.5 58.5t104.5 21.5q42 0 82.5 -13t71.5 -38l-9 -61q-31 26 -67.5 41t-77.5 15q-43 0 -80.5 -17t-65.5 -46t-44 -67.5t-16 -81.5q0 -38 13 -70.5t36.5 -56.5t55 -38t69.5 -14q35 0 70 13t65 33l-10 -65q-59 -37 -127 -37
q-49 0 -91.5 17.5t-74 48t-49.5 73t-18 93.5zM503 715l-131 -137h-48l-90 137h61l59 -89l85 89h64z" />
    <glyph glyph-name="ccedilla" unicode="&#xe7;" horiz-adv-x="485" 
d="M246 -55q34 -1 55 -22t21 -53q0 -38 -27 -62t-66 -24q-35 0 -58.5 21t-26.5 52h46q2 -13 13 -23.5t29 -10.5q20 0 33 13t13 32q0 17 -11.5 28.5t-29.5 11.5q-20 0 -37 -17l-38 29l57 76q-38 9 -69.5 29t-54.5 49.5t-36 66.5t-13 80q0 55 21 104.5t57 86.5t84.5 58.5
t104.5 21.5q42 0 82.5 -13t71.5 -38l-9 -61q-31 26 -67.5 41t-77.5 15q-43 0 -80.5 -17t-65.5 -46t-44 -67.5t-16 -81.5q0 -38 13 -70.5t36.5 -56.5t55 -38t69.5 -14q35 0 70 13t65 33l-10 -65q-59 -37 -127 -37h-18l-37 -48q9 4 22 4z" />
    <glyph glyph-name="ccircumflex" unicode="&#x109;" horiz-adv-x="485" 
d="M46 221q0 55 21 104.5t57 86.5t84.5 58.5t104.5 21.5q42 0 82.5 -13t71.5 -38l-9 -61q-31 26 -67.5 41t-77.5 15q-43 0 -80.5 -17t-65.5 -46t-44 -67.5t-16 -81.5q0 -38 13 -70.5t36.5 -56.5t55 -38t69.5 -14q35 0 70 13t65 33l-10 -65q-59 -37 -127 -37
q-49 0 -91.5 17.5t-74 48t-49.5 73t-18 93.5zM209 578l131 137h48l90 -137h-61l-59 89l-85 -89h-64z" />
    <glyph glyph-name="cdotaccent" unicode="&#x10b;" horiz-adv-x="485" 
d="M46 221q0 55 21 104.5t57 86.5t84.5 58.5t104.5 21.5q42 0 82.5 -13t71.5 -38l-9 -61q-31 26 -67.5 41t-77.5 15q-43 0 -80.5 -17t-65.5 -46t-44 -67.5t-16 -81.5q0 -38 13 -70.5t36.5 -56.5t55 -38t69.5 -14q35 0 70 13t65 33l-10 -65q-59 -37 -127 -37
q-49 0 -91.5 17.5t-74 48t-49.5 73t-18 93.5zM316 628q0 17 13 30t30 13t29 -12t12 -29t-13 -30t-31 -13q-17 0 -28.5 12t-11.5 29z" />
    <glyph glyph-name="cdotaccent.square" horiz-adv-x="485" 
d="M46 221q0 55 21 104.5t57 86.5t84.5 58.5t104.5 21.5q42 0 82.5 -13t71.5 -38l-9 -61q-31 26 -67.5 41t-77.5 15q-43 0 -80.5 -17t-65.5 -46t-44 -67.5t-16 -81.5q0 -38 13 -70.5t36.5 -56.5t55 -38t69.5 -14q35 0 70 13t65 33l-10 -65q-59 -37 -127 -37
q-49 0 -91.5 17.5t-74 48t-49.5 73t-18 93.5zM319 581l14 95h60l-14 -95h-60z" />
    <glyph glyph-name="dcaron" unicode="&#x10f;" horiz-adv-x="625" 
d="M448 0l13 84q-32 -46 -83 -70.5t-107 -24.5q-49 0 -90 17.5t-71 48.5t-47 73t-17 90q0 55 20.5 104.5t56 87t84 60t105.5 22.5q29 0 58.5 -7.5t55.5 -22t46.5 -36t32.5 -49.5l48 323h59l-105 -700h-59zM107 222q0 -37 13 -69.5t36 -56.5t55.5 -38t70.5 -14q44 0 82 18
t66 48t44 69t16 81q0 37 -13.5 69.5t-37 56.5t-56 37.5t-71.5 13.5q-44 0 -81 -18t-65 -47.5t-43.5 -68.5t-15.5 -81zM637 550l50 161h63l-60 -161h-53z" />
    <glyph glyph-name="dcroat" unicode="&#x111;" horiz-adv-x="635" 
d="M540 613l13 87h59l-13 -87h76l-7 -47h-76l-85 -566h-59l13 84q-32 -46 -83 -70.5t-107 -24.5q-49 0 -90 17.5t-71 48.5t-47 73t-17 90q0 55 20.5 104.5t56 87t84 60t105.5 22.5q29 0 58.5 -7.5t55.5 -22t46.5 -36t32.5 -49.5l28 189h-222l7 47h222zM107 222
q0 -37 13 -69.5t36 -56.5t55.5 -38t70.5 -14q44 0 82 18t66 48t44 69t16 81q0 37 -13.5 69.5t-37 56.5t-56 37.5t-71.5 13.5q-44 0 -81 -18t-65 -47.5t-43.5 -68.5t-15.5 -81z" />
    <glyph glyph-name="eth" unicode="&#xf0;" horiz-adv-x="592" 
d="M530 648l-125 -40q27 -40 52.5 -82.5t45 -85.5t31.5 -86.5t12 -85.5q0 -58 -19.5 -108.5t-55 -88.5t-85 -60t-108.5 -22q-50 0 -92 17t-73.5 47.5t-49 73t-17.5 92.5q0 51 19.5 98t54 82.5t81 57t100.5 21.5q43 0 85.5 -15t68.5 -50q-21 47 -47 91t-55 87l-157 -50
l-20 40l151 48q-17 23 -33 46.5t-32 46.5h65q12 -18 25.5 -37t27.5 -39l128 41zM282 44q42 0 79 17t64.5 46t43.5 67t16 80q0 38 -13.5 69.5t-37.5 54.5t-56.5 35.5t-69.5 12.5q-42 0 -79 -16.5t-64 -45t-42.5 -65.5t-15.5 -77q0 -38 13 -70.5t36.5 -56.5t55.5 -37.5
t70 -13.5z" />
    <glyph glyph-name="eacute" unicode="&#xe9;" horiz-adv-x="558" 
d="M277 44q56 0 94 26.5t67 68.5l48 -26q-34 -55 -89.5 -89.5t-124.5 -34.5q-49 0 -90.5 16.5t-71.5 46.5t-47 72t-17 93q0 55 19 104.5t53 87.5t81.5 60.5t104.5 22.5q48 0 87.5 -17t68 -46.5t44.5 -70.5t16 -89q0 -11 -1.5 -23.5t-4.5 -22.5h-409v-4q0 -40 13.5 -72
t37 -55t54.5 -35.5t67 -12.5zM300 439q-31 0 -61 -11t-55.5 -32.5t-44.5 -52t-27 -69.5h349v7q-1 34 -13.5 63t-33.5 50t-50.5 33t-63.5 12zM295 578l112 137h73l-123 -137h-62z" />
    <glyph glyph-name="ebreve" unicode="&#x115;" horiz-adv-x="558" 
d="M277 44q56 0 94 26.5t67 68.5l48 -26q-34 -55 -89.5 -89.5t-124.5 -34.5q-49 0 -90.5 16.5t-71.5 46.5t-47 72t-17 93q0 55 19 104.5t53 87.5t81.5 60.5t104.5 22.5q48 0 87.5 -17t68 -46.5t44.5 -70.5t16 -89q0 -11 -1.5 -23.5t-4.5 -22.5h-409v-4q0 -40 13.5 -72
t37 -55t54.5 -35.5t67 -12.5zM300 439q-31 0 -61 -11t-55.5 -32.5t-44.5 -52t-27 -69.5h349v7q-1 34 -13.5 63t-33.5 50t-50.5 33t-63.5 12zM345 623q33 0 56.5 23t28.5 63h48q-2 -30 -13 -54t-29 -41t-42 -26t-51 -9q-28 0 -51 10t-38.5 27.5t-23 41t-5.5 51.5h49
q-2 -38 18 -62t53 -24z" />
    <glyph glyph-name="ecaron" unicode="&#x11b;" horiz-adv-x="558" 
d="M277 44q56 0 94 26.5t67 68.5l48 -26q-34 -55 -89.5 -89.5t-124.5 -34.5q-49 0 -90.5 16.5t-71.5 46.5t-47 72t-17 93q0 55 19 104.5t53 87.5t81.5 60.5t104.5 22.5q48 0 87.5 -17t68 -46.5t44.5 -70.5t16 -89q0 -11 -1.5 -23.5t-4.5 -22.5h-409v-4q0 -40 13.5 -72
t37 -55t54.5 -35.5t67 -12.5zM300 439q-31 0 -61 -11t-55.5 -32.5t-44.5 -52t-27 -69.5h349v7q-1 34 -13.5 63t-33.5 50t-50.5 33t-63.5 12zM486 715l-131 -137h-48l-90 137h61l59 -89l85 89h64z" />
    <glyph glyph-name="ecircumflex" unicode="&#xea;" horiz-adv-x="558" 
d="M277 44q56 0 94 26.5t67 68.5l48 -26q-34 -55 -89.5 -89.5t-124.5 -34.5q-49 0 -90.5 16.5t-71.5 46.5t-47 72t-17 93q0 55 19 104.5t53 87.5t81.5 60.5t104.5 22.5q48 0 87.5 -17t68 -46.5t44.5 -70.5t16 -89q0 -11 -1.5 -23.5t-4.5 -22.5h-409v-4q0 -40 13.5 -72
t37 -55t54.5 -35.5t67 -12.5zM300 439q-31 0 -61 -11t-55.5 -32.5t-44.5 -52t-27 -69.5h349v7q-1 34 -13.5 63t-33.5 50t-50.5 33t-63.5 12zM196 578l131 137h48l90 -137h-61l-59 89l-85 -89h-64z" />
    <glyph glyph-name="edieresis" unicode="&#xeb;" horiz-adv-x="558" 
d="M277 44q56 0 94 26.5t67 68.5l48 -26q-34 -55 -89.5 -89.5t-124.5 -34.5q-49 0 -90.5 16.5t-71.5 46.5t-47 72t-17 93q0 55 19 104.5t53 87.5t81.5 60.5t104.5 22.5q48 0 87.5 -17t68 -46.5t44.5 -70.5t16 -89q0 -11 -1.5 -23.5t-4.5 -22.5h-409v-4q0 -40 13.5 -72
t37 -55t54.5 -35.5t67 -12.5zM300 439q-31 0 -61 -11t-55.5 -32.5t-44.5 -52t-27 -69.5h349v7q-1 34 -13.5 63t-33.5 50t-50.5 33t-63.5 12zM462 629q0 -17 -12 -29t-29 -12t-28 11t-11 28t12 29t29 12t28 -11t11 -28zM295 629q0 -17 -12 -29t-29 -12t-28 11t-11 28t12 29
t29 12t28 -11t11 -28z" />
    <glyph glyph-name="edieresis.square" horiz-adv-x="558" 
d="M277 44q56 0 94 26.5t67 68.5l48 -26q-34 -55 -89.5 -89.5t-124.5 -34.5q-49 0 -90.5 16.5t-71.5 46.5t-47 72t-17 93q0 55 19 104.5t53 87.5t81.5 60.5t104.5 22.5q48 0 87.5 -17t68 -46.5t44.5 -70.5t16 -89q0 -11 -1.5 -23.5t-4.5 -22.5h-409v-4q0 -40 13.5 -72
t37 -55t54.5 -35.5t67 -12.5zM300 439q-31 0 -61 -11t-55.5 -32.5t-44.5 -52t-27 -69.5h349v7q-1 34 -13.5 63t-33.5 50t-50.5 33t-63.5 12zM222 583l14 91h59l-14 -91h-59zM382 583l14 91h59l-14 -91h-59z" />
    <glyph glyph-name="edotaccent" unicode="&#x117;" horiz-adv-x="558" 
d="M277 44q56 0 94 26.5t67 68.5l48 -26q-34 -55 -89.5 -89.5t-124.5 -34.5q-49 0 -90.5 16.5t-71.5 46.5t-47 72t-17 93q0 55 19 104.5t53 87.5t81.5 60.5t104.5 22.5q48 0 87.5 -17t68 -46.5t44.5 -70.5t16 -89q0 -11 -1.5 -23.5t-4.5 -22.5h-409v-4q0 -40 13.5 -72
t37 -55t54.5 -35.5t67 -12.5zM300 439q-31 0 -61 -11t-55.5 -32.5t-44.5 -52t-27 -69.5h349v7q-1 34 -13.5 63t-33.5 50t-50.5 33t-63.5 12zM298 628q0 17 13 30t30 13t29 -12t12 -29t-13 -30t-31 -13q-17 0 -28.5 12t-11.5 29z" />
    <glyph glyph-name="edotaccent.square" horiz-adv-x="558" 
d="M277 44q56 0 94 26.5t67 68.5l48 -26q-34 -55 -89.5 -89.5t-124.5 -34.5q-49 0 -90.5 16.5t-71.5 46.5t-47 72t-17 93q0 55 19 104.5t53 87.5t81.5 60.5t104.5 22.5q48 0 87.5 -17t68 -46.5t44.5 -70.5t16 -89q0 -11 -1.5 -23.5t-4.5 -22.5h-409v-4q0 -40 13.5 -72
t37 -55t54.5 -35.5t67 -12.5zM300 439q-31 0 -61 -11t-55.5 -32.5t-44.5 -52t-27 -69.5h349v7q-1 34 -13.5 63t-33.5 50t-50.5 33t-63.5 12zM300 581l14 95h60l-14 -95h-60z" />
    <glyph glyph-name="egrave" unicode="&#xe8;" horiz-adv-x="558" 
d="M277 44q56 0 94 26.5t67 68.5l48 -26q-34 -55 -89.5 -89.5t-124.5 -34.5q-49 0 -90.5 16.5t-71.5 46.5t-47 72t-17 93q0 55 19 104.5t53 87.5t81.5 60.5t104.5 22.5q48 0 87.5 -17t68 -46.5t44.5 -70.5t16 -89q0 -11 -1.5 -23.5t-4.5 -22.5h-409v-4q0 -40 13.5 -72
t37 -55t54.5 -35.5t67 -12.5zM300 439q-31 0 -61 -11t-55.5 -32.5t-44.5 -52t-27 -69.5h349v7q-1 34 -13.5 63t-33.5 50t-50.5 33t-63.5 12zM318 578l-84 137h69l71 -137h-56z" />
    <glyph glyph-name="emacron" unicode="&#x113;" horiz-adv-x="558" 
d="M277 44q56 0 94 26.5t67 68.5l48 -26q-34 -55 -89.5 -89.5t-124.5 -34.5q-49 0 -90.5 16.5t-71.5 46.5t-47 72t-17 93q0 55 19 104.5t53 87.5t81.5 60.5t104.5 22.5q48 0 87.5 -17t68 -46.5t44.5 -70.5t16 -89q0 -11 -1.5 -23.5t-4.5 -22.5h-409v-4q0 -40 13.5 -72
t37 -55t54.5 -35.5t67 -12.5zM300 439q-31 0 -61 -11t-55.5 -32.5t-44.5 -52t-27 -69.5h349v7q-1 34 -13.5 63t-33.5 50t-50.5 33t-63.5 12zM208 605l6 43h250l-6 -43h-250z" />
    <glyph glyph-name="eogonek" unicode="&#x119;" horiz-adv-x="558" 
d="M272 -11q-49 0 -90.5 16.5t-71.5 46.5t-47 72t-17 93q0 55 19 104.5t53 87.5t81.5 60.5t104.5 22.5q48 0 87.5 -17t68 -46.5t44.5 -70.5t16 -89q0 -11 -1.5 -23.5t-4.5 -22.5h-409v-4q0 -40 13.5 -72t37 -55t54.5 -35.5t67 -12.5q56 0 94 26.5t67 68.5l48 -26
q-20 -33 -47.5 -58t-57.5 -43q-20 -12 -39 -26.5t-34 -30.5t-24.5 -32.5t-9.5 -34.5q0 -23 14 -34.5t37 -11.5q15 0 30 4t29 13l-7 -44q-29 -17 -68 -17q-41 0 -63.5 21.5t-22.5 57.5q0 32 20 61.5t52 51.5q-8 -1 -13 -1h-10zM300 439q-31 0 -61 -11t-55.5 -32.5t-44.5 -52
t-27 -69.5h349v7q-1 34 -13.5 63t-33.5 50t-50.5 33t-63.5 12z" />
    <glyph glyph-name="gbreve" unicode="&#x11f;" horiz-adv-x="619" 
d="M357 623q33 0 56.5 23t28.5 63h48q-2 -30 -13 -54t-29 -41t-42 -26t-51 -9q-28 0 -51 10t-38.5 27.5t-23 41t-5.5 51.5h49q-2 -38 18 -62t53 -24zM504 18q-8 -52 -28.5 -95.5t-53.5 -75t-78 -49t-102 -17.5q-75 0 -134 34.5t-85 102.5l51 29q20 -53 64 -81.5t106 -28.5
q45 0 80 14.5t60.5 40t41 60.5t21.5 76l9 63q-31 -44 -82 -68t-106 -24q-48 0 -89 17.5t-70.5 47.5t-46 71t-16.5 88q0 54 20 102.5t55 85.5t83.5 59t104.5 22q29 0 57.5 -7.5t54 -21.5t46 -35.5t32.5 -48.5l15 102h59zM107 227q0 -36 12.5 -67.5t35.5 -55t54.5 -37
t69.5 -13.5q43 0 80.5 17.5t65 46.5t43.5 67t16 80q0 36 -13 67.5t-36.5 55t-55.5 36.5t-70 13q-43 0 -80 -17.5t-64 -46.5t-42.5 -67t-15.5 -79z" />
    <glyph glyph-name="gcircumflex" unicode="&#x11d;" horiz-adv-x="619" 
d="M211 578l131 137h48l90 -137h-61l-59 89l-85 -89h-64zM504 18q-8 -52 -28.5 -95.5t-53.5 -75t-78 -49t-102 -17.5q-75 0 -134 34.5t-85 102.5l51 29q20 -53 64 -81.5t106 -28.5q45 0 80 14.5t60.5 40t41 60.5t21.5 76l9 63q-31 -44 -82 -68t-106 -24q-48 0 -89 17.5
t-70.5 47.5t-46 71t-16.5 88q0 54 20 102.5t55 85.5t83.5 59t104.5 22q29 0 57.5 -7.5t54 -21.5t46 -35.5t32.5 -48.5l15 102h59zM107 227q0 -36 12.5 -67.5t35.5 -55t54.5 -37t69.5 -13.5q43 0 80.5 17.5t65 46.5t43.5 67t16 80q0 36 -13 67.5t-36.5 55t-55.5 36.5t-70 13
q-43 0 -80 -17.5t-64 -46.5t-42.5 -67t-15.5 -79z" />
    <glyph glyph-name="gcommaaccent" unicode="&#x123;" horiz-adv-x="619" 
d="M504 18q-8 -52 -28.5 -95.5t-53.5 -75t-78 -49t-102 -17.5q-75 0 -134 34.5t-85 102.5l51 29q20 -53 64 -81.5t106 -28.5q45 0 80 14.5t60.5 40t41 60.5t21.5 76l9 63q-31 -44 -82 -68t-106 -24q-48 0 -89 17.5t-70.5 47.5t-46 71t-16.5 88q0 54 20 102.5t55 85.5
t83.5 59t104.5 22q29 0 57.5 -7.5t54 -21.5t46 -35.5t32.5 -48.5l15 102h59zM107 227q0 -36 12.5 -67.5t35.5 -55t54.5 -37t69.5 -13.5q43 0 80.5 17.5t65 46.5t43.5 67t16 80q0 36 -13 67.5t-36.5 55t-55.5 36.5t-70 13q-43 0 -80 -17.5t-64 -46.5t-42.5 -67t-15.5 -79z
M397 719l-42 -78q14 -1 23.5 -10.5t9.5 -24.5q0 -17 -13 -29t-32 -12q-17 0 -28.5 11t-11.5 28q0 10 3.5 18.5t9.5 19.5l41 77h40z" />
    <glyph glyph-name="gcommaaccent.square" horiz-adv-x="619" 
d="M504 18q-8 -52 -28.5 -95.5t-53.5 -75t-78 -49t-102 -17.5q-75 0 -134 34.5t-85 102.5l51 29q20 -53 64 -81.5t106 -28.5q45 0 80 14.5t60.5 40t41 60.5t21.5 76l9 63q-31 -44 -82 -68t-106 -24q-48 0 -89 17.5t-70.5 47.5t-46 71t-16.5 88q0 54 20 102.5t55 85.5
t83.5 59t104.5 22q29 0 57.5 -7.5t54 -21.5t46 -35.5t32.5 -48.5l15 102h59zM107 227q0 -36 12.5 -67.5t35.5 -55t54.5 -37t69.5 -13.5q43 0 80.5 17.5t65 46.5t43.5 67t16 80q0 36 -13 67.5t-36.5 55t-55.5 36.5t-70 13q-43 0 -80 -17.5t-64 -46.5t-42.5 -67t-15.5 -79z
M369 568h-61l13 90q5 37 23.5 58t50.5 23l-5 -35q-12 -2 -21 -13t-12 -31l-1 -7h26z" />
    <glyph glyph-name="gdotaccent" unicode="&#x121;" horiz-adv-x="619" 
d="M504 18q-8 -52 -28.5 -95.5t-53.5 -75t-78 -49t-102 -17.5q-75 0 -134 34.5t-85 102.5l51 29q20 -53 64 -81.5t106 -28.5q45 0 80 14.5t60.5 40t41 60.5t21.5 76l9 63q-31 -44 -82 -68t-106 -24q-48 0 -89 17.5t-70.5 47.5t-46 71t-16.5 88q0 54 20 102.5t55 85.5
t83.5 59t104.5 22q29 0 57.5 -7.5t54 -21.5t46 -35.5t32.5 -48.5l15 102h59zM107 227q0 -36 12.5 -67.5t35.5 -55t54.5 -37t69.5 -13.5q43 0 80.5 17.5t65 46.5t43.5 67t16 80q0 36 -13 67.5t-36.5 55t-55.5 36.5t-70 13q-43 0 -80 -17.5t-64 -46.5t-42.5 -67t-15.5 -79z
M313 628q0 17 13 30t30 13t29 -12t12 -29t-13 -30t-31 -13q-17 0 -28.5 12t-11.5 29z" />
    <glyph glyph-name="gdotaccent.square" horiz-adv-x="619" 
d="M504 18q-8 -52 -28.5 -95.5t-53.5 -75t-78 -49t-102 -17.5q-75 0 -134 34.5t-85 102.5l51 29q20 -53 64 -81.5t106 -28.5q45 0 80 14.5t60.5 40t41 60.5t21.5 76l9 63q-31 -44 -82 -68t-106 -24q-48 0 -89 17.5t-70.5 47.5t-46 71t-16.5 88q0 54 20 102.5t55 85.5
t83.5 59t104.5 22q29 0 57.5 -7.5t54 -21.5t46 -35.5t32.5 -48.5l15 102h59zM107 227q0 -36 12.5 -67.5t35.5 -55t54.5 -37t69.5 -13.5q43 0 80.5 17.5t65 46.5t43.5 67t16 80q0 36 -13 67.5t-36.5 55t-55.5 36.5t-70 13q-43 0 -80 -17.5t-64 -46.5t-42.5 -67t-15.5 -79z
M315 581l14 95h60l-14 -95h-60z" />
    <glyph glyph-name="hbar" unicode="&#x127;" horiz-adv-x="595" 
d="M116 0h-60l85 566h-75l7 47h75l13 87h60l-13 -87h222l-7 -47h-222l-25 -167q26 38 71.5 65.5t104.5 27.5q47 0 83 -15.5t58.5 -43.5t31 -67.5t1.5 -87.5l-42 -278h-60l41 274q11 77 -22.5 120t-105.5 43q-35 0 -65.5 -14t-54.5 -38.5t-40 -57.5t-22 -70z" />
    <glyph glyph-name="hcircumflex" unicode="&#x125;" horiz-adv-x="585" 
d="M106 0h-60l105 700h60l-45 -301q26 38 71.5 65.5t104.5 27.5q47 0 83 -15.5t58.5 -43.5t31 -67.5t1.5 -87.5l-42 -278h-60l41 274q11 77 -22.5 120t-105.5 43q-35 0 -65.5 -14t-54.5 -38.5t-40 -57.5t-22 -70zM56 756l131 137h48l90 -137h-61l-59 89l-85 -89h-64z" />
    <glyph glyph-name="iacute" unicode="&#xed;" horiz-adv-x="224" 
d="M179 481l-73 -481h-60l72 481h61zM129 578l112 137h73l-123 -137h-62z" />
    <glyph glyph-name="ibreve" unicode="&#x12d;" horiz-adv-x="224" 
d="M179 481l-73 -481h-60l72 481h61zM171 623q33 0 56.5 23t28.5 63h48q-2 -30 -13 -54t-29 -41t-42 -26t-51 -9q-28 0 -51 10t-38.5 27.5t-23 41t-5.5 51.5h49q-2 -38 18 -62t53 -24z" />
    <glyph glyph-name="icircumflex" unicode="&#xee;" horiz-adv-x="224" 
d="M179 481l-73 -481h-60l72 481h61zM26 578l131 137h48l90 -137h-61l-59 89l-85 -89h-64z" />
    <glyph glyph-name="idieresis" unicode="&#xef;" horiz-adv-x="224" 
d="M179 481l-73 -481h-60l72 481h61zM290 629q0 -17 -12 -29t-29 -12t-28 11t-11 28t12 29t29 12t28 -11t11 -28zM123 629q0 -17 -12 -29t-29 -12t-28 11t-11 28t12 29t29 12t28 -11t11 -28z" />
    <glyph glyph-name="idieresis.square" horiz-adv-x="224" 
d="M179 481l-73 -481h-60l72 481h61zM51 583l14 91h59l-14 -91h-59zM211 583l14 91h59l-14 -91h-59z" />
    <glyph glyph-name="idotaccent" horiz-adv-x="224" 
d="M178 481l-72 -481h-60l72 481h60zM211 630q0 -18 -13.5 -30.5t-30.5 -12.5t-29.5 12t-12.5 29q0 18 13.5 31t30.5 13t29.5 -12.5t12.5 -29.5z" />
    <glyph glyph-name="idotaccent.square" horiz-adv-x="224" 
d="M133 581l14 95h60l-14 -95h-60zM178 481l-72 -481h-60l72 481h60z" />
    <glyph glyph-name="igrave" unicode="&#xec;" horiz-adv-x="224" 
d="M179 481l-73 -481h-60l72 481h61zM134 578l-84 137h69l71 -137h-56z" />
    <glyph glyph-name="imacron" unicode="&#x12b;" horiz-adv-x="224" 
d="M179 481l-73 -481h-60l72 481h61zM39 605l6 43h250l-6 -43h-250z" />
    <glyph glyph-name="iogonek" unicode="&#x12f;" horiz-adv-x="224" 
d="M178 481l-72 -481q-53 -23 -85 -53t-32 -62q0 -23 13.5 -33t35.5 -10q15 0 30.5 3.5t28.5 14.5l-7 -46q-30 -16 -66 -16q-40 0 -63 20.5t-23 55.5q0 44 30.5 76.5t78.5 55.5l71 475h60zM211 630q0 -18 -13.5 -30.5t-30.5 -12.5t-29.5 12t-12.5 29q0 18 13.5 31t30.5 13
t29.5 -12.5t12.5 -29.5z" />
    <glyph glyph-name="iogonek.square" horiz-adv-x="224" 
d="M178 481l-72 -481q-53 -23 -85 -53t-32 -62q0 -23 13.5 -33t35.5 -10q15 0 30.5 3.5t28.5 14.5l-7 -46q-30 -16 -66 -16q-40 0 -63 20.5t-23 55.5q0 44 30.5 76.5t78.5 55.5l71 475h60zM133 581l14 95h60l-14 -95h-60z" />
    <glyph glyph-name="itilde" unicode="&#x129;" horiz-adv-x="224" 
d="M179 481l-73 -481h-60l72 481h61zM12 591q4 48 29 70.5t60 22.5q25 0 41.5 -8.5t29.5 -18.5t25.5 -18.5t29.5 -8.5q20 0 32 14t14 37h44q-3 -48 -28.5 -70.5t-60.5 -22.5q-25 0 -41.5 8.5t-30 18.5t-26 18.5t-28.5 8.5q-21 0 -32.5 -14t-13.5 -37h-44z" />
    <glyph glyph-name="dotlessi" unicode="&#x131;" horiz-adv-x="224" 
d="M179 481l-73 -481h-60l72 481h61z" />
    <glyph glyph-name="jcircumflex" unicode="&#x135;" horiz-adv-x="230" 
d="M102 -64q-11 -78 -50 -116.5t-98 -38.5q-20 0 -34 3.5t-28 10.5l8 54q8 -5 21 -8.5t27 -3.5q37 0 62 26t33 77l81 541h60zM32 578l131 137h48l90 -137h-61l-59 89l-85 -89h-64z" />
    <glyph glyph-name="dotlessj" unicode="&#x237;" horiz-adv-x="230" 
d="M102 -64q-11 -78 -50 -116.5t-98 -38.5q-20 0 -34 3.5t-28 10.5l8 54q8 -5 21 -8.5t27 -3.5q37 0 62 26t33 77l81 541h60z" />
    <glyph glyph-name="kcommaaccent" unicode="&#x137;" horiz-adv-x="489" 
d="M147 274l258 207h81l-254 -205l205 -276h-73l-178 240l-50 -41l-30 -199h-60l105 700h60zM159 -209l42 78q-14 1 -23.5 10.5t-9.5 24.5q0 17 13 29t32 12q17 0 28.5 -11t11.5 -28q0 -10 -3.5 -18.5t-9.5 -19.5l-41 -77h-40z" />
    <glyph glyph-name="kcommaaccent.square" horiz-adv-x="489" 
d="M147 274l258 207h81l-254 -205l205 -276h-73l-178 240l-50 -41l-30 -199h-60l105 700h60zM190 -58h60l-13 -90q-5 -37 -23 -58t-51 -23l5 35q13 2 21.5 12.5t11.5 31.5l1 7h-25z" />
    <glyph glyph-name="kgreenlandic" unicode="&#x138;" horiz-adv-x="489" 
d="M178 481l-31 -207l258 207h81l-254 -205l205 -276h-73l-178 240l-50 -41l-30 -199h-60l72 481h60z" />
    <glyph glyph-name="lacute" unicode="&#x13a;" horiz-adv-x="224" 
d="M211 700l-105 -700h-60l105 700h60zM152 756l112 137h73l-123 -137h-62z" />
    <glyph glyph-name="lcaron" unicode="&#x13e;" horiz-adv-x="224" 
d="M211 700l-105 -700h-60l105 700h60zM236 550l50 161h63l-60 -161h-53z" />
    <glyph glyph-name="lcommaaccent" unicode="&#x13c;" horiz-adv-x="224" 
d="M211 700l-105 -700h-60l105 700h60zM12 -209l42 78q-14 1 -23.5 10.5t-9.5 24.5q0 17 13 29t32 12q17 0 28.5 -11t11.5 -28q0 -10 -3.5 -18.5t-9.5 -19.5l-41 -77h-40z" />
    <glyph glyph-name="lcommaaccent.square" horiz-adv-x="224" 
d="M211 700l-105 -700h-60l105 700h60zM38 -58h60l-13 -90q-5 -37 -23 -58t-51 -23l5 35q13 2 21.5 12.5t11.5 31.5l1 7h-25z" />
    <glyph glyph-name="ldot" unicode="&#x140;" horiz-adv-x="284" 
d="M211 700l-105 -700h-60l105 700h60zM226 331q0 17 13 30t30 13t29 -12t12 -29t-13 -30t-31 -13q-17 0 -28.5 12t-11.5 29z" />
    <glyph glyph-name="ldot.square" horiz-adv-x="284" 
d="M211 700l-105 -700h-60l105 700h60zM230 284l14 95h60l-14 -95h-60z" />
    <glyph glyph-name="lslash" unicode="&#x142;" horiz-adv-x="271" 
d="M235 700l-42 -277l101 53l-8 -57l-101 -53l-55 -366h-60l49 331l-99 -52l8 57l100 52l47 312h60z" />
    <glyph glyph-name="nacute" unicode="&#x144;" horiz-adv-x="585" 
d="M106 0h-60l72 481h60l-12 -82q26 38 71.5 65.5t104.5 27.5q47 0 83 -15.5t58.5 -43.5t31 -67.5t1.5 -87.5l-42 -278h-60l41 274q11 77 -22 120t-104 43q-35 0 -66 -14t-55.5 -38.5t-40.5 -57.5t-22 -70zM307 578l112 137h73l-123 -137h-62z" />
    <glyph glyph-name="ncaron" unicode="&#x148;" horiz-adv-x="585" 
d="M106 0h-60l72 481h60l-12 -82q26 38 71.5 65.5t104.5 27.5q47 0 83 -15.5t58.5 -43.5t31 -67.5t1.5 -87.5l-42 -278h-60l41 274q11 77 -22 120t-104 43q-35 0 -66 -14t-55.5 -38.5t-40.5 -57.5t-22 -70zM501 715l-131 -137h-48l-90 137h61l59 -89l85 89h64z" />
    <glyph glyph-name="ncommaaccent" unicode="&#x146;" horiz-adv-x="585" 
d="M106 0h-60l72 481h60l-12 -82q26 38 71.5 65.5t104.5 27.5q47 0 83 -15.5t58.5 -43.5t31 -67.5t1.5 -87.5l-42 -278h-60l41 274q11 77 -22 120t-104 43q-35 0 -66 -14t-55.5 -38.5t-40.5 -57.5t-22 -70zM200 -209l42 78q-14 1 -23.5 10.5t-9.5 24.5q0 17 13 29t32 12
q17 0 28.5 -11t11.5 -28q0 -10 -3.5 -18.5t-9.5 -19.5l-41 -77h-40z" />
    <glyph glyph-name="ncommaaccent.square" horiz-adv-x="585" 
d="M106 0h-60l72 481h60l-12 -82q26 38 71.5 65.5t104.5 27.5q47 0 83 -15.5t58.5 -43.5t31 -67.5t1.5 -87.5l-42 -278h-60l41 274q11 77 -22 120t-104 43q-35 0 -66 -14t-55.5 -38.5t-40.5 -57.5t-22 -70zM231 -58h60l-13 -90q-5 -37 -23 -58t-51 -23l5 35q13 2 21.5 12.5
t11.5 31.5l1 7h-25z" />
    <glyph glyph-name="ntilde" unicode="&#xf1;" horiz-adv-x="585" 
d="M106 0h-60l72 481h60l-12 -82q26 38 71.5 65.5t104.5 27.5q47 0 83 -15.5t58.5 -43.5t31 -67.5t1.5 -87.5l-42 -278h-60l41 274q11 77 -22 120t-104 43q-35 0 -66 -14t-55.5 -38.5t-40.5 -57.5t-22 -70zM202 591q4 48 29 70.5t60 22.5q25 0 41.5 -8.5t29.5 -18.5
t25.5 -18.5t29.5 -8.5q20 0 32 14t14 37h44q-3 -48 -28.5 -70.5t-60.5 -22.5q-25 0 -41.5 8.5t-30 18.5t-26 18.5t-28.5 8.5q-21 0 -32.5 -14t-13.5 -37h-44z" />
    <glyph glyph-name="eng" unicode="&#x14b;" horiz-adv-x="585" 
d="M455 274q11 77 -22 120t-104 43q-35 0 -66 -14t-55.5 -38.5t-40.5 -57.5t-22 -70l-39 -257h-60l72 481h60l-12 -82q26 38 71.5 65.5t104.5 27.5q47 0 83 -15.5t58.5 -43.5t31 -67.5t1.5 -87.5l-52 -342q-12 -78 -50.5 -116.5t-97.5 -38.5q-20 0 -34 3.5t-28 10.5l8 54
q8 -5 21 -8.5t27 -3.5q37 0 61.5 26t32.5 77z" />
    <glyph glyph-name="oacute" unicode="&#xf3;" horiz-adv-x="594" 
d="M315 492q49 0 92 -17.5t74.5 -48.5t49.5 -73.5t18 -92.5q0 -55 -21 -104.5t-57.5 -86.5t-85.5 -58.5t-105 -21.5q-50 0 -92.5 17.5t-74 48.5t-49.5 73.5t-18 92.5q0 55 21 104.5t57.5 86.5t85.5 58.5t105 21.5zM313 437q-41 0 -78 -16.5t-65.5 -45.5t-45.5 -67.5
t-17 -83.5q0 -38 13 -71t36.5 -57t55 -38t69.5 -14q41 0 78.5 16.5t66 45.5t45.5 68.5t17 84.5q0 37 -13.5 69.5t-36.5 56.5t-55.5 38t-69.5 14zM309 578l112 137h73l-123 -137h-62z" />
    <glyph glyph-name="obreve" unicode="&#x14f;" horiz-adv-x="594" 
d="M315 492q49 0 92 -17.5t74.5 -48.5t49.5 -73.5t18 -92.5q0 -55 -21 -104.5t-57.5 -86.5t-85.5 -58.5t-105 -21.5q-50 0 -92.5 17.5t-74 48.5t-49.5 73.5t-18 92.5q0 55 21 104.5t57.5 86.5t85.5 58.5t105 21.5zM313 437q-41 0 -78 -16.5t-65.5 -45.5t-45.5 -67.5
t-17 -83.5q0 -38 13 -71t36.5 -57t55 -38t69.5 -14q41 0 78.5 16.5t66 45.5t45.5 68.5t17 84.5q0 37 -13.5 69.5t-36.5 56.5t-55.5 38t-69.5 14zM357 623q33 0 56.5 23t28.5 63h48q-2 -30 -13 -54t-29 -41t-42 -26t-51 -9q-28 0 -51 10t-38.5 27.5t-23 41t-5.5 51.5h49
q-2 -38 18 -62t53 -24z" />
    <glyph glyph-name="ocircumflex" unicode="&#xf4;" horiz-adv-x="594" 
d="M315 492q49 0 92 -17.5t74.5 -48.5t49.5 -73.5t18 -92.5q0 -55 -21 -104.5t-57.5 -86.5t-85.5 -58.5t-105 -21.5q-50 0 -92.5 17.5t-74 48.5t-49.5 73.5t-18 92.5q0 55 21 104.5t57.5 86.5t85.5 58.5t105 21.5zM313 437q-41 0 -78 -16.5t-65.5 -45.5t-45.5 -67.5
t-17 -83.5q0 -38 13 -71t36.5 -57t55 -38t69.5 -14q41 0 78.5 16.5t66 45.5t45.5 68.5t17 84.5q0 37 -13.5 69.5t-36.5 56.5t-55.5 38t-69.5 14zM212 578l131 137h48l90 -137h-61l-59 89l-85 -89h-64z" />
    <glyph glyph-name="odieresis" unicode="&#xf6;" horiz-adv-x="594" 
d="M315 492q49 0 92 -17.5t74.5 -48.5t49.5 -73.5t18 -92.5q0 -55 -21 -104.5t-57.5 -86.5t-85.5 -58.5t-105 -21.5q-50 0 -92.5 17.5t-74 48.5t-49.5 73.5t-18 92.5q0 55 21 104.5t57.5 86.5t85.5 58.5t105 21.5zM313 437q-41 0 -78 -16.5t-65.5 -45.5t-45.5 -67.5
t-17 -83.5q0 -38 13 -71t36.5 -57t55 -38t69.5 -14q41 0 78.5 16.5t66 45.5t45.5 68.5t17 84.5q0 37 -13.5 69.5t-36.5 56.5t-55.5 38t-69.5 14zM474 629q0 -17 -12 -29t-29 -12t-28 11t-11 28t12 29t29 12t28 -11t11 -28zM307 629q0 -17 -12 -29t-29 -12t-28 11t-11 28
t12 29t29 12t28 -11t11 -28z" />
    <glyph glyph-name="odieresis.square" horiz-adv-x="594" 
d="M315 492q49 0 92 -17.5t74.5 -48.5t49.5 -73.5t18 -92.5q0 -55 -21 -104.5t-57.5 -86.5t-85.5 -58.5t-105 -21.5q-50 0 -92.5 17.5t-74 48.5t-49.5 73.5t-18 92.5q0 55 21 104.5t57.5 86.5t85.5 58.5t105 21.5zM313 437q-41 0 -78 -16.5t-65.5 -45.5t-45.5 -67.5
t-17 -83.5q0 -38 13 -71t36.5 -57t55 -38t69.5 -14q41 0 78.5 16.5t66 45.5t45.5 68.5t17 84.5q0 37 -13.5 69.5t-36.5 56.5t-55.5 38t-69.5 14zM235 583l14 91h59l-14 -91h-59zM395 583l14 91h59l-14 -91h-59z" />
    <glyph glyph-name="ograve" unicode="&#xf2;" horiz-adv-x="594" 
d="M315 492q49 0 92 -17.5t74.5 -48.5t49.5 -73.5t18 -92.5q0 -55 -21 -104.5t-57.5 -86.5t-85.5 -58.5t-105 -21.5q-50 0 -92.5 17.5t-74 48.5t-49.5 73.5t-18 92.5q0 55 21 104.5t57.5 86.5t85.5 58.5t105 21.5zM313 437q-41 0 -78 -16.5t-65.5 -45.5t-45.5 -67.5
t-17 -83.5q0 -38 13 -71t36.5 -57t55 -38t69.5 -14q41 0 78.5 16.5t66 45.5t45.5 68.5t17 84.5q0 37 -13.5 69.5t-36.5 56.5t-55.5 38t-69.5 14zM326 578l-84 137h69l71 -137h-56z" />
    <glyph glyph-name="ohungarumlaut" unicode="&#x151;" horiz-adv-x="594" 
d="M315 492q49 0 92 -17.5t74.5 -48.5t49.5 -73.5t18 -92.5q0 -55 -21 -104.5t-57.5 -86.5t-85.5 -58.5t-105 -21.5q-50 0 -92.5 17.5t-74 48.5t-49.5 73.5t-18 92.5q0 55 21 104.5t57.5 86.5t85.5 58.5t105 21.5zM313 437q-41 0 -78 -16.5t-65.5 -45.5t-45.5 -67.5
t-17 -83.5q0 -38 13 -71t36.5 -57t55 -38t69.5 -14q41 0 78.5 16.5t66 45.5t45.5 68.5t17 84.5q0 37 -13.5 69.5t-36.5 56.5t-55.5 38t-69.5 14zM244 576l105 136h67l-116 -136h-56zM394 576l105 136h67l-116 -136h-56z" />
    <glyph glyph-name="omacron" unicode="&#x14d;" horiz-adv-x="594" 
d="M315 492q49 0 92 -17.5t74.5 -48.5t49.5 -73.5t18 -92.5q0 -55 -21 -104.5t-57.5 -86.5t-85.5 -58.5t-105 -21.5q-50 0 -92.5 17.5t-74 48.5t-49.5 73.5t-18 92.5q0 55 21 104.5t57.5 86.5t85.5 58.5t105 21.5zM313 437q-41 0 -78 -16.5t-65.5 -45.5t-45.5 -67.5
t-17 -83.5q0 -38 13 -71t36.5 -57t55 -38t69.5 -14q41 0 78.5 16.5t66 45.5t45.5 68.5t17 84.5q0 37 -13.5 69.5t-36.5 56.5t-55.5 38t-69.5 14zM225 605l6 43h250l-6 -43h-250z" />
    <glyph glyph-name="otilde" unicode="&#xf5;" horiz-adv-x="594" 
d="M315 492q49 0 92 -17.5t74.5 -48.5t49.5 -73.5t18 -92.5q0 -55 -21 -104.5t-57.5 -86.5t-85.5 -58.5t-105 -21.5q-50 0 -92.5 17.5t-74 48.5t-49.5 73.5t-18 92.5q0 55 21 104.5t57.5 86.5t85.5 58.5t105 21.5zM313 437q-41 0 -78 -16.5t-65.5 -45.5t-45.5 -67.5
t-17 -83.5q0 -38 13 -71t36.5 -57t55 -38t69.5 -14q41 0 78.5 16.5t66 45.5t45.5 68.5t17 84.5q0 37 -13.5 69.5t-36.5 56.5t-55.5 38t-69.5 14zM202 591q4 48 29 70.5t60 22.5q25 0 41.5 -8.5t29.5 -18.5t25.5 -18.5t29.5 -8.5q20 0 32 14t14 37h44q-3 -48 -28.5 -70.5
t-60.5 -22.5q-25 0 -41.5 8.5t-30 18.5t-26 18.5t-28.5 8.5q-21 0 -32.5 -14t-13.5 -37h-44z" />
    <glyph glyph-name="oe" unicode="&#x153;" horiz-adv-x="990" 
d="M712 44q55 0 92.5 26.5t65.5 68.5l48 -26q-33 -55 -87.5 -89.5t-123.5 -34.5q-72 0 -124.5 35.5t-76.5 98.5q-35 -60 -94.5 -97t-131.5 -37q-50 0 -92.5 17.5t-74 48.5t-49.5 73.5t-18 92.5q0 55 21 104.5t57.5 86.5t85.5 58.5t105 21.5q69 0 125 -36.5t82 -98.5
q32 60 88 97.5t129 37.5q47 0 86.5 -17t67.5 -46.5t43.5 -70.5t15.5 -89q0 -11 -1.5 -23.5t-4.5 -22.5h-404v-4q0 -40 13.5 -72t36.5 -55t54 -35.5t66 -12.5zM313 437q-41 0 -78 -16.5t-65.5 -45.5t-45.5 -67.5t-17 -83.5q0 -38 13 -71t36.5 -57t55 -38t69.5 -14
q41 0 78.5 16.5t66 45.5t45.5 68.5t17 84.5q0 37 -13.5 69.5t-36.5 56.5t-55.5 38t-69.5 14zM735 439q-30 0 -60 -11t-55 -32.5t-44 -52t-27 -69.5h344v7q-1 34 -13 63t-33 50t-49.5 33t-62.5 12z" />
    <glyph glyph-name="racute" unicode="&#x155;" horiz-adv-x="347" 
d="M349 428h-6q-2 0 -5.5 0.5t-6.5 0.5q-36 0 -67.5 -14.5t-56.5 -40t-42.5 -61t-23.5 -78.5l-35 -235h-60l72 481h59l-14 -97q11 21 29.5 40t41.5 33.5t49 23t53 8.5q5 0 8.5 -0.5t6.5 -0.5h7zM194 578l112 137h73l-123 -137h-62z" />
    <glyph glyph-name="rcaron" unicode="&#x159;" horiz-adv-x="347" 
d="M349 428h-6q-2 0 -5.5 0.5t-6.5 0.5q-36 0 -67.5 -14.5t-56.5 -40t-42.5 -61t-23.5 -78.5l-35 -235h-60l72 481h59l-14 -97q11 21 29.5 40t41.5 33.5t49 23t53 8.5q5 0 8.5 -0.5t6.5 -0.5h7zM406 715l-131 -137h-48l-90 137h61l59 -89l85 89h64z" />
    <glyph glyph-name="rcommaaccent" unicode="&#x157;" horiz-adv-x="347" 
d="M349 428h-6q-2 0 -5.5 0.5t-6.5 0.5q-36 0 -67.5 -14.5t-56.5 -40t-42.5 -61t-23.5 -78.5l-35 -235h-60l72 481h59l-14 -97q11 21 29.5 40t41.5 33.5t49 23t53 8.5q5 0 8.5 -0.5t6.5 -0.5h7zM11 -209l42 78q-14 1 -23.5 10.5t-9.5 24.5q0 17 13 29t32 12q17 0 28.5 -11
t11.5 -28q0 -10 -3.5 -18.5t-9.5 -19.5l-41 -77h-40z" />
    <glyph glyph-name="rcommaaccent.square" horiz-adv-x="347" 
d="M349 428h-6q-2 0 -5.5 0.5t-6.5 0.5q-36 0 -67.5 -14.5t-56.5 -40t-42.5 -61t-23.5 -78.5l-35 -235h-60l72 481h59l-14 -97q11 21 29.5 40t41.5 33.5t49 23t53 8.5q5 0 8.5 -0.5t6.5 -0.5h7zM39 -58h60l-13 -90q-5 -37 -23 -58t-51 -23l5 35q13 2 21.5 12.5t11.5 31.5
l1 7h-25z" />
    <glyph glyph-name="sacute" unicode="&#x15b;" horiz-adv-x="405" 
d="M204 578l112 137h73l-123 -137h-62zM80 149q5 -47 35 -77t76 -30q42 0 71.5 24.5t29.5 65.5q0 27 -18 45.5t-49 32.5l-53 24q-46 20 -71.5 51.5t-25.5 73.5q0 31 12 55.5t33 42t48 26.5t57 9q58 0 99.5 -33.5t50.5 -91.5l-55 -17q-7 40 -32.5 65t-64.5 25q-37 0 -63 -21
t-26 -56q0 -24 18.5 -43t47.5 -33l52 -25q48 -23 74 -53t26 -73q0 -34 -13.5 -61.5t-36 -46.5t-52 -29t-62.5 -10q-32 0 -60.5 10t-50.5 29t-35.5 45t-16.5 59z" />
    <glyph glyph-name="scaron" unicode="&#x161;" horiz-adv-x="405" 
d="M405 715l-131 -137h-48l-90 137h61l59 -89l85 89h64zM80 149q5 -47 35 -77t76 -30q42 0 71.5 24.5t29.5 65.5q0 27 -18 45.5t-49 32.5l-53 24q-46 20 -71.5 51.5t-25.5 73.5q0 31 12 55.5t33 42t48 26.5t57 9q58 0 99.5 -33.5t50.5 -91.5l-55 -17q-7 40 -32.5 65
t-64.5 25q-37 0 -63 -21t-26 -56q0 -24 18.5 -43t47.5 -33l52 -25q48 -23 74 -53t26 -73q0 -34 -13.5 -61.5t-36 -46.5t-52 -29t-62.5 -10q-32 0 -60.5 10t-50.5 29t-35.5 45t-16.5 59z" />
    <glyph glyph-name="scedilla" unicode="&#x15f;" horiz-adv-x="405" 
d="M80 149q5 -47 35 -77t76 -30q42 0 71.5 24.5t29.5 65.5q0 27 -18 45.5t-49 32.5l-53 24q-46 20 -71.5 51.5t-25.5 73.5q0 31 12 55.5t33 42t48 26.5t57 9q58 0 99.5 -33.5t50.5 -91.5l-55 -17q-7 40 -32.5 65t-64.5 25q-37 0 -63 -21t-26 -56q0 -24 18.5 -43t47.5 -33
l52 -25q48 -23 74 -53t26 -73q0 -34 -13.5 -61.5t-36 -46.5t-52 -29t-61.5 -10l-37 -48q9 4 22 4q34 -1 55 -22t21 -53q0 -38 -27 -62t-66 -24q-35 0 -58.5 21t-26.5 52h46q2 -13 13 -23.5t29 -10.5q20 0 33 13t13 32q0 17 -11.5 28.5t-29.5 11.5q-20 0 -37 -17l-38 29
l55 74q-9 2 -18 5q-28 10 -50 29t-35.5 45t-16.5 59z" />
    <glyph glyph-name="scircumflex" unicode="&#x15d;" horiz-adv-x="405" 
d="M116 578l131 137h48l90 -137h-61l-59 89l-85 -89h-64zM80 149q5 -47 35 -77t76 -30q42 0 71.5 24.5t29.5 65.5q0 27 -18 45.5t-49 32.5l-53 24q-46 20 -71.5 51.5t-25.5 73.5q0 31 12 55.5t33 42t48 26.5t57 9q58 0 99.5 -33.5t50.5 -91.5l-55 -17q-7 40 -32.5 65
t-64.5 25q-37 0 -63 -21t-26 -56q0 -24 18.5 -43t47.5 -33l52 -25q48 -23 74 -53t26 -73q0 -34 -13.5 -61.5t-36 -46.5t-52 -29t-62.5 -10q-32 0 -60.5 10t-50.5 29t-35.5 45t-16.5 59z" />
    <glyph glyph-name="scommaaccent" unicode="&#x219;" horiz-adv-x="405" 
d="M113 -209l42 78q-14 1 -23.5 10.5t-9.5 24.5q0 17 13 29t32 12q17 0 28.5 -11t11.5 -28q0 -10 -3.5 -18.5t-9.5 -19.5l-41 -77h-40zM80 149q5 -47 35 -77t76 -30q42 0 71.5 24.5t29.5 65.5q0 27 -18 45.5t-49 32.5l-53 24q-46 20 -71.5 51.5t-25.5 73.5q0 31 12 55.5
t33 42t48 26.5t57 9q58 0 99.5 -33.5t50.5 -91.5l-55 -17q-7 40 -32.5 65t-64.5 25q-37 0 -63 -21t-26 -56q0 -24 18.5 -43t47.5 -33l52 -25q48 -23 74 -53t26 -73q0 -34 -13.5 -61.5t-36 -46.5t-52 -29t-62.5 -10q-32 0 -60.5 10t-50.5 29t-35.5 45t-16.5 59z" />
    <glyph glyph-name="scommaaccent.square" horiz-adv-x="405" 
d="M140 -58h60l-13 -90q-5 -37 -23 -58t-51 -23l5 35q13 2 21.5 12.5t11.5 31.5l1 7h-25zM80 149q5 -47 35 -77t76 -30q42 0 71.5 24.5t29.5 65.5q0 27 -18 45.5t-49 32.5l-53 24q-46 20 -71.5 51.5t-25.5 73.5q0 31 12 55.5t33 42t48 26.5t57 9q58 0 99.5 -33.5t50.5 -91.5
l-55 -17q-7 40 -32.5 65t-64.5 25q-37 0 -63 -21t-26 -56q0 -24 18.5 -43t47.5 -33l52 -25q48 -23 74 -53t26 -73q0 -34 -13.5 -61.5t-36 -46.5t-52 -29t-62.5 -10q-32 0 -60.5 10t-50.5 29t-35.5 45t-16.5 59z" />
    <glyph glyph-name="germandbls" unicode="&#xdf;" horiz-adv-x="591" 
d="M322 411q24 0 52.5 9t53 27t41 45t16.5 63q0 25 -10 46t-28 36.5t-41.5 24t-50.5 8.5q-72 0 -117.5 -47t-57.5 -126l-74 -497h-60l75 496q16 107 76.5 168t158.5 61q40 0 75 -12.5t60 -34.5t39.5 -52.5t14.5 -66.5q0 -37 -13 -65.5t-33.5 -50.5t-44.5 -36.5t-46 -22.5
q23 -8 45 -22.5t39.5 -36t28 -49.5t10.5 -62q0 -51 -20.5 -92.5t-55.5 -70.5t-82 -45t-99 -16q-24 0 -45 3.5t-41 9.5l9 53q17 -6 38.5 -8.5t40.5 -2.5q37 0 72 12t62 34.5t43.5 53.5t16.5 70q0 35 -14 61.5t-36 44.5t-49.5 27t-55.5 9h-27l9 54h25z" />
    <glyph glyph-name="tbar" unicode="&#x167;" horiz-adv-x="334" 
d="M219 629l-22 -148h139l-8 -54h-139l-20 -134h139l-8 -53h-139l-15 -103q-7 -48 9.5 -70t58.5 -22q15 0 31 4t29 11l-8 -57q-11 -5 -27.5 -9.5t-37.5 -4.5q-65 0 -96 37.5t-20 106.5l16 107h-73l8 53h73l20 134h-77l8 54h77l22 148h60z" />
    <glyph glyph-name="tcaron" unicode="&#x165;" horiz-adv-x="334" 
d="M219 629l-22 -148h139l-8 -54h-139l-43 -290q-7 -48 9.5 -70t58.5 -22q15 0 31 4t29 11l-8 -57q-11 -5 -27.5 -9.5t-37.5 -4.5q-65 0 -96 37.5t-20 106.5l44 294h-77l8 54h77l22 148h60zM277 550l50 161h63l-60 -161h-53z" />
    <glyph glyph-name="tcommaaccent" unicode="&#x163;" horiz-adv-x="334" 
d="M219 629l-22 -148h139l-8 -54h-139l-43 -290q-7 -48 9.5 -70t58.5 -22q15 0 31 4t29 11l-8 -57q-11 -5 -27.5 -9.5t-37.5 -4.5q-65 0 -96 37.5t-20 106.5l44 294h-77l8 54h77l22 148h60zM87 -209l42 78q-14 1 -23.5 10.5t-9.5 24.5q0 17 13 29t32 12q17 0 28.5 -11
t11.5 -28q0 -10 -3.5 -18.5t-9.5 -19.5l-41 -77h-40z" />
    <glyph glyph-name="tcommaaccent.square" horiz-adv-x="334" 
d="M219 629l-22 -148h139l-8 -54h-139l-43 -290q-7 -48 9.5 -70t58.5 -22q15 0 31 4t29 11l-8 -57q-11 -5 -27.5 -9.5t-37.5 -4.5q-65 0 -96 37.5t-20 106.5l44 294h-77l8 54h77l22 148h60zM118 -58h60l-13 -90q-5 -37 -23 -58t-51 -23l5 35q13 2 21.5 12.5t11.5 31.5l1 7
h-25z" />
    <glyph glyph-name="uacute" unicode="&#xfa;" horiz-adv-x="583" 
d="M477 481h60l-72 -481h-60l12 82q-26 -38 -71 -65.5t-104 -27.5q-47 0 -82.5 15.5t-57.5 43.5t-30.5 67.5t-1.5 87.5l42 278h60l-41 -274q-11 -77 21.5 -120t102.5 -43q34 0 65 14t55.5 38.5t40.5 57t22 70.5zM293 578l112 137h73l-123 -137h-62z" />
    <glyph glyph-name="ubreve" unicode="&#x16d;" horiz-adv-x="583" 
d="M477 481h60l-72 -481h-60l12 82q-26 -38 -71 -65.5t-104 -27.5q-47 0 -82.5 15.5t-57.5 43.5t-30.5 67.5t-1.5 87.5l42 278h60l-41 -274q-11 -77 21.5 -120t102.5 -43q34 0 65 14t55.5 38.5t40.5 57t22 70.5zM347 623q33 0 56.5 23t28.5 63h48q-2 -30 -13 -54t-29 -41
t-42 -26t-51 -9q-28 0 -51 10t-38.5 27.5t-23 41t-5.5 51.5h49q-2 -38 18 -62t53 -24z" />
    <glyph glyph-name="ucircumflex" unicode="&#xfb;" horiz-adv-x="583" 
d="M477 481h60l-72 -481h-60l12 82q-26 -38 -71 -65.5t-104 -27.5q-47 0 -82.5 15.5t-57.5 43.5t-30.5 67.5t-1.5 87.5l42 278h60l-41 -274q-11 -77 21.5 -120t102.5 -43q34 0 65 14t55.5 38.5t40.5 57t22 70.5zM204 578l131 137h48l90 -137h-61l-59 89l-85 -89h-64z" />
    <glyph glyph-name="udieresis" unicode="&#xfc;" horiz-adv-x="583" 
d="M477 481h60l-72 -481h-60l12 82q-26 -38 -71 -65.5t-104 -27.5q-47 0 -82.5 15.5t-57.5 43.5t-30.5 67.5t-1.5 87.5l42 278h60l-41 -274q-11 -77 21.5 -120t102.5 -43q34 0 65 14t55.5 38.5t40.5 57t22 70.5zM468 629q0 -17 -12 -29t-29 -12t-28 11t-11 28t12 29t29 12
t28 -11t11 -28zM301 629q0 -17 -12 -29t-29 -12t-28 11t-11 28t12 29t29 12t28 -11t11 -28z" />
    <glyph glyph-name="udieresis.square" horiz-adv-x="583" 
d="M477 481h60l-72 -481h-60l12 82q-26 -38 -71 -65.5t-104 -27.5q-47 0 -82.5 15.5t-57.5 43.5t-30.5 67.5t-1.5 87.5l42 278h60l-41 -274q-11 -77 21.5 -120t102.5 -43q34 0 65 14t55.5 38.5t40.5 57t22 70.5zM229 583l14 91h59l-14 -91h-59zM389 583l14 91h59l-14 -91
h-59z" />
    <glyph glyph-name="ugrave" unicode="&#xf9;" horiz-adv-x="583" 
d="M477 481h60l-72 -481h-60l12 82q-26 -38 -71 -65.5t-104 -27.5q-47 0 -82.5 15.5t-57.5 43.5t-30.5 67.5t-1.5 87.5l42 278h60l-41 -274q-11 -77 21.5 -120t102.5 -43q34 0 65 14t55.5 38.5t40.5 57t22 70.5zM326 578l-84 137h69l71 -137h-56z" />
    <glyph glyph-name="uhungarumlaut" unicode="&#x171;" horiz-adv-x="583" 
d="M477 481h60l-72 -481h-60l12 82q-26 -38 -71 -65.5t-104 -27.5q-47 0 -82.5 15.5t-57.5 43.5t-30.5 67.5t-1.5 87.5l42 278h60l-41 -274q-11 -77 21.5 -120t102.5 -43q34 0 65 14t55.5 38.5t40.5 57t22 70.5zM227 576l105 136h67l-116 -136h-56zM377 576l105 136h67
l-116 -136h-56z" />
    <glyph glyph-name="umacron" unicode="&#x16b;" horiz-adv-x="583" 
d="M477 481h60l-72 -481h-60l12 82q-26 -38 -71 -65.5t-104 -27.5q-47 0 -82.5 15.5t-57.5 43.5t-30.5 67.5t-1.5 87.5l42 278h60l-41 -274q-11 -77 21.5 -120t102.5 -43q34 0 65 14t55.5 38.5t40.5 57t22 70.5zM216 605l6 43h250l-6 -43h-250z" />
    <glyph glyph-name="uogonek" unicode="&#x173;" horiz-adv-x="583" 
d="M477 481h60l-72 -481q-62 -23 -99 -53t-37 -62q0 -23 13.5 -33t35.5 -10q15 0 30.5 3.5t28.5 14.5l-7 -47q-14 -7 -31 -11t-35 -4q-40 0 -63 20.5t-23 55.5q0 44 35.5 77t92.5 56l11 75q-26 -38 -71 -65.5t-104 -27.5q-47 0 -82.5 15.5t-57.5 43.5t-30.5 67.5t-1.5 87.5
l42 278h60l-41 -274q-11 -77 21.5 -120t102.5 -43q34 0 65 14t55.5 38.5t40.5 57t22 70.5z" />
    <glyph glyph-name="uring" unicode="&#x16f;" horiz-adv-x="583" 
d="M477 481h60l-72 -481h-60l12 82q-26 -38 -71 -65.5t-104 -27.5q-47 0 -82.5 15.5t-57.5 43.5t-30.5 67.5t-1.5 87.5l42 278h60l-41 -274q-11 -77 21.5 -120t102.5 -43q34 0 65 14t55.5 38.5t40.5 57t22 70.5zM440 652q0 -40 -28.5 -66t-67.5 -26q-38 0 -63.5 24.5
t-25.5 60.5q0 41 28.5 67t68.5 26q36 0 62 -24t26 -62zM397 650q0 20 -13.5 34t-32.5 14t-36 -14t-17 -37q0 -20 13.5 -33.5t34.5 -13.5q19 0 35 14t16 36z" />
    <glyph glyph-name="utilde" unicode="&#x169;" horiz-adv-x="583" 
d="M477 481h60l-72 -481h-60l12 82q-26 -38 -71 -65.5t-104 -27.5q-47 0 -82.5 15.5t-57.5 43.5t-30.5 67.5t-1.5 87.5l42 278h60l-41 -274q-11 -77 21.5 -120t102.5 -43q34 0 65 14t55.5 38.5t40.5 57t22 70.5zM197 591q4 48 29 70.5t60 22.5q25 0 41.5 -8.5t29.5 -18.5
t25.5 -18.5t29.5 -8.5q20 0 32 14t14 37h44q-3 -48 -28.5 -70.5t-60.5 -22.5q-25 0 -41.5 8.5t-30 18.5t-26 18.5t-28.5 8.5q-21 0 -32.5 -14t-13.5 -37h-44z" />
    <glyph glyph-name="wacute" unicode="&#x1e83;" horiz-adv-x="797" 
d="M506 0l-84 393l-203 -393h-47l-109 481h61l84 -396l203 396h45l85 -396l202 396h63l-252 -481h-48zM413 578l112 137h73l-123 -137h-62z" />
    <glyph glyph-name="wcircumflex" unicode="&#x175;" horiz-adv-x="797" 
d="M506 0l-84 393l-203 -393h-47l-109 481h61l84 -396l203 396h45l85 -396l202 396h63l-252 -481h-48zM313 578l131 137h48l90 -137h-61l-59 89l-85 -89h-64z" />
    <glyph glyph-name="wdieresis" unicode="&#x1e85;" horiz-adv-x="797" 
d="M506 0l-84 393l-203 -393h-47l-109 481h61l84 -396l203 396h45l85 -396l202 396h63l-252 -481h-48zM576 629q0 -17 -12 -29t-29 -12t-28 11t-11 28t12 29t29 12t28 -11t11 -28zM409 629q0 -17 -12 -29t-29 -12t-28 11t-11 28t12 29t29 12t28 -11t11 -28z" />
    <glyph glyph-name="wdieresis.square" horiz-adv-x="797" 
d="M506 0l-84 393l-203 -393h-47l-109 481h61l84 -396l203 396h45l85 -396l202 396h63l-252 -481h-48zM336 583l14 91h59l-14 -91h-59zM496 583l14 91h59l-14 -91h-59z" />
    <glyph glyph-name="wgrave" unicode="&#x1e81;" horiz-adv-x="797" 
d="M506 0l-84 393l-203 -393h-47l-109 481h61l84 -396l203 396h45l85 -396l202 396h63l-252 -481h-48zM419 578l-84 137h69l71 -137h-56z" />
    <glyph glyph-name="yacute" unicode="&#xfd;" horiz-adv-x="502" 
d="M194 -86q-21 -37 -39.5 -62.5t-37.5 -41t-40 -22.5t-45 -7q-16 0 -28.5 3.5t-22.5 8.5l8 52q8 -4 19 -6.5t24 -2.5q32 0 55 21t51 70l47 83l-126 471h63l104 -402l223 402h66zM267 578l112 137h73l-123 -137h-62z" />
    <glyph glyph-name="ycircumflex" unicode="&#x177;" horiz-adv-x="502" 
d="M194 -86q-21 -37 -39.5 -62.5t-37.5 -41t-40 -22.5t-45 -7q-16 0 -28.5 3.5t-22.5 8.5l8 52q8 -4 19 -6.5t24 -2.5q32 0 55 21t51 70l47 83l-126 471h63l104 -402l223 402h66zM165 578l131 137h48l90 -137h-61l-59 89l-85 -89h-64z" />
    <glyph glyph-name="ydieresis" unicode="&#xff;" horiz-adv-x="502" 
d="M194 -86q-21 -37 -39.5 -62.5t-37.5 -41t-40 -22.5t-45 -7q-16 0 -28.5 3.5t-22.5 8.5l8 52q8 -4 19 -6.5t24 -2.5q32 0 55 21t51 70l47 83l-126 471h63l104 -402l223 402h66zM428 629q0 -17 -12 -29t-29 -12t-28 11t-11 28t12 29t29 12t28 -11t11 -28zM261 629
q0 -17 -12 -29t-29 -12t-28 11t-11 28t12 29t29 12t28 -11t11 -28z" />
    <glyph glyph-name="ydieresis.square" horiz-adv-x="502" 
d="M194 -86q-21 -37 -39.5 -62.5t-37.5 -41t-40 -22.5t-45 -7q-16 0 -28.5 3.5t-22.5 8.5l8 52q8 -4 19 -6.5t24 -2.5q32 0 55 21t51 70l47 83l-126 471h63l104 -402l223 402h66zM191 583l14 91h59l-14 -91h-59zM351 583l14 91h59l-14 -91h-59z" />
    <glyph glyph-name="ygrave" unicode="&#x1ef3;" horiz-adv-x="502" 
d="M194 -86q-21 -37 -39.5 -62.5t-37.5 -41t-40 -22.5t-45 -7q-16 0 -28.5 3.5t-22.5 8.5l8 52q8 -4 19 -6.5t24 -2.5q32 0 55 21t51 70l47 83l-126 471h63l104 -402l223 402h66zM283 578l-84 137h69l71 -137h-56z" />
    <glyph glyph-name="ij" unicode="&#x133;" horiz-adv-x="454" 
d="M178 481l-72 -481h-60l72 481h60zM211 630q0 -18 -13.5 -30.5t-30.5 -12.5t-29.5 12t-12.5 29q0 18 13.5 31t30.5 13t29.5 -12.5t12.5 -29.5zM326 -64q-11 -78 -50 -116.5t-98 -38.5q-20 0 -34 3.5t-28 10.5l8 54q8 -5 21 -8.5t27 -3.5q37 0 62 26t33 77l81 541h60z
M441 630q0 -18 -13.5 -30.5t-30.5 -12.5t-29.5 12t-12.5 29q0 18 13.5 31t30.5 13t29.5 -12.5t12.5 -29.5z" />
    <glyph glyph-name="ij.square" horiz-adv-x="454" 
d="M133 581l14 95h60l-14 -95h-60zM178 481l-72 -481h-60l72 481h60zM326 -64q-11 -78 -50 -116.5t-98 -38.5q-20 0 -34 3.5t-28 10.5l8 54q8 -5 21 -8.5t27 -3.5q37 0 62 26t33 77l81 541h60zM363 581l14 95h60l-14 -95h-60z" />
    <glyph glyph-name="zacute" unicode="&#x17a;" horiz-adv-x="445" 
d="M83 481h365l-5 -36l-361 -392h307l-8 -53h-389l6 38l359 391h-282zM241 578l112 137h73l-123 -137h-62z" />
    <glyph glyph-name="zcaron" unicode="&#x17e;" horiz-adv-x="445" 
d="M83 481h365l-5 -36l-361 -392h307l-8 -53h-389l6 38l359 391h-282zM446 715l-131 -137h-48l-90 137h61l59 -89l85 89h64z" />
    <glyph glyph-name="zdotaccent" unicode="&#x17c;" horiz-adv-x="445" 
d="M83 481h365l-5 -36l-361 -392h307l-8 -53h-389l6 38l359 391h-282zM257 628q0 17 13 30t30 13t29 -12t12 -29t-13 -30t-31 -13q-17 0 -28.5 12t-11.5 29z" />
    <glyph glyph-name="zdotaccent.square" horiz-adv-x="445" 
d="M83 481h365l-5 -36l-361 -392h307l-8 -53h-389l6 38l359 391h-282zM261 581l14 95h60l-14 -95h-60z" />
    <glyph glyph-name="thorn" unicode="&#xfe;" horiz-adv-x="625" 
d="M16 -208l136 908h59l-46 -303q32 46 83 70.5t107 24.5q49 0 90 -18t71 -49t47 -73t17 -90q0 -55 -20.5 -104.5t-56 -87t-84 -59.5t-105.5 -22q-29 0 -58.5 7.5t-55.5 22t-46.5 36t-32.5 49.5l-46 -312h-59zM519 259q0 37 -13 69.5t-36.5 56.5t-55.5 38t-70 14
q-44 0 -82 -18t-66 -48t-44 -69t-16 -81q0 -38 13.5 -70t37 -56t56 -37.5t71.5 -13.5q43 0 80.5 18t65.5 47.5t43.5 68.5t15.5 81z" />
    <glyph glyph-name="i.square" horiz-adv-x="224" 
d="M133 581l14 95h60l-14 -95h-60zM178 481l-72 -481h-60l72 481h60z" />
    <glyph glyph-name="j.square" horiz-adv-x="230" 
d="M102 -64q-11 -78 -50 -116.5t-98 -38.5q-20 0 -34 3.5t-28 10.5l8 54q8 -5 21 -8.5t27 -3.5q37 0 62 26t33 77l81 541h60zM139 581l14 95h60l-14 -95h-60z" />
    <glyph glyph-name="aring.alt" horiz-adv-x="515" 
d="M404 0h-57l13 82q-29 -42 -76.5 -67.5t-105.5 -25.5q-64 0 -102 34.5t-38 93.5q0 67 48.5 108.5t139.5 51.5l163 18l4 28q7 52 -22 83.5t-87 31.5q-48 0 -84.5 -25t-58.5 -72l-53 22q26 61 78 95t121 34q43 0 76.5 -13t55 -36t30.5 -55t3 -70zM99 120q0 -35 25.5 -56
t68.5 -21q34 0 65 12.5t55 34t40.5 50t21.5 59.5l7 43l-151 -17q-63 -7 -97.5 -35t-34.5 -70zM411 652q0 -40 -28.5 -66t-67.5 -26q-38 0 -63.5 24.5t-25.5 60.5q0 41 28.5 67t68.5 26q36 0 62 -24t26 -62zM368 650q0 20 -13.5 34t-32.5 14t-36 -14t-17 -37
q0 -20 13.5 -33.5t34.5 -13.5q19 0 35 14t16 36z" />
    <glyph glyph-name="aacute.alt" horiz-adv-x="515" 
d="M269 578l112 137h73l-123 -137h-62zM404 0h-57l13 82q-29 -42 -76.5 -67.5t-105.5 -25.5q-64 0 -102 34.5t-38 93.5q0 67 48.5 108.5t139.5 51.5l163 18l4 28q7 52 -22 83.5t-87 31.5q-48 0 -84.5 -25t-58.5 -72l-53 22q26 61 78 95t121 34q43 0 76.5 -13t55 -36
t30.5 -55t3 -70zM99 120q0 -35 25.5 -56t68.5 -21q34 0 65 12.5t55 34t40.5 50t21.5 59.5l7 43l-151 -17q-63 -7 -97.5 -35t-34.5 -70z" />
    <glyph glyph-name="abreve.alt" horiz-adv-x="515" 
d="M320 623q33 0 56.5 23t28.5 63h48q-2 -30 -13 -54t-29 -41t-42 -26t-51 -9q-28 0 -51 10t-38.5 27.5t-23 41t-5.5 51.5h49q-2 -38 18 -62t53 -24zM404 0h-57l13 82q-29 -42 -76.5 -67.5t-105.5 -25.5q-64 0 -102 34.5t-38 93.5q0 67 48.5 108.5t139.5 51.5l163 18l4 28
q7 52 -22 83.5t-87 31.5q-48 0 -84.5 -25t-58.5 -72l-53 22q26 61 78 95t121 34q43 0 76.5 -13t55 -36t30.5 -55t3 -70zM99 120q0 -35 25.5 -56t68.5 -21q34 0 65 12.5t55 34t40.5 50t21.5 59.5l7 43l-151 -17q-63 -7 -97.5 -35t-34.5 -70z" />
    <glyph glyph-name="acircumflex.alt" horiz-adv-x="515" 
d="M176 578l131 137h48l90 -137h-61l-59 89l-85 -89h-64zM404 0h-57l13 82q-29 -42 -76.5 -67.5t-105.5 -25.5q-64 0 -102 34.5t-38 93.5q0 67 48.5 108.5t139.5 51.5l163 18l4 28q7 52 -22 83.5t-87 31.5q-48 0 -84.5 -25t-58.5 -72l-53 22q26 61 78 95t121 34
q43 0 76.5 -13t55 -36t30.5 -55t3 -70zM99 120q0 -35 25.5 -56t68.5 -21q34 0 65 12.5t55 34t40.5 50t21.5 59.5l7 43l-151 -17q-63 -7 -97.5 -35t-34.5 -70z" />
    <glyph glyph-name="adieresis.alt" horiz-adv-x="515" 
d="M439 629q0 -17 -12 -29t-29 -12t-28 11t-11 28t12 29t29 12t28 -11t11 -28zM272 629q0 -17 -12 -29t-29 -12t-28 11t-11 28t12 29t29 12t28 -11t11 -28zM404 0h-57l13 82q-29 -42 -76.5 -67.5t-105.5 -25.5q-64 0 -102 34.5t-38 93.5q0 67 48.5 108.5t139.5 51.5l163 18
l4 28q7 52 -22 83.5t-87 31.5q-48 0 -84.5 -25t-58.5 -72l-53 22q26 61 78 95t121 34q43 0 76.5 -13t55 -36t30.5 -55t3 -70zM99 120q0 -35 25.5 -56t68.5 -21q34 0 65 12.5t55 34t40.5 50t21.5 59.5l7 43l-151 -17q-63 -7 -97.5 -35t-34.5 -70z" />
    <glyph glyph-name="adieresisalt.square" horiz-adv-x="515" 
d="M200 583l14 91h59l-14 -91h-59zM360 583l14 91h59l-14 -91h-59zM404 0h-57l13 82q-29 -42 -76.5 -67.5t-105.5 -25.5q-64 0 -102 34.5t-38 93.5q0 67 48.5 108.5t139.5 51.5l163 18l4 28q7 52 -22 83.5t-87 31.5q-48 0 -84.5 -25t-58.5 -72l-53 22q26 61 78 95t121 34
q43 0 76.5 -13t55 -36t30.5 -55t3 -70zM99 120q0 -35 25.5 -56t68.5 -21q34 0 65 12.5t55 34t40.5 50t21.5 59.5l7 43l-151 -17q-63 -7 -97.5 -35t-34.5 -70z" />
    <glyph glyph-name="agrave.alt" horiz-adv-x="515" 
d="M297 578l-84 137h69l71 -137h-56zM404 0h-57l13 82q-29 -42 -76.5 -67.5t-105.5 -25.5q-64 0 -102 34.5t-38 93.5q0 67 48.5 108.5t139.5 51.5l163 18l4 28q7 52 -22 83.5t-87 31.5q-48 0 -84.5 -25t-58.5 -72l-53 22q26 61 78 95t121 34q43 0 76.5 -13t55 -36t30.5 -55
t3 -70zM99 120q0 -35 25.5 -56t68.5 -21q34 0 65 12.5t55 34t40.5 50t21.5 59.5l7 43l-151 -17q-63 -7 -97.5 -35t-34.5 -70z" />
    <glyph glyph-name="amacron.alt" horiz-adv-x="515" 
d="M188 605l6 43h250l-6 -43h-250zM404 0h-57l13 82q-29 -42 -76.5 -67.5t-105.5 -25.5q-64 0 -102 34.5t-38 93.5q0 67 48.5 108.5t139.5 51.5l163 18l4 28q7 52 -22 83.5t-87 31.5q-48 0 -84.5 -25t-58.5 -72l-53 22q26 61 78 95t121 34q43 0 76.5 -13t55 -36t30.5 -55
t3 -70zM99 120q0 -35 25.5 -56t68.5 -21q34 0 65 12.5t55 34t40.5 50t21.5 59.5l7 43l-151 -17q-63 -7 -97.5 -35t-34.5 -70z" />
    <glyph glyph-name="aogonek.alt" horiz-adv-x="515" 
d="M404 0q-62 -23 -99 -53t-37 -62q0 -23 13.5 -33t35.5 -10q15 0 30.5 3.5t28.5 14.5l-7 -47q-14 -7 -31 -11t-35 -4q-40 0 -63 20.5t-23 55.5q0 45 36.5 78t94.5 56l12 74q-29 -42 -76.5 -67.5t-105.5 -25.5q-64 0 -102 34.5t-38 93.5q0 67 48.5 108.5t139.5 51.5l163 18
l4 28q7 52 -22 83.5t-87 31.5q-48 0 -84.5 -25t-58.5 -72l-53 22q26 61 78 95t121 34q43 0 76.5 -13t55 -36t30.5 -55t3 -70zM99 120q0 -35 25.5 -56t68.5 -21q34 0 65 12.5t55 34t40.5 50t21.5 59.5l7 43l-151 -17q-63 -7 -97.5 -35t-34.5 -70z" />
    <glyph glyph-name="atilde.alt" horiz-adv-x="515" 
d="M163 591q4 48 29 70.5t60 22.5q25 0 41.5 -8.5t29.5 -18.5t25.5 -18.5t29.5 -8.5q20 0 32 14t14 37h44q-3 -48 -28.5 -70.5t-60.5 -22.5q-25 0 -41.5 8.5t-30 18.5t-26 18.5t-28.5 8.5q-21 0 -32.5 -14t-13.5 -37h-44zM404 0h-57l13 82q-29 -42 -76.5 -67.5t-105.5 -25.5
q-64 0 -102 34.5t-38 93.5q0 67 48.5 108.5t139.5 51.5l163 18l4 28q7 52 -22 83.5t-87 31.5q-48 0 -84.5 -25t-58.5 -72l-53 22q26 61 78 95t121 34q43 0 76.5 -13t55 -36t30.5 -55t3 -70zM99 120q0 -35 25.5 -56t68.5 -21q34 0 65 12.5t55 34t40.5 50t21.5 59.5l7 43
l-151 -17q-63 -7 -97.5 -35t-34.5 -70z" />
    <glyph glyph-name="tbar.alt" horiz-adv-x="282" 
d="M71 0l36 240h-89l8 53h89l20 134h-89l8 54h89l22 148h60l-22 -148h102l-8 -54h-102l-20 -134h102l-8 -53h-102l-36 -240h-60z" />
    <glyph glyph-name="tcaron.alt" horiz-adv-x="282" 
d="M283 550l50 161h63l-60 -161h-53zM71 0l64 427h-89l8 54h89l22 148h60l-22 -148h102l-8 -54h-102l-64 -427h-60z" />
    <glyph glyph-name="tcommaaccent.alt" horiz-adv-x="282" 
d="M36 -209l42 78q-14 1 -23.5 10.5t-9.5 24.5q0 17 13 29t32 12q17 0 28.5 -11t11.5 -28q0 -10 -3.5 -18.5t-9.5 -19.5l-41 -77h-40zM71 0l64 427h-89l8 54h89l22 148h60l-22 -148h102l-8 -54h-102l-64 -427h-60z" />
    <glyph glyph-name="tcommaaccentalt.square" horiz-adv-x="282" 
d="M64 -58h60l-13 -90q-5 -37 -23 -58t-51 -23l5 35q13 2 21.5 12.5t11.5 31.5l1 7h-25zM71 0l64 427h-89l8 54h89l22 148h60l-22 -148h102l-8 -54h-102l-64 -427h-60z" />
    <glyph glyph-name="uacute.alt" horiz-adv-x="562" 
d="M285 578l112 137h73l-123 -137h-62zM255 -11q-48 0 -86 15.5t-62 44.5t-33.5 70t-1.5 93l40 269h60l-40 -268q-12 -79 21.5 -123.5t103.5 -44.5q66 0 110 45t55 123l40 268h60l-41 -273q-16 -105 -75 -162t-151 -57z" />
    <glyph glyph-name="ubreve.alt" horiz-adv-x="562" 
d="M340 623q33 0 56.5 23t28.5 63h48q-2 -30 -13 -54t-29 -41t-42 -26t-51 -9q-28 0 -51 10t-38.5 27.5t-23 41t-5.5 51.5h49q-2 -38 18 -62t53 -24zM255 -11q-48 0 -86 15.5t-62 44.5t-33.5 70t-1.5 93l40 269h60l-40 -268q-12 -79 21.5 -123.5t103.5 -44.5q66 0 110 45
t55 123l40 268h60l-41 -273q-16 -105 -75 -162t-151 -57z" />
    <glyph glyph-name="ucircumflex.alt" horiz-adv-x="562" 
d="M196 578l131 137h48l90 -137h-61l-59 89l-85 -89h-64zM255 -11q-48 0 -86 15.5t-62 44.5t-33.5 70t-1.5 93l40 269h60l-40 -268q-12 -79 21.5 -123.5t103.5 -44.5q66 0 110 45t55 123l40 268h60l-41 -273q-16 -105 -75 -162t-151 -57z" />
    <glyph glyph-name="udieresis.alt" horiz-adv-x="562" 
d="M458 629q0 -17 -12 -29t-29 -12t-28 11t-11 28t12 29t29 12t28 -11t11 -28zM291 629q0 -17 -12 -29t-29 -12t-28 11t-11 28t12 29t29 12t28 -11t11 -28zM255 -11q-48 0 -86 15.5t-62 44.5t-33.5 70t-1.5 93l40 269h60l-40 -268q-12 -79 21.5 -123.5t103.5 -44.5
q66 0 110 45t55 123l40 268h60l-41 -273q-16 -105 -75 -162t-151 -57z" />
    <glyph glyph-name="udieresisalt.square" horiz-adv-x="562" 
d="M219 583l14 91h59l-14 -91h-59zM379 583l14 91h59l-14 -91h-59zM255 -11q-48 0 -86 15.5t-62 44.5t-33.5 70t-1.5 93l40 269h60l-40 -268q-12 -79 21.5 -123.5t103.5 -44.5q66 0 110 45t55 123l40 268h60l-41 -273q-16 -105 -75 -162t-151 -57z" />
    <glyph glyph-name="ugrave.alt" horiz-adv-x="562" 
d="M318 578l-84 137h69l71 -137h-56zM255 -11q-48 0 -86 15.5t-62 44.5t-33.5 70t-1.5 93l40 269h60l-40 -268q-12 -79 21.5 -123.5t103.5 -44.5q66 0 110 45t55 123l40 268h60l-41 -273q-16 -105 -75 -162t-151 -57z" />
    <glyph glyph-name="uhungarumlaut.alt" horiz-adv-x="562" 
d="M219 576l105 136h67l-116 -136h-56zM369 576l105 136h67l-116 -136h-56zM255 -11q-48 0 -86 15.5t-62 44.5t-33.5 70t-1.5 93l40 269h60l-40 -268q-12 -79 21.5 -123.5t103.5 -44.5q66 0 110 45t55 123l40 268h60l-41 -273q-16 -105 -75 -162t-151 -57z" />
    <glyph glyph-name="umacron.alt" horiz-adv-x="562" 
d="M255 -11q-48 0 -86 15.5t-62 44.5t-33.5 70t-1.5 93l40 269h60l-40 -268q-12 -79 21.5 -123.5t103.5 -44.5q66 0 110 45t55 123l40 268h60l-41 -273q-16 -105 -75 -162t-151 -57zM208 605l6 43h250l-6 -43h-250z" />
    <glyph glyph-name="uogonek.alt" horiz-adv-x="562" 
d="M481 208q-23 -157 -150 -209q-54 -22 -86 -51.5t-32 -61.5q0 -22 13.5 -33t35.5 -11q15 0 29.5 4t28.5 14l-6 -46q-14 -8 -31 -12.5t-35 -4.5q-40 0 -63 21t-23 58t21.5 64.5t55.5 49.5q-90 5 -136 63.5t-31 158.5l40 269h60l-40 -268q-12 -79 21.5 -123.5t103.5 -44.5
q66 0 110 45t55 123l40 268h60z" />
    <glyph glyph-name="uring.alt" horiz-adv-x="562" 
d="M432 652q0 -40 -28.5 -66t-67.5 -26q-38 0 -63.5 24.5t-25.5 60.5q0 41 28.5 67t68.5 26q36 0 62 -24t26 -62zM389 650q0 20 -13.5 34t-32.5 14t-36 -14t-17 -37q0 -20 13.5 -33.5t34.5 -13.5q19 0 35 14t16 36zM255 -11q-48 0 -86 15.5t-62 44.5t-33.5 70t-1.5 93
l40 269h60l-40 -268q-12 -79 21.5 -123.5t103.5 -44.5q66 0 110 45t55 123l40 268h60l-41 -273q-16 -105 -75 -162t-151 -57z" />
    <glyph glyph-name="utilde.alt" horiz-adv-x="562" 
d="M183 591q4 48 29 70.5t60 22.5q25 0 41.5 -8.5t29.5 -18.5t25.5 -18.5t29.5 -8.5q20 0 32 14t14 37h44q-3 -48 -28.5 -70.5t-60.5 -22.5q-25 0 -41.5 8.5t-30 18.5t-26 18.5t-28.5 8.5q-21 0 -32.5 -14t-13.5 -37h-44zM255 -11q-48 0 -86 15.5t-62 44.5t-33.5 70t-1.5 93
l40 269h60l-40 -268q-12 -79 21.5 -123.5t103.5 -44.5q66 0 110 45t55 123l40 268h60l-41 -273q-16 -105 -75 -162t-151 -57z" />
    <glyph glyph-name="ordfeminine" unicode="&#xaa;" horiz-adv-x="486" 
d="M247 291q-37 0 -68.5 13.5t-54 36.5t-35.5 55t-13 70q0 42 15.5 79.5t42.5 66t64 45t80 16.5q45 0 83.5 -21t57.5 -57l11 70h52l-55 -366h-52l9 61q-23 -33 -59 -51t-78 -18zM257 339q31 0 58 13t47 34.5t32 50t12 60.5q0 27 -9.5 50.5t-26.5 41t-40.5 27t-50.5 9.5
q-32 0 -59.5 -12.5t-48 -34t-32 -49.5t-11.5 -59q0 -28 9.5 -52t27 -41.5t41 -27.5t51.5 -10z" />
    <glyph glyph-name="ordfeminine.alt" horiz-adv-x="401" 
d="M347 299h-49l9 58q-23 -30 -57.5 -48t-76.5 -18q-48 0 -76.5 26t-28.5 71q0 51 36.5 82.5t104.5 39.5l121 13l3 22q5 35 -16.5 57.5t-62.5 22.5q-35 0 -61 -18t-42 -52l-46 19q20 47 59 73t92 26q66 0 100.5 -37t26.5 -95zM120 391q0 -25 18 -39.5t49 -14.5q25 0 47 9
t39.5 24t29 35t15.5 43l5 32l-109 -13q-45 -5 -69.5 -26t-24.5 -50z" />
    <glyph glyph-name="ordmasculine" unicode="&#xba;" horiz-adv-x="460" 
d="M282 673q37 0 69.5 -13.5t56.5 -37t38 -55.5t14 -70q0 -42 -16 -79.5t-44 -65.5t-65 -44.5t-80 -16.5q-38 0 -70.5 13.5t-56.5 37t-38 56t-14 70.5q0 41 16 78.5t44 65.5t65.5 44.5t80.5 16.5zM279 625q-30 0 -57 -12t-47.5 -33t-33 -49t-12.5 -61q0 -28 9.5 -52
t26.5 -41.5t40 -27.5t51 -10q30 0 57 12t48 33t33.5 50t12.5 63q0 27 -9.5 50t-27 40.5t-41 27.5t-50.5 10z" />
    <glyph glyph-name="a.superior" horiz-adv-x="486" 
d="M247 291q-37 0 -68.5 13.5t-54 36.5t-35.5 55t-13 70q0 42 15.5 79.5t42.5 66t64 45t80 16.5q45 0 83.5 -21t57.5 -57l11 70h52l-55 -366h-52l9 61q-23 -33 -59 -51t-78 -18zM257 339q31 0 58 13t47 34.5t32 50t12 60.5q0 27 -9.5 50.5t-26.5 41t-40.5 27t-50.5 9.5
q-32 0 -59.5 -12.5t-48 -34t-32 -49.5t-11.5 -59q0 -28 9.5 -52t27 -41.5t41 -27.5t51.5 -10z" />
    <glyph glyph-name="b.superior" horiz-adv-x="486" 
d="M316 673q37 0 68.5 -13.5t54 -36.5t35.5 -55.5t13 -69.5q0 -42 -15.5 -79.5t-42.5 -66t-64 -45t-80 -16.5q-45 0 -83.5 21t-57.5 57l-11 -70h-52l78 525h52l-32 -220q23 33 59 51t78 18zM306 625q-31 0 -58 -13t-47.5 -34.5t-32 -50.5t-11.5 -60q0 -27 9.5 -50.5
t26.5 -41t40.5 -27t50.5 -9.5q32 0 59.5 12.5t48 34t32 49.5t11.5 59q0 28 -9.5 52t-27 41.5t-41 27.5t-51.5 10z" />
    <glyph glyph-name="c.superior" horiz-adv-x="377" 
d="M76 467q0 42 16 79.5t44 65.5t65.5 44.5t80.5 16.5q32 0 62.5 -10t53.5 -28l-8 -52q-48 42 -109 42q-32 0 -59.5 -12.5t-48 -33.5t-32.5 -49.5t-12 -59.5q0 -28 9.5 -52t27 -41.5t41 -27.5t51.5 -10q26 0 52.5 10t49.5 25l-8 -55q-45 -28 -96 -28q-38 0 -71 13t-57 36.5
t-38 55.5t-14 71z" />
    <glyph glyph-name="d.superior" horiz-adv-x="486" 
d="M247 291q-37 0 -68.5 13.5t-54 36.5t-35.5 55t-13 70q0 42 15.5 79.5t42.5 66t64 45t80 16.5q45 0 83.5 -21t57.5 -57l34 229h52l-78 -525h-52l9 61q-23 -33 -59 -51t-78 -18zM257 339q31 0 58 13t47 34.5t32 50t12 60.5q0 27 -9.5 50.5t-26.5 41t-40.5 27t-50.5 9.5
q-32 0 -59.5 -12.5t-48 -34t-32 -49.5t-11.5 -59q0 -28 9.5 -52t27 -41.5t41 -27.5t51.5 -10z" />
    <glyph glyph-name="e.superior" horiz-adv-x="434" 
d="M254 337q41 0 68.5 20.5t48.5 49.5l41 -24q-26 -41 -67.5 -66.5t-95.5 -25.5q-38 0 -69.5 12.5t-55 35.5t-36.5 55t-13 70q0 41 14.5 79t41 67t62.5 46t80 17q37 0 67.5 -13t52.5 -35.5t34 -54t12 -67.5q0 -8 -1 -18t-3 -19h-309q0 -29 10 -52.5t27.5 -40.5t41 -26.5
t49.5 -9.5zM270 628q-21 0 -42.5 -7.5t-40.5 -22.5t-33.5 -37.5t-21.5 -51.5h256q-1 53 -34 86t-84 33z" />
    <glyph glyph-name="f.superior" horiz-adv-x="256" 
d="M89 665h57l7 47q9 59 43 90t85 31q16 0 32 -3.5t27 -8.5l-7 -47q-22 11 -49 11q-32 0 -53 -19.5t-26 -57.5l-7 -43h104l-7 -46h-104l-47 -320h-53l48 320h-57z" />
    <glyph glyph-name="g.superior" horiz-adv-x="479" 
d="M377 364q-23 -32 -58.5 -49t-77.5 -17q-37 0 -68 13t-53.5 36t-35.5 54.5t-13 67.5q0 41 15.5 78t42.5 65t63.5 44.5t78.5 16.5q45 0 83 -21.5t57 -57.5l11 71h52l-52 -352q-12 -80 -62.5 -129.5t-137.5 -49.5q-55 0 -100.5 25.5t-66.5 77.5l44 26q15 -40 48 -61t78 -21
q65 0 101 40t45 101zM250 345q30 0 57 12.5t47.5 33.5t32 49t11.5 59q0 27 -9.5 50t-26.5 40t-40 26.5t-50 9.5q-32 0 -59 -12.5t-47 -33.5t-31.5 -49t-11.5 -58q0 -27 9.5 -50t26.5 -40.5t40 -27t51 -9.5z" />
    <glyph glyph-name="h.superior" horiz-adv-x="466" 
d="M133 299h-52l78 525h52l-32 -218q20 28 54 47.5t77 19.5q75 0 110 -44t24 -119l-32 -211h-52l31 208q8 56 -16.5 87t-80.5 31q-25 0 -47 -10t-39.5 -28t-29.5 -42.5t-16 -52.5z" />
    <glyph glyph-name="i.superior" horiz-adv-x="191" 
d="M142 773q0 15 10.5 25.5t25.5 10.5t24.5 -10t9.5 -24q0 -15 -10.5 -25.5t-25.5 -10.5t-24.5 10t-9.5 24zM81 299l54 366h52l-54 -366h-52z" />
    <glyph glyph-name="j.superior" horiz-adv-x="169" 
d="M104 255q-9 -60 -39 -90t-77 -30q-15 0 -26.5 3t-22.5 8l7 48q15 -10 37 -10q27 0 46 20t24 56l61 405h52zM121 773q0 15 10.5 25.5t25.5 10.5t24.5 -10t9.5 -24q0 -15 -10.5 -25.5t-25.5 -10.5t-24.5 10t-9.5 24z" />
    <glyph glyph-name="k.superior" horiz-adv-x="391" 
d="M164 510l193 155h67l-193 -157l154 -209h-63l-132 180l-35 -27l-22 -153h-52l78 525h52z" />
    <glyph glyph-name="l.superior" horiz-adv-x="192" 
d="M211 824l-78 -525h-52l78 525h52z" />
    <glyph glyph-name="m.superior" horiz-adv-x="697" 
d="M643 299h-52l31 212q8 53 -14 83.5t-67 30.5q-47 0 -81 -35t-42 -90l-30 -201h-52l32 211q8 54 -13.5 84.5t-67.5 30.5q-24 0 -45 -9.5t-37.5 -27t-27.5 -41.5t-15 -53l-29 -195h-52l55 366h52l-9 -59q17 30 49 48.5t71 18.5q45 0 75 -21t41 -59q19 33 55.5 56.5
t82.5 23.5q67 0 100 -42.5t22 -113.5z" />
    <glyph glyph-name="n.superior" unicode="&#x207f;" horiz-adv-x="466" 
d="M133 299h-52l55 366h52l-9 -59q20 28 54 47.5t77 19.5q75 0 110 -44t24 -119l-32 -211h-52l31 208q8 56 -16.5 87t-80.5 31q-25 0 -47 -10t-39.5 -28t-29.5 -42.5t-16 -52.5z" />
    <glyph glyph-name="o.superior" horiz-adv-x="460" 
d="M282 673q37 0 69.5 -13.5t56.5 -37t38 -55.5t14 -70q0 -42 -16 -79.5t-44 -65.5t-65 -44.5t-80 -16.5q-38 0 -70.5 13.5t-56.5 37t-38 56t-14 70.5q0 41 16 78.5t44 65.5t65.5 44.5t80.5 16.5zM279 625q-30 0 -57 -12t-47.5 -33t-33 -49t-12.5 -61q0 -28 9.5 -52
t26.5 -41.5t40 -27.5t51 -10q30 0 57 12t48 33t33.5 50t12.5 63q0 27 -9.5 50t-27 40.5t-41 27.5t-50.5 10z" />
    <glyph glyph-name="p.superior" horiz-adv-x="486" 
d="M58 144l78 521h52l-9 -61q23 33 59 51t78 18q37 0 68.5 -13.5t54 -36.5t35.5 -55.5t13 -69.5q0 -42 -15.5 -79.5t-42.5 -66t-64 -45t-80 -16.5q-45 0 -83.5 21t-57.5 57l-34 -225h-52zM306 625q-31 0 -58 -13t-47.5 -34.5t-32 -50.5t-11.5 -60q0 -27 9.5 -50.5t26.5 -41
t40.5 -27t50.5 -9.5q32 0 59.5 12.5t48 34t32 49.5t11.5 59q0 28 -9.5 52t-27 41.5t-41 27.5t-51.5 10z" />
    <glyph glyph-name="q.superior" horiz-adv-x="486" 
d="M247 291q-37 0 -68.5 13.5t-54 36.5t-35.5 55t-13 70q0 42 15.5 79.5t42.5 66t64 45t80 16.5q45 0 83.5 -21t57.5 -57l11 70h52l-78 -521h-52l32 216q-23 -33 -59 -51t-78 -18zM257 339q31 0 58 13t47 34.5t32 50t12 60.5q0 27 -9.5 50.5t-26.5 41t-40.5 27t-50.5 9.5
q-32 0 -59.5 -12.5t-48 -34t-32 -49.5t-11.5 -59q0 -28 9.5 -52t27 -41.5t41 -27.5t51.5 -10z" />
    <glyph glyph-name="r.superior" horiz-adv-x="278" 
d="M316 618h-6q-2 0 -5 0.5t-6 0.5q-54 0 -92 -41.5t-48 -105.5l-26 -173h-52l55 366h51l-11 -70q8 16 21.5 29.5t30.5 24t36 16.5t39 6q4 0 7.5 -0.5t6.5 -0.5h6z" />
    <glyph glyph-name="s.superior" horiz-adv-x="319" 
d="M104 414q4 -34 26 -55.5t56 -21.5q29 0 50.5 16t21.5 47q0 20 -14 33t-35 23l-40 19q-30 14 -52 36t-22 60q0 48 33 75t82 27q45 0 76 -25.5t40 -69.5l-46 -14q-7 30 -25 47.5t-46 17.5q-25 0 -44.5 -14t-19.5 -41q0 -19 14 -32t35 -24l39 -19q32 -16 54.5 -37.5
t22.5 -59.5q0 -27 -10.5 -47.5t-27.5 -34.5t-40 -21.5t-48 -7.5q-49 0 -85 29.5t-41 79.5z" />
    <glyph glyph-name="t.superior" horiz-adv-x="265" 
d="M212 771l-16 -106h105l-7 -46h-105l-32 -211q-5 -35 9.5 -52t44.5 -17q12 0 23.5 3t20.5 8l-7 -49q-10 -4 -22 -7t-29 -3q-51 0 -75.5 29.5t-16.5 83.5l32 215h-57l7 46h57l16 106h52z" />
    <glyph glyph-name="u.superior" horiz-adv-x="465" 
d="M409 665h52l-55 -366h-52l9 59q-20 -28 -54 -47.5t-77 -19.5q-75 0 -109.5 44t-23.5 119l32 211h52l-31 -208q-8 -56 16.5 -87t79.5 -31q25 0 47 10t39.5 28t29.5 42t16 53z" />
    <glyph glyph-name="v.superior" horiz-adv-x="394" 
d="M85 665h54l77 -296l165 296h57l-210 -366h-44z" />
    <glyph glyph-name="w.superior" horiz-adv-x="619" 
d="M426 299l-63 293l-151 -293h-41l-83 366h52l62 -294l151 294h39l64 -294l150 294h55l-194 -366h-41z" />
    <glyph glyph-name="x.superior" horiz-adv-x="378" 
d="M222 450l-131 -151h-60l166 188l-104 178h56l83 -142l125 142h60l-159 -180l110 -186h-57z" />
    <glyph glyph-name="y.superior" horiz-adv-x="394" 
d="M68 135q-12 0 -22.5 2.5t-18.5 6.5l7 44q12 -7 34 -7q24 0 41.5 16.5t36.5 49.5l34 59l-95 359h54l77 -301l168 301h55l-226 -397q-21 -36 -37.5 -61.5t-33 -41.5t-34.5 -23t-40 -7z" />
    <glyph glyph-name="z.superior" horiz-adv-x="348" 
d="M381 632l-268 -288h229l-7 -45h-300l5 33l267 288h-209l7 45h281z" />
    <glyph glyph-name="aalt.superior" horiz-adv-x="401" 
d="M347 299h-49l9 58q-23 -30 -57.5 -48t-76.5 -18q-48 0 -76.5 26t-28.5 71q0 51 36.5 82.5t104.5 39.5l121 13l3 22q5 35 -16.5 57.5t-62.5 22.5q-35 0 -61 -18t-42 -52l-46 19q20 47 59 73t92 26q66 0 100.5 -37t26.5 -95zM120 391q0 -25 18 -39.5t49 -14.5q25 0 47 9
t39.5 24t29 35t15.5 43l5 32l-109 -13q-45 -5 -69.5 -26t-24.5 -50z" />
    <glyph glyph-name="talt.superior" horiz-adv-x="222" 
d="M94 299l48 321h-67l7 45h67l16 106h52l-16 -106h76l-7 -45h-76l-48 -321h-52z" />
    <glyph glyph-name="ualt.superior" horiz-adv-x="450" 
d="M243 291q-77 0 -116 45t-27 125l31 204h53l-31 -203q-9 -57 15.5 -89.5t76.5 -32.5q48 0 81 32.5t41 89.5l31 203h53l-31 -207q-12 -80 -58.5 -123.5t-118.5 -43.5z" />
    <glyph glyph-name="isquare.superior" horiz-adv-x="191" 
d="M80 299l55 366h52l-55 -366h-52zM145 734l11 75h52l-11 -75h-52z" />
    <glyph glyph-name="jsquare.superior" horiz-adv-x="169" 
d="M104 255q-9 -60 -39 -90t-77 -30q-15 0 -26.5 3t-22.5 8l7 48q15 -10 37 -10q27 0 46 20t24 56l61 405h52zM124 734l12 75h52l-12 -75h-52z" />
    <glyph glyph-name="fi" unicode="&#xfb01;" horiz-adv-x="548" 
d="M62 481h75l12 76q11 76 54 115.5t107 39.5q22 0 42.5 -5t34.5 -11l-7 -55q-13 7 -30 11t-37 4q-42 0 -69 -26t-35 -77l-11 -72h138l-8 -54h-138l-64 -427h-60l63 427h-75zM502 481l-72 -481h-60l72 481h60zM535 630q0 -18 -13.5 -30.5t-30.5 -12.5t-29.5 12t-12.5 29
q0 18 13.5 31t30.5 13t29.5 -12.5t12.5 -29.5z" />
    <glyph glyph-name="fl" unicode="&#xfb02;" horiz-adv-x="548" 
d="M62 481h75l12 76q11 76 54 115.5t107 39.5q22 0 42.5 -5t34.5 -11l-7 -55q-13 7 -30 11t-37 4q-42 0 -69 -26t-35 -77l-11 -72h138l-8 -54h-138l-64 -427h-60l63 427h-75zM535 700l-105 -700h-60l105 700h60z" />
    <glyph glyph-name="ampersand" unicode="&#x26;" horiz-adv-x="695" 
d="M651 309l-145 -148l145 -161h-83l-104 117l-10 -10q-52 -51 -112 -84.5t-132 -33.5q-36 0 -68.5 11.5t-57 32.5t-38.5 51.5t-14 68.5q0 43 15.5 78.5t42.5 64.5t62.5 52t75.5 42q-34 41 -50.5 77.5t-16.5 75.5q0 35 13.5 65.5t37 53.5t54.5 36.5t67 13.5q31 0 58.5 -10.5
t48.5 -29.5t33 -46t12 -59q0 -33 -13 -60.5t-35 -51t-52.5 -44t-64.5 -39.5l148 -166l140 141zM215 46q61 0 107.5 29.5t92.5 76.5l10 10l-162 184q-31 -15 -61.5 -33t-54.5 -41t-38.5 -51t-14.5 -62q0 -24 9.5 -44.5t26 -36t38.5 -24t47 -8.5zM222 546q0 -34 17.5 -66.5
t45.5 -64.5q23 11 47.5 25.5t45 33t34 40t13.5 45.5q0 39 -25 68.5t-70 29.5q-22 0 -41.5 -9t-34.5 -24t-23.5 -35t-8.5 -43z" />
    <glyph glyph-name="acute" unicode="&#xb4;" horiz-adv-x="500" 
d="M217 578l112 137h73l-123 -137h-62z" />
    <glyph glyph-name="breve" unicode="&#x2d8;" horiz-adv-x="500" 
d="M313 623q33 0 56.5 23t28.5 63h48q-2 -30 -13 -54t-29 -41t-42 -26t-51 -9q-28 0 -51 10t-38.5 27.5t-23 41t-5.5 51.5h49q-2 -38 18 -62t53 -24z" />
    <glyph glyph-name="caron" unicode="&#x2c7;" horiz-adv-x="500" 
d="M455 715l-131 -137h-48l-90 137h61l59 -89l85 89h64z" />
    <glyph glyph-name="caronSlovak" horiz-adv-x="500" 
d="M251 550l50 161h63l-60 -161h-53z" />
    <glyph glyph-name="cedilla" unicode="&#xb8;" horiz-adv-x="500" 
d="M204 -55q34 -1 55 -22t21 -53q0 -38 -27 -62t-66 -24q-35 0 -58.5 21t-26.5 52h46q2 -13 13 -23.5t29 -10.5q20 0 33 13t13 32q0 17 -11.5 28.5t-29.5 11.5q-20 0 -37 -17l-38 29l61 81l47 -1l-46 -59q9 4 22 4z" />
    <glyph glyph-name="circumflex" unicode="&#x2c6;" horiz-adv-x="500" 
d="M166 578l131 137h48l90 -137h-61l-59 89l-85 -89h-64z" />
    <glyph glyph-name="commaaccent" unicode="&#xf6c3;" horiz-adv-x="500" 
d="M146 -209l42 78q-14 1 -23.5 10.5t-9.5 24.5q0 17 13 29t32 12q17 0 28.5 -11t11.5 -28q0 -10 -3.5 -18.5t-9.5 -19.5l-41 -77h-40z" />
    <glyph glyph-name="commaaccent.square" horiz-adv-x="500" 
d="M173 -58h60l-13 -90q-5 -37 -23 -58t-51 -23l5 35q13 2 21.5 12.5t11.5 31.5l1 7h-25z" />
    <glyph glyph-name="dieresis" unicode="&#xa8;" horiz-adv-x="500" 
d="M431 629q0 -17 -12 -29t-29 -12t-28 11t-11 28t12 29t29 12t28 -11t11 -28zM264 629q0 -17 -12 -29t-29 -12t-28 11t-11 28t12 29t29 12t28 -11t11 -28z" />
    <glyph glyph-name="dieresis.square" horiz-adv-x="500" 
d="M191 583l14 91h59l-14 -91h-59zM351 583l14 91h59l-14 -91h-59z" />
    <glyph glyph-name="dotaccent" unicode="&#x2d9;" horiz-adv-x="500" 
d="M267 628q0 17 13 30t30 13t29 -12t12 -29t-13 -30t-31 -13q-17 0 -28.5 12t-11.5 29z" />
    <glyph glyph-name="dotaccent.square" horiz-adv-x="500" 
d="M271 581l14 95h60l-14 -95h-60z" />
    <glyph glyph-name="grave" unicode="`" horiz-adv-x="500" 
d="M325 578l-84 137h69l71 -137h-56z" />
    <glyph glyph-name="hungarumlaut" unicode="&#x2dd;" horiz-adv-x="500" 
d="M150 576l105 136h67l-116 -136h-56zM300 576l105 136h67l-116 -136h-56z" />
    <glyph glyph-name="macron" unicode="&#xaf;" horiz-adv-x="500" 
d="M179 605l6 43h250l-6 -43h-250z" />
    <glyph glyph-name="ogonek" unicode="&#x2db;" horiz-adv-x="500" 
d="M298 0q-62 -23 -99 -53t-37 -62q0 -23 13.5 -33t35.5 -10q15 0 30.5 3.5t28.5 14.5l-7 -47q-14 -7 -31 -11t-35 -4q-40 0 -63 20.5t-23 55.5q0 45 37 78.5t96 56.5z" />
    <glyph glyph-name="ring" unicode="&#x2da;" horiz-adv-x="500" 
d="M404 652q0 -40 -28.5 -66t-67.5 -26q-38 0 -63.5 24.5t-25.5 60.5q0 41 28.5 67t68.5 26q36 0 62 -24t26 -62zM361 650q0 20 -13.5 34t-32.5 14t-36 -14t-17 -37q0 -20 13.5 -33.5t34.5 -13.5q19 0 35 14t16 36z" />
    <glyph glyph-name="tilde" unicode="&#x2dc;" horiz-adv-x="500" 
d="M155 591q4 48 29 70.5t60 22.5q25 0 41.5 -8.5t29.5 -18.5t25.5 -18.5t29.5 -8.5q20 0 32 14t14 37h44q-3 -48 -28.5 -70.5t-60.5 -22.5q-25 0 -41.5 8.5t-30 18.5t-26 18.5t-28.5 8.5q-21 0 -32.5 -14t-13.5 -37h-44v0z" />
    <glyph glyph-name="uni0312" unicode="&#x312;" horiz-adv-x="500" 
d="M353 719l-42 -78q14 -1 23.5 -10.5t9.5 -24.5q0 -17 -13 -29t-32 -12q-17 0 -28.5 11t-11.5 28q0 10 3.5 18.5t9.5 19.5l41 77h40z" />
    <glyph glyph-name="uni0312.square" horiz-adv-x="500" 
d="M327 568h-61l13 90q5 37 23.5 58t50.5 23l-5 -35q-12 -2 -21 -13t-12 -31l-1 -7h26z" />
    <glyph glyph-name="acute.cap" horiz-adv-x="500" 
d="M245 756l112 137h73l-123 -137h-62z" />
    <glyph glyph-name="breve.cap" horiz-adv-x="500" 
d="M341 803q33 0 56.5 23t28.5 63h48q-2 -30 -13 -54t-29 -41t-42 -26t-51 -9q-28 0 -51 10t-38.5 27.5t-23 41t-5.5 51.5h49q-2 -38 18 -62t53 -24z" />
    <glyph glyph-name="caron.cap" horiz-adv-x="500" 
d="M482 893l-131 -137h-48l-90 137h61l59 -89l85 89h64z" />
    <glyph glyph-name="circumflex.cap" horiz-adv-x="500" 
d="M193 756l131 137h48l90 -137h-61l-59 89l-85 -89h-64z" />
    <glyph glyph-name="dieresis.cap" horiz-adv-x="500" 
d="M460 827q0 -17 -12 -29t-29 -12t-28 11t-11 28t12 29t29 12t28 -11t11 -28zM293 827q0 -17 -12 -29t-29 -12t-28 11t-11 28t12 29t29 12t28 -11t11 -28z" />
    <glyph glyph-name="dieresiscap.square" horiz-adv-x="500" 
d="M221 782l13 88h59l-13 -88h-59zM381 782l13 88h59l-13 -88h-59z" />
    <glyph glyph-name="dotaccent.cap" horiz-adv-x="500" 
d="M296 826q0 17 13 30t30 13t29 -12t12 -29t-13 -30t-31 -13q-17 0 -28.5 12t-11.5 29z" />
    <glyph glyph-name="dotaccentcap.square" horiz-adv-x="500" 
d="M301 782l13 87h60l-13 -87h-60z" />
    <glyph glyph-name="grave.cap" horiz-adv-x="500" 
d="M352 756l-84 137h69l71 -137h-56z" />
    <glyph glyph-name="hungarumlaut.cap" horiz-adv-x="500" 
d="M175 756l105 137h67l-116 -137h-56zM325 756l105 137h67l-116 -137h-56z" />
    <glyph glyph-name="macron.cap" horiz-adv-x="500" 
d="M208 793l6 43h250l-6 -43h-250z" />
    <glyph glyph-name="ring.cap" horiz-adv-x="500" 
d="M427 830q0 -40 -28.5 -66t-67.5 -26q-38 0 -63.5 24.5t-25.5 60.5q0 41 28.5 67t68.5 26q36 0 62 -24t26 -62zM384 828q0 20 -13.5 34t-32.5 14t-36 -14t-17 -37q0 -20 13.5 -33.5t34.5 -13.5q19 0 35 14t16 36z" />
    <glyph glyph-name="tilde.cap" horiz-adv-x="500" 
d="M182 775q4 48 29 70.5t60 22.5q25 0 41.5 -8.5t29.5 -18.5t25.5 -18.5t29.5 -8.5q20 0 32 14t14 37h44q-3 -48 -28.5 -70.5t-60.5 -22.5q-25 0 -41.5 8.5t-30 18.5t-26 18.5t-28.5 8.5q-21 0 -32.5 -14t-13.5 -37h-44v0z" />
    <glyph glyph-name="period" unicode="." horiz-adv-x="223" 
d="M126 37q0 -20 -13.5 -33t-33.5 -13q-18 0 -30.5 13t-12.5 31q0 19 13.5 32.5t32.5 13.5q18 0 31 -13.5t13 -30.5z" />
    <glyph glyph-name="comma" unicode="," horiz-adv-x="224" 
d="M16 -103l54 100q-14 1 -24 11.5t-10 27.5q0 19 14 32t34 13q18 0 30.5 -12.5t12.5 -30.5q0 -11 -4 -20.5t-11 -21.5l-53 -99h-43z" />
    <glyph glyph-name="colon" unicode=":" horiz-adv-x="223" 
d="M182 411q0 -20 -13.5 -33t-33.5 -13q-18 0 -30.5 13t-12.5 31q0 19 13.5 32.5t32.5 13.5q18 0 31 -13.5t13 -30.5zM126 37q0 -20 -13.5 -33t-33.5 -13q-18 0 -30.5 13t-12.5 31q0 19 13.5 32.5t32.5 13.5q18 0 31 -13.5t13 -30.5z" />
    <glyph glyph-name="semicolon" unicode=";" horiz-adv-x="224" 
d="M183 411q0 -20 -13.5 -33t-33.5 -13q-18 0 -30.5 13t-12.5 31q0 19 13.5 32.5t32.5 13.5q18 0 31 -13.5t13 -30.5zM16 -103l54 100q-14 1 -24 11.5t-10 27.5q0 19 14 32t34 13q18 0 30.5 -12.5t12.5 -30.5q0 -11 -4 -20.5t-11 -21.5l-53 -99h-43z" />
    <glyph glyph-name="period.square" horiz-adv-x="222" 
d="M41 0l15 99h68l-15 -99h-68z" />
    <glyph glyph-name="comma.square" horiz-adv-x="222" 
d="M56 99h68l-18 -121q-12 -84 -82 -88l6 39q14 2 24 14.5t13 35.5l3 21h-29z" />
    <glyph glyph-name="colon.square" horiz-adv-x="222" 
d="M41 0l15 99h68l-15 -99h-68zM95 358l15 99h68l-15 -99h-68z" />
    <glyph glyph-name="semicolon.square" horiz-adv-x="222" 
d="M56 99h68l-18 -121q-12 -84 -82 -88l6 39q14 2 24 14.5t13 35.5l3 21h-29zM95 358l15 99h68l-15 -99h-68z" />
    <glyph glyph-name="ellipsis" unicode="&#x2026;" horiz-adv-x="735" 
d="M126 37q0 -20 -13.5 -33t-33.5 -13q-18 0 -30.5 13t-12.5 31q0 19 13.5 32.5t32.5 13.5q18 0 31 -13.5t13 -30.5zM638 37q0 -20 -13.5 -33t-33.5 -13q-18 0 -30.5 13t-12.5 31q0 19 13.5 32.5t32.5 13.5q18 0 31 -13.5t13 -30.5zM382 37q0 -20 -13.5 -33t-33.5 -13
q-18 0 -30.5 13t-12.5 31q0 19 13.5 32.5t32.5 13.5q18 0 31 -13.5t13 -30.5z" />
    <glyph glyph-name="ellipsis.square" horiz-adv-x="731" 
d="M41 0l15 99h68l-15 -99h-68zM549 0l15 99h69l-15 -99h-69zM295 0l15 99h68l-15 -99h-68z" />
    <glyph glyph-name="exclam" unicode="!" horiz-adv-x="238" 
d="M220 700l-83 -517h-54l73 517h64zM136 37q0 -20 -13.5 -33t-33.5 -13q-19 0 -31.5 13t-12.5 31q0 19 13.5 32.5t33.5 13.5q18 0 31 -13.5t13 -30.5z" />
    <glyph glyph-name="exclamdown" unicode="&#xa1;" horiz-adv-x="238" 
d="M20 -208l81 508h54l-71 -508h-64zM103 446q0 20 13.5 33t33.5 13q19 0 31.5 -13t12.5 -31q0 -19 -13.5 -32.5t-33.5 -13.5q-18 0 -31 13.5t-13 30.5z" />
    <glyph glyph-name="exclamdown.cap" horiz-adv-x="238" 
d="M51 0l82 517h54l-72 -517h-64zM136 664q0 20 13.5 33.5t33.5 13.5q18 0 31 -13.5t13 -30.5q0 -20 -13.5 -33t-33.5 -13q-18 0 -31 13t-13 30z" />
    <glyph glyph-name="question" unicode="?" horiz-adv-x="511" 
d="M283 37q0 -20 -13.5 -33t-33.5 -13q-19 0 -31.5 13t-12.5 31q0 19 13.5 32.5t33.5 13.5q18 0 31 -13.5t13 -30.5zM447 526q0 28 -10.5 51t-28.5 40t-42.5 26.5t-52.5 9.5q-32 0 -60 -12t-49.5 -32.5t-35 -48.5t-16.5 -61h-61q3 46 21.5 85t48.5 67.5t69 44.5t84 16
q41 0 77 -13t62.5 -36.5t41.5 -56t15 -70.5q0 -59 -29 -102.5t-86 -87.5q-16 -13 -34 -27.5t-33.5 -30.5t-26.5 -34t-14 -38l-5 -33h-61l6 40q6 42 37 80.5t79 73.5q47 35 75.5 70.5t28.5 78.5z" />
    <glyph glyph-name="questiondown" unicode="&#xbf;" horiz-adv-x="504" 
d="M299 300l-5 -30q-7 -42 -37.5 -80.5t-78.5 -73.5q-47 -35 -75.5 -70.5t-28.5 -78.5q0 -28 10.5 -51t28.5 -40t42.5 -26.5t52.5 -9.5q32 0 60 12t49.5 32.5t35 48.5t16.5 61h61q-3 -46 -21.5 -85t-48.5 -67.5t-69 -44.5t-84 -16q-41 0 -77 13t-62.5 36.5t-41.5 56
t-15 70.5q0 59 29 102.5t86 87.5q16 13 33.5 27.5t33 30t26.5 33.5t15 39l4 23h61zM236 446q0 20 13.5 33t33.5 13q19 0 31.5 -13t12.5 -31q0 -19 -13.5 -32.5t-33.5 -13.5q-18 0 -31 13.5t-13 30.5z" />
    <glyph glyph-name="questiondown.cap" horiz-adv-x="511" 
d="M105 176q0 -28 10.5 -51t28.5 -40t42.5 -26.5t52.5 -9.5q32 0 60 12t49.5 32.5t35 48.5t16.5 61h61q-3 -46 -21.5 -85t-48.5 -67.5t-69 -44.5t-84 -16q-41 0 -77 13t-62.5 36.5t-41.5 56t-15 70.5q0 59 29 102.5t86 87.5q16 13 33.5 27.5t33 31t27 34.5t14.5 38l5 30h61
l-6 -38q-7 -42 -37.5 -80.5t-78.5 -73.5q-47 -35 -75.5 -70.5t-28.5 -78.5zM268 664q0 20 13.5 33.5t33.5 13.5q18 0 31 -13.5t13 -30.5q0 -20 -13.5 -33t-33.5 -13q-18 0 -31 13t-13 30z" />
    <glyph glyph-name="exclam.square" horiz-adv-x="238" 
d="M220 700l-83 -517h-54l73 517h64zM130 97l-14 -97h-66l14 97h66z" />
    <glyph glyph-name="exclamdown.square" horiz-adv-x="238" 
d="M20 -208l81 508h54l-71 -508h-64zM188 481l-15 -97h-66l15 97h66z" />
    <glyph glyph-name="exclamdowncap.square" horiz-adv-x="238" 
d="M51 0l82 517h54l-72 -517h-64zM221 700l-15 -97h-66l15 97h66z" />
    <glyph glyph-name="question.square" horiz-adv-x="511" 
d="M447 526q0 28 -10.5 51t-28.5 40t-42.5 26.5t-52.5 9.5q-32 0 -60 -12t-49.5 -32.5t-35 -48.5t-16.5 -61h-61q3 46 21.5 85t48.5 67.5t69 44.5t84 16q41 0 77 -13t62.5 -36.5t41.5 -56t15 -70.5q0 -59 -29 -102.5t-86 -87.5q-16 -13 -34 -27.5t-33.5 -30.5t-26.5 -34
t-14 -38l-4 -33h-62l6 40q6 42 37 80.5t79 73.5q47 35 75.5 70.5t28.5 78.5zM273 97l-14 -97h-66l14 97h66z" />
    <glyph glyph-name="questiondown.square" horiz-adv-x="504" 
d="M299 300l-5 -30q-7 -42 -37.5 -80.5t-78.5 -73.5q-47 -35 -75.5 -70.5t-28.5 -78.5q0 -28 10.5 -51t28.5 -40t42.5 -26.5t52.5 -9.5q32 0 60 12t49.5 32.5t35 48.5t16.5 61h61q-3 -46 -21.5 -85t-48.5 -67.5t-69 -44.5t-84 -16q-41 0 -77 13t-62.5 36.5t-41.5 56
t-15 70.5q0 59 29 102.5t86 87.5q16 13 33.5 27.5t33 30t26.5 33.5t15 39l4 23h61zM246 384l14 97h66l-14 -97h-66z" />
    <glyph glyph-name="questiondowncap.square" horiz-adv-x="511" 
d="M279 603l14 97h66l-14 -97h-66zM105 176q0 -28 10.5 -51t28.5 -40t42.5 -26.5t52.5 -9.5q32 0 60 12t49.5 32.5t35 48.5t16.5 61h61q-3 -46 -21.5 -85t-48.5 -67.5t-69 -44.5t-84 -16q-41 0 -77 13t-62.5 36.5t-41.5 56t-15 70.5q0 59 29 102.5t86 87.5q16 13 33.5 27.5
t33 31t27 34.5t14.5 38l5 30h61l-6 -38q-7 -42 -37.5 -80.5t-78.5 -73.5q-47 -35 -75.5 -70.5t-28.5 -78.5z" />
    <glyph glyph-name="quoteleft" unicode="&#x2018;" horiz-adv-x="176" 
d="M200 704l-54 -100q14 -1 24 -12t10 -28q0 -18 -14 -31t-34 -13q-18 0 -30.5 12.5t-12.5 30.5q0 11 4 20.5t11 21.5l53 99h43z" />
    <glyph glyph-name="quoteright" unicode="&#x2019;" horiz-adv-x="176" 
d="M88 528l54 100q-14 1 -24 12t-10 28q0 18 14 31t34 13q18 0 30.5 -12.5t12.5 -30.5q0 -11 -4 -20.5t-11 -21.5l-53 -99h-43z" />
    <glyph glyph-name="quotedblleft" unicode="&#x201c;" horiz-adv-x="311" 
d="M200 704l-54 -100q14 -1 24 -12t10 -28q0 -18 -14 -31t-34 -13q-18 0 -30.5 12.5t-12.5 30.5q0 11 4 20.5t11 21.5l53 99h43zM335 704l-54 -100q14 -1 24 -12t10 -28q0 -18 -14 -31t-34 -13q-18 0 -30.5 12.5t-12.5 30.5q0 11 4 20.5t11 21.5l53 99h43z" />
    <glyph glyph-name="quotedblright" unicode="&#x201d;" horiz-adv-x="311" 
d="M88 528l54 100q-14 1 -24 12t-10 28q0 18 14 31t34 13q18 0 30.5 -12.5t12.5 -30.5q0 -11 -4 -20.5t-11 -21.5l-53 -99h-43zM223 528l54 100q-14 1 -24 12t-10 28q0 18 14 31t34 13q18 0 30.5 -12.5t12.5 -30.5q0 -11 -4 -20.5t-11 -21.5l-53 -99h-43z" />
    <glyph glyph-name="quotesinglbase" unicode="&#x201a;" horiz-adv-x="176" 
d="M-7 -103l54 100q-14 1 -24 12t-10 28q0 18 14 31t34 13q18 0 30.5 -12.5t12.5 -30.5q0 -11 -4 -20.5t-11 -21.5l-53 -99h-43z" />
    <glyph glyph-name="quotedblbase" unicode="&#x201e;" horiz-adv-x="311" 
d="M-7 -103l54 100q-14 1 -24 12t-10 28q0 18 14 31t34 13q18 0 30.5 -12.5t12.5 -30.5q0 -11 -4 -20.5t-11 -21.5l-53 -99h-43zM128 -103l54 100q-14 1 -24 12t-10 28q0 18 14 31t34 13q18 0 30.5 -12.5t12.5 -30.5q0 -11 -4 -20.5t-11 -21.5l-53 -99h-43z" />
    <glyph glyph-name="reversequoteleft" horiz-adv-x="176" 
d="M138 529l-28 101q-2 8 -4 17t-2 19q0 19 13.5 32.5t33.5 13.5q19 0 31.5 -12.5t12.5 -29.5q0 -18 -12.5 -30t-29.5 -12h-4l28 -99h-39z" />
    <glyph glyph-name="reversequotedblleft" horiz-adv-x="311" 
d="M138 529l-28 101q-2 8 -4 17t-2 19q0 19 13.5 32.5t33.5 13.5q19 0 31.5 -12.5t12.5 -29.5q0 -18 -12.5 -30t-29.5 -12h-4l28 -99h-39zM273 529l-28 101q-2 8 -4 17t-2 19q0 19 13.5 32.5t33.5 13.5q19 0 31.5 -12.5t12.5 -29.5q0 -18 -12.5 -30t-29.5 -12h-4l28 -99h-39
z" />
    <glyph glyph-name="quoteleft.square" horiz-adv-x="176" 
d="M157 497h-68l18 121q12 83 82 87l-6 -39q-14 -2 -24 -14t-13 -35l-3 -22h29z" />
    <glyph glyph-name="quoteright.square" horiz-adv-x="176" 
d="M127 700h68l-18 -121q-12 -83 -82 -87l6 39q14 2 24 14t13 35l3 22h-29z" />
    <glyph glyph-name="quotedblleft.square" horiz-adv-x="303" 
d="M157 497h-68l18 121q12 83 82 87l-6 -39q-14 -2 -24 -14t-13 -35l-3 -22h29zM284 497h-68l18 121q12 83 82 87l-6 -39q-14 -2 -24 -14t-13 -35l-3 -22h29z" />
    <glyph glyph-name="quotedblright.square" horiz-adv-x="303" 
d="M127 700h68l-18 -121q-12 -83 -82 -87l6 39q14 2 24 14t13 35l3 22h-29zM254 700h68l-18 -121q-12 -83 -82 -87l6 39q14 2 24 14t13 35l3 22h-29z" />
    <glyph glyph-name="quotesinglbase.square" horiz-adv-x="178" 
d="M34 98h68l-18 -121q-12 -83 -82 -87l6 39q14 2 24 14t13 35l3 22h-29z" />
    <glyph glyph-name="quotedblbase.square" horiz-adv-x="305" 
d="M34 98h68l-18 -121q-12 -83 -82 -87l6 39q14 2 24 14t13 35l3 22h-29zM161 98h68l-18 -121q-12 -83 -82 -87l6 39q14 2 24 14t13 35l3 22h-29z" />
    <glyph glyph-name="reversequoteleft.square" horiz-adv-x="177" 
d="M176 602h-29l-3 -25q-3 -23 3 -34t20 -13l-6 -38q-35 2 -48 28.5t-7 66.5l17 113h68z" />
    <glyph glyph-name="reversequotedblleft.square" horiz-adv-x="304" 
d="M176 602h-29l-3 -25q-3 -23 3 -34t20 -13l-6 -38q-35 2 -48 28.5t-7 66.5l17 113h68zM303 602h-29l-3 -25q-3 -23 3 -34t20 -13l-6 -38q-35 2 -48 28.5t-7 66.5l17 113h68z" />
    <glyph glyph-name="guilsinglleft" unicode="&#x2039;" horiz-adv-x="271" 
d="M43 263l163 200h63l-163 -203l102 -201h-61z" />
    <glyph glyph-name="guilsinglright" unicode="&#x203a;" horiz-adv-x="271" 
d="M233 258l-161 -199h-64l163 204l-102 200h61z" />
    <glyph glyph-name="guillemotleft" unicode="&#xab;" horiz-adv-x="428" 
d="M43 263l163 200h63l-163 -203l102 -201h-61zM200 263l162 200h64l-164 -204l103 -200h-62z" />
    <glyph glyph-name="guillemotright" unicode="&#xbb;" horiz-adv-x="429" 
d="M233 259l-161 -200h-64l163 205l-102 199h61zM391 258l-161 -199h-65l164 204l-102 200h60z" />
    <glyph glyph-name="guilsinglleft.cap" horiz-adv-x="271" 
d="M56 347l163 200h63l-163 -203l102 -201h-61z" />
    <glyph glyph-name="guilsinglright.cap" horiz-adv-x="271" 
d="M242 342l-161 -199h-64l163 204l-102 200h61z" />
    <glyph glyph-name="guillemotleft.cap" horiz-adv-x="428" 
d="M56 347l163 200h63l-163 -203l102 -201h-61zM213 347l162 200h64l-164 -204l103 -200h-62z" />
    <glyph glyph-name="guillemotright.cap" horiz-adv-x="429" 
d="M242 343l-161 -200h-64l163 205l-102 199h61zM400 342l-161 -199h-65l164 204l-102 200h60z" />
    <glyph glyph-name="slash" unicode="/" horiz-adv-x="428" 
d="M4 -100h-62l495 865h62z" />
    <glyph glyph-name="backslash" unicode="\" horiz-adv-x="428" 
d="M85 765h59l240 -865h-59z" />
    <glyph glyph-name="bar" unicode="|" horiz-adv-x="253" 
d="M39 -156l138 921h58l-138 -921h-58z" />
    <glyph glyph-name="doublebar" horiz-adv-x="397" 
d="M39 -156l138 921h58l-138 -921h-58zM183 -156l138 921h58l-138 -921h-58z" />
    <glyph glyph-name="brokenbar" unicode="&#xa6;" horiz-adv-x="253" 
d="M120 385l57 380h58l-57 -380h-58zM154 228l-57 -384h-58l57 384h58z" />
    <glyph glyph-name="bullet" unicode="&#x2022;" horiz-adv-x="251" 
d="M62 260q0 29 21.5 49.5t48.5 20.5q28 0 47.5 -19.5t19.5 -46.5q0 -29 -21 -49.5t-50 -20.5q-26 0 -46 20t-20 46z" />
    <glyph glyph-name="slash.cap" horiz-adv-x="428" 
d="M476 724l-429 -748h-62l429 748h62z" />
    <glyph glyph-name="backslash.cap" horiz-adv-x="428" 
d="M304 -24l-208 748h59l208 -748h-59z" />
    <glyph glyph-name="bar.cap" horiz-adv-x="253" 
d="M58 -24l112 748h58l-112 -748h-58z" />
    <glyph glyph-name="doublebar.cap" horiz-adv-x="397" 
d="M58 -24l112 748h58l-112 -748h-58zM202 -24l112 748h58l-112 -748h-58z" />
    <glyph glyph-name="brokenbar.cap" horiz-adv-x="253" 
d="M126 431l44 293h58l-44 -293h-58zM161 274l-45 -298h-58l45 298h58z" />
    <glyph glyph-name="bullet.cap" horiz-adv-x="251" 
d="M75 343q0 29 21.5 49.5t48.5 20.5q28 0 47.5 -19.5t19.5 -46.5q0 -29 -21 -49.5t-50 -20.5q-26 0 -46 20t-20 46z" />
    <glyph glyph-name="nonbreakingspace" unicode="&#xa0;" horiz-adv-x="250" 
 />
    <glyph glyph-name="thinspace" unicode="&#x2009;" horiz-adv-x="120" 
 />
    <glyph glyph-name="periodcentered" unicode="&#xb7;" horiz-adv-x="222" 
d="M161 261q0 -20 -13.5 -33t-33.5 -13q-18 0 -30.5 13t-12.5 31q0 19 13.5 32.5t32.5 13.5q18 0 31 -13.5t13 -30.5z" />
    <glyph glyph-name="periodcentered.square" horiz-adv-x="223" 
d="M73 211l15 99h68l-15 -99h-68z" />
    <glyph glyph-name="hyphen" unicode="-" horiz-adv-x="423" 
d="M69 289h299l-8 -55h-299z" />
    <glyph glyph-name="endash" unicode="&#x2013;" horiz-adv-x="560" 
d="M69 287h436l-8 -51h-436z" />
    <glyph glyph-name="emdash" unicode="&#x2014;" horiz-adv-x="860" 
d="M69 287h736l-8 -51h-736z" />
    <glyph glyph-name="figuredash" unicode="&#x2012;" 
d="M77 287h460l-8 -51h-460z" />
    <glyph glyph-name="periodcentered.cap" horiz-adv-x="222" 
d="M173 345q0 -20 -13.5 -33t-33.5 -13q-18 0 -30.5 13t-12.5 31q0 19 13.5 32.5t32.5 13.5q18 0 31 -13.5t13 -30.5z" />
    <glyph glyph-name="periodcenteredcap.square" horiz-adv-x="223" 
d="M85 295l15 99h68l-15 -99h-68z" />
    <glyph glyph-name="hyphen.cap" horiz-adv-x="423" 
d="M82 373h299l-8 -55h-299z" />
    <glyph glyph-name="endash.cap" horiz-adv-x="560" 
d="M82 371h436l-8 -51h-436z" />
    <glyph glyph-name="emdash.cap" horiz-adv-x="860" 
d="M82 371h736l-8 -51h-736z" />
    <glyph glyph-name="figuredash.cap" horiz-adv-x="599" 
d="M90 371h460l-8 -51h-460z" />
    <glyph glyph-name="parenleft" unicode="(" horiz-adv-x="299" 
d="M58 203q0 163 64.5 302t175.5 248h64q-118 -119 -180.5 -256.5t-62.5 -292.5q0 -99 26 -194.5t78 -174.5h-60q-25 36 -44.5 80t-33 92t-20.5 98t-7 98z" />
    <glyph glyph-name="parenright" unicode=")" horiz-adv-x="299" 
d="M257 385q0 -163 -64 -302t-176 -248h-64q118 119 180.5 256.5t62.5 292.5q0 99 -26 194.5t-78 174.5h60q25 -36 44.5 -80t33 -92t20.5 -98t7 -98z" />
    <glyph glyph-name="bracketleft" unicode="[" horiz-adv-x="311" 
d="M158 753h214l-7 -50h-157l-123 -818h157l-7 -50h-214z" />
    <glyph glyph-name="bracketright" unicode="]" horiz-adv-x="311" 
d="M168 -165h-214l7 50h157l123 818h-157l7 50h214z" />
    <glyph glyph-name="braceleft" unicode="{" horiz-adv-x="347" 
d="M142 24q-16 -77 9.5 -109t83.5 -32q18 0 39 2l-7 -48q-23 -3 -41 -3q-83 0 -121 45.5t-18 146.5l27 139q5 26 0.5 45t-15.5 31.5t-27 19t-34 8.5l7 50q19 1 37 7.5t32.5 19t24.5 31.5t13 45l16 147q11 101 58.5 142.5t130.5 41.5q18 0 46 -3l-7 -48q-18 2 -36 2
q-58 0 -93.5 -31.5t-43.5 -108.5l-15 -146q-5 -54 -31 -84.5t-66 -42.5q36 -14 53 -44.5t6 -83.5z" />
    <glyph glyph-name="braceright" unicode="}" horiz-adv-x="347" 
d="M221 563q16 77 -9.5 109t-83.5 32q-18 0 -39 -2l7 48q23 3 41 3q83 0 121 -45.5t18 -146.5l-27 -139q-5 -26 -0.5 -45t15.5 -31.5t27 -19t34 -8.5l-7 -50q-19 -1 -37 -7.5t-32.5 -19t-24.5 -31.5t-13 -45l-16 -147q-11 -101 -58.5 -142.5t-130.5 -41.5q-18 0 -46 3l7 48
q18 -2 36 -2q58 0 93.5 31.5t43.5 108.5l15 146q5 54 31 84.5t66 42.5q-36 14 -53 44.5t-6 83.5z" />
    <glyph glyph-name="anglebracketleft" unicode="&#x3008;" horiz-adv-x="303" 
d="M33 296l271 457h61l-271 -461l133 -457h-58z" />
    <glyph glyph-name="anglebracketright" unicode="&#x3009;" horiz-adv-x="302" 
d="M284 292l-271 -457h-61l271 461l-133 457h58z" />
    <glyph glyph-name="parenleft.cap" horiz-adv-x="298" 
d="M67 275q0 133 57.5 256t163.5 222h64q-110 -107 -167 -227.5t-57 -245.5q0 -88 25 -177.5t77 -162.5h-59q-51 68 -77.5 156.5t-26.5 178.5z" />
    <glyph glyph-name="parenright.cap" horiz-adv-x="298" 
d="M263 418q0 -133 -57 -256t-164 -222h-64q110 107 167 227.5t57 245.5q0 88 -25.5 177.5t-76.5 162.5h59q51 -68 77.5 -156.5t26.5 -178.5z" />
    <glyph glyph-name="bracketleft.cap" horiz-adv-x="311" 
d="M159 753h214l-8 -50h-157l-107 -713h157l-7 -50h-214z" />
    <glyph glyph-name="bracketright.cap" horiz-adv-x="311" 
d="M184 -60h-214l7 50h157l107 713h-157l8 50h214z" />
    <glyph glyph-name="braceleft.cap" horiz-adv-x="348" 
d="M162 130q-17 -77 9 -109t84 -32q18 0 39 2l-7 -48q-23 -3 -41 -3q-83 0 -121 45.5t-18 146.5l17 86q5 26 0.5 45t-15.5 31.5t-27 19t-34 8.5l7 50q19 1 37 7.5t32.5 19t24.5 31.5t13 45l10 94q10 101 58 142.5t131 41.5q18 0 46 -3l-7 -48q-18 2 -36 2q-58 0 -93.5 -31.5
t-43.5 -108.5l-9 -93q-5 -54 -31 -84.5t-66 -42.5q36 -14 53 -44.5t6 -83.5z" />
    <glyph glyph-name="braceright.cap" horiz-adv-x="348" 
d="M219 563q17 77 -9 109t-84 32q-18 0 -39 -2l7 48q23 3 41 3q83 0 121 -45.5t18 -146.5l-17 -86q-5 -26 -0.5 -45t15.5 -31.5t27 -19t34 -8.5l-7 -50q-19 -1 -37 -7.5t-32.5 -19t-24.5 -31.5t-13 -45l-10 -94q-10 -101 -58 -142.5t-131 -41.5q-18 0 -46 3l7 48
q18 -2 36 -2q58 0 93.5 31.5t43.5 108.5l9 93q5 54 31 84.5t66 42.5q-36 14 -53 44.5t-6 83.5z" />
    <glyph glyph-name="anglebracketleft.cap" horiz-adv-x="296" 
d="M41 348l240 405h61l-240 -409l118 -404h-58z" />
    <glyph glyph-name="anglebracketright.cap" horiz-adv-x="296" 
d="M44 -60h-62l242 409l-117 404h56l122 -410z" />
    <glyph glyph-name="asterisk" unicode="*" horiz-adv-x="400" 
d="M203 537l-117 54l22 47l118 -55l20 130l52 -6l-22 -130l130 26l7 -51l-130 -24l59 -115l-46 -26l-59 114l-92 -96l-36 36z" />
    <glyph glyph-name="dagger" unicode="&#x2020;" horiz-adv-x="445" 
d="M75 447h149l38 253h59l-38 -253h149l-8 -54h-149l-75 -501h-59l75 501h-149z" />
    <glyph glyph-name="daggerdbl" unicode="&#x2021;" horiz-adv-x="445" 
d="M78 468h149l35 232h59l-35 -232h149l-8 -54h-149l-34 -227h149l-8 -54h-149l-36 -241h-59l36 241h-149l8 54h149l34 227h-149z" />
    <glyph glyph-name="section" unicode="&#xa7;" horiz-adv-x="466" 
d="M371 42q0 -35 -13 -63.5t-36.5 -49t-54.5 -32t-67 -11.5t-67 11t-53 30.5t-34.5 47.5t-12.5 62h54q2 -46 34 -73.5t80 -27.5q50 0 82.5 28.5t32.5 75.5q0 29 -16.5 53t-48.5 39l-79 37q-60 28 -89 61.5t-29 78.5q0 51 33 85.5t83 50.5q-32 24 -44 52.5t-12 58.5
q0 34 13 63t36.5 49.5t54.5 32t67 11.5t67 -11t53 -30.5t34.5 -47.5t12.5 -62h-54q-2 46 -34 73.5t-80 27.5q-50 0 -82.5 -28.5t-32.5 -75.5q0 -29 16.5 -53t48.5 -39l79 -37q60 -28 89 -61.5t29 -78.5q0 -51 -33 -85.5t-83 -50.5q32 -24 44 -52.5t12 -58.5zM268 181
q46 10 76.5 35.5t30.5 67.5q0 61 -85 100l-73 33q-46 -10 -76.5 -35.5t-30.5 -67.5q0 -61 85 -100z" />
    <glyph glyph-name="paragraph" unicode="&#xb6;" horiz-adv-x="536" 
d="M236 358h-4q-35 0 -64.5 11t-51.5 31t-34 49t-12 65q0 44 15.5 78.5t41.5 58.5t61.5 36.5t74.5 12.5h311l-7 -49h-71l-114 -759h-52l114 759h-113l-114 -759h-51z" />
    <glyph glyph-name="asciicircum" unicode="^" horiz-adv-x="447" 
d="M428 399h-58l-86 237l-155 -237h-63l200 301h51z" />
    <glyph glyph-name="asciitilde" unicode="~" horiz-adv-x="496" 
d="M45 207q1 26 11 47t26.5 36t37.5 23t44 8q36 0 59 -11t40.5 -24t34 -24t41.5 -11q29 0 47 19t20 47h54q-2 -26 -12 -47t-26 -36t-37 -23t-45 -8q-36 0 -58.5 11t-40 24t-34.5 24t-41 11q-29 0 -47 -19t-20 -47h-54z" />
    <glyph glyph-name="underscore" unicode="_" horiz-adv-x="480" 
d="M-26 -47h446l-7 -49h-446z" />
    <glyph glyph-name="quotesingle" unicode="'" horiz-adv-x="160" 
d="M84 433l32 267h65l-48 -267h-49z" />
    <glyph glyph-name="quotedbl" unicode="&#x22;" horiz-adv-x="292" 
d="M84 433l32 267h65l-48 -267h-49zM216 433l32 267h65l-48 -267h-49z" />
    <glyph glyph-name="at" unicode="@" horiz-adv-x="873" 
d="M785 331q0 59 -22 108.5t-61.5 85.5t-93 56t-116.5 20q-77 0 -146.5 -27t-122 -75.5t-83.5 -116.5t-31 -150q0 -75 25.5 -134t69 -99.5t102 -61.5t125.5 -21q68 0 132.5 19.5t110.5 51.5l23 -42q-24 -18 -55 -32.5t-66 -25t-72.5 -16t-74.5 -5.5q-78 0 -146.5 24.5
t-119 71t-80 113.5t-29.5 153q0 94 35.5 171.5t96.5 133t141 86.5t169 31q73 0 135.5 -24t108.5 -66t72 -99.5t26 -125.5q0 -61 -15.5 -110t-41.5 -84t-59 -54.5t-67 -19.5q-24 0 -41 7t-27.5 19t-14.5 27.5t-3 30.5q-26 -43 -68 -64t-88 -21q-36 0 -65.5 13t-50.5 36
t-33 55t-12 70q0 44 16.5 82.5t44.5 67t65 45t78 16.5q53 0 89.5 -26.5t50.5 -62.5l15 80h50l-47 -248q-7 -37 3.5 -58.5t41.5 -21.5q22 0 44.5 16t40.5 44.5t29.5 68.5t11.5 88zM422 113q29 0 56.5 12.5t49 35t34.5 52t13 64.5q0 27 -8.5 50t-23.5 40t-37 27t-49 10
q-30 0 -58 -13t-49 -34.5t-33.5 -51t-12.5 -62.5q0 -28 8.5 -52t24.5 -41t37.5 -27t47.5 -10z" />
    <glyph glyph-name="at.cap" horiz-adv-x="865" 
d="M798 421q0 59 -22 108.5t-61.5 85.5t-93 56t-116.5 20q-77 0 -146.5 -27t-122 -75.5t-83.5 -116.5t-31 -150q0 -75 25.5 -134t69 -99.5t102 -61.5t125.5 -21q68 0 132.5 19.5t110.5 51.5l23 -42q-24 -18 -55 -32.5t-66 -25t-72.5 -16t-74.5 -5.5q-78 0 -146.5 24.5
t-119 71t-80 113.5t-29.5 153q0 94 35.5 171.5t96.5 133t141 86.5t169 31q73 0 135.5 -24t108.5 -66t72 -99.5t26 -125.5q0 -61 -15.5 -110t-41.5 -84t-59 -54.5t-67 -19.5q-24 0 -41 7t-27.5 19t-14.5 27.5t-3 30.5q-26 -43 -68 -64t-88 -21q-36 0 -65.5 13t-50.5 36
t-33 55t-12 70q0 44 16.5 82.5t44.5 67t65 45t78 16.5q53 0 89.5 -26.5t50.5 -62.5l15 80h50l-47 -248q-7 -37 3.5 -58.5t41.5 -21.5q22 0 44.5 16t40.5 44.5t29.5 68.5t11.5 88zM435 203q29 0 56.5 12.5t49 35t34.5 52t13 64.5q0 27 -8.5 50t-23.5 40t-37 27t-49 10
q-30 0 -58 -13t-49 -34.5t-33.5 -51t-12.5 -62.5q0 -28 8.5 -52t24.5 -41t37.5 -27t47.5 -10z" />
    <glyph glyph-name="copyright" unicode="&#xa9;" horiz-adv-x="817" 
d="M72 350q0 75 28 141t76 115t112 77.5t136 28.5t136 -28.5t112 -77.5t76 -115t28 -141t-28 -141t-76 -115t-112 -77.5t-136 -28.5t-136 28.5t-112 77.5t-76 115t-28 141zM128 350q0 -64 23.5 -120t63.5 -98t94 -66.5t115 -24.5t115 24.5t94 66.5t63.5 98t23.5 120
t-23.5 120t-63.5 98t-94 66.5t-115 24.5t-115 -24.5t-94 -66.5t-63.5 -98t-23.5 -120zM244 349q0 40 14.5 76t41 62t62.5 41.5t79 15.5q31 0 59.5 -9.5t51.5 -26.5v-53q-26 18 -53 28t-58 10q-30 0 -56 -11.5t-45 -31t-30 -45.5t-11 -56q0 -29 11 -55t30 -45.5t45 -30.5
t56 -11q32 0 60.5 10.5t51.5 27.5v-54q-23 -17 -51.5 -26t-59.5 -9q-44 0 -80.5 15t-62.5 41.5t-40.5 61.5t-14.5 75z" />
    <glyph glyph-name="registered" unicode="&#xae;" horiz-adv-x="817" 
d="M561 426q0 -41 -25.5 -68t-65.5 -35h-3l115 -158h-64l-107 151h-47v-151h-54v370h126q56 0 90.5 -29t34.5 -80zM506 425q0 29 -20 45t-52 16h-70v-122h70q32 0 52 16t20 45zM72 350q0 75 28 141t76 115t112 77.5t136 28.5t136 -28.5t112 -77.5t76 -115t28 -141t-28 -141
t-76 -115t-112 -77.5t-136 -28.5t-136 28.5t-112 77.5t-76 115t-28 141zM128 350q0 -64 23.5 -120t63.5 -98t94 -66.5t115 -24.5t115 24.5t94 66.5t63.5 98t23.5 120t-23.5 120t-63.5 98t-94 66.5t-115 24.5t-115 -24.5t-94 -66.5t-63.5 -98t-23.5 -120z" />
    <glyph glyph-name="registered.superior" horiz-adv-x="466" 
d="M464 507q0 -40 -15 -75t-41 -61.5t-60 -41.5t-73 -15t-73 15t-60 41.5t-41 61.5t-15 75t15 75t41 61t60 41.5t73 15.5t73 -15.5t60 -41.5t41 -61t15 -75zM423 507q0 32 -11.5 60t-32 49t-47.5 33.5t-57 12.5t-57 -12.5t-47.5 -33.5t-32 -49t-11.5 -60t11.5 -60t32 -49
t47.5 -33.5t57 -12.5t57 12.5t47.5 33.5t32 49t11.5 60zM282 605q30 0 48 -15.5t18 -43.5q0 -22 -13 -35.5t-33 -17.5l56 -80h-43l-50 74h-16v-74h-35v192h68zM249 519h31q31 0 31 27t-31 27h-31v-54z" />
    <glyph glyph-name="trademark" unicode="&#x2122;" horiz-adv-x="785" 
d="M90 700h260l-7 -46h-106l-44 -296h-48l44 296h-106zM793 700l-51 -342h-47l39 261l-162 -260h-32l-85 260l-39 -261h-47l51 342h57l88 -275l169 275h59z" />
    <glyph glyph-name="Euro" unicode="&#x20ac;" horiz-adv-x="601" 
d="M430 251h-259q9 -44 28.5 -80.5t48.5 -62.5t65.5 -41t78.5 -15q37 0 72.5 10t68.5 28l-9 -61q-31 -16 -65.5 -24.5t-69.5 -8.5q-54 0 -101 19t-83.5 52.5t-61.5 80.5t-34 103h-93l7 50h81v13q0 35 6 70h-74l7 50h80q17 53 48 99.5t73 81t93 54.5t108 20q45 0 88.5 -12.5
t81.5 -37.5l-9 -60q-71 54 -163 54q-45 0 -85 -15.5t-73 -42.5t-58.5 -63t-40.5 -78h270l-7 -50h-277q-7 -31 -7 -68v-15h273z" />
    <glyph glyph-name="dollar" unicode="$" horiz-adv-x="508" 
d="M196 5q-66 13 -109.5 59t-56.5 119l57 16q11 -53 41 -89.5t76 -47.5l41 275l-26 14q-56 30 -84 69.5t-28 90.5q0 39 14.5 71.5t40 56t60 36t75.5 12.5h1l13 89h49l-14 -95q54 -13 90.5 -52t48.5 -99l-56 -17q-8 42 -31 71.5t-61 40.5l-37 -248l37 -19q117 -60 117 -162
q0 -44 -16.5 -80t-45 -61.5t-66.5 -39.5t-82 -14l-14 -97h-49zM291 314l-38 -257q29 1 54.5 11t44.5 27.5t30 42t11 53.5q0 68 -87 115zM167 516q0 -71 84 -114l4 -2l34 231q-51 -2 -86.5 -33t-35.5 -82z" />
    <glyph glyph-name="cent" unicode="&#xa2;" horiz-adv-x="476" 
d="M232 111q-36 9 -67 28t-53 46.5t-34.5 63t-12.5 76.5q0 50 18.5 95t50.5 79.5t75.5 56.5t93.5 25l16 106h48l-16 -107q66 -8 117 -46l-8 -58q-26 20 -55.5 33t-62.5 17l-55 -367h3q34 0 67.5 12.5t62.5 30.5l-10 -62q-56 -35 -122 -35h-9l-16 -110h-48zM125 328
q0 -59 31.5 -103t83.5 -59l54 359q-36 -5 -67 -22.5t-53.5 -44t-35.5 -60t-13 -70.5z" />
    <glyph glyph-name="sterling" unicode="&#xa3;" horiz-adv-x="584" 
d="M171 477q7 46 24.5 85t45 67.5t66 44t86.5 15.5q41 0 76.5 -14t61 -39.5t39 -62.5t10.5 -83h-59q4 65 -32.5 103.5t-97.5 38.5q-36 0 -63.5 -12.5t-47 -34.5t-31.5 -51.5t-17 -63.5l-16 -110h192l-8 -53h-193l-23 -159q-6 -41 -19 -62t-27 -29h370l-9 -57h-481l9 57h18
q26 0 47.5 21t29.5 72l23 157h-81l8 53h82z" />
    <glyph glyph-name="florin" unicode="&#x192;" horiz-adv-x="473" 
d="M290 398h133l-8 -54h-139l-98 -361q-20 -75 -62.5 -111.5t-104.5 -36.5q-24 0 -44 4t-34 11l8 56q12 -6 29 -10.5t35 -4.5q88 0 115 100l96 353h-108l8 54h114l47 171q20 75 62.5 111.5t104.5 36.5q24 0 44 -4.5t35 -11.5l-9 -58q-12 7 -29.5 12.5t-35.5 5.5
q-42 0 -71 -24.5t-43 -75.5z" />
    <glyph glyph-name="yen" unicode="&#xa5;" horiz-adv-x="594" 
d="M264 231l12 80h-181l8 49h154l-170 324h68l160 -308l253 308h71l-268 -324h155l-8 -49h-181l-12 -80h181l-7 -49h-181l-27 -182h-61l27 182h-181l7 49h181z" />
    <glyph glyph-name="numbersign" unicode="#" horiz-adv-x="645" 
d="M536 495h107l-7 -48h-114l-59 -201h112l-7 -48h-119l-57 -198h-55l57 198h-198l-57 -198h-55l57 198h-107l7 48h114l59 201h-112l7 48h119l56 192h55l-56 -192h198l56 192h55zM210 246h198l59 201h-198z" />
    <glyph glyph-name="zero" unicode="0" horiz-adv-x="669" 
d="M380 698q63 0 109.5 -23.5t77 -63.5t46 -94t15.5 -115q0 -46 -8 -94.5t-25 -94t-42.5 -86.5t-59.5 -71.5t-77.5 -48.5t-96.5 -18q-61 0 -107.5 22.5t-77.5 62.5t-47 93.5t-16 116.5q0 70 19 143.5t57.5 133.5t96.5 98.5t136 38.5zM566 400q0 46 -10.5 89.5t-33.5 77
t-58.5 53.5t-85.5 20q-62 0 -108 -34t-76.5 -86t-45.5 -114.5t-15 -119.5q0 -45 10.5 -88t33 -76.5t58.5 -54t86 -20.5q63 0 109.5 34t76.5 86.5t44.5 114.5t14.5 118z" />
    <glyph glyph-name="one" unicode="1" horiz-adv-x="317" 
d="M128 0l94 629h-127l9 58h188l-103 -687h-61z" />
    <glyph glyph-name="two" unicode="2" horiz-adv-x="537" 
d="M317 698q43 0 81 -14t65.5 -39.5t43.5 -61t16 -77.5q0 -36 -10.5 -67t-30 -59.5t-48.5 -57t-66 -58.5l-252 -206h349l-8 -58h-447l8 51l316 260q59 49 93 93t34 100q0 29 -11 54t-30.5 43t-46 28t-57.5 10q-34 0 -63 -13t-51 -36t-36.5 -54t-18.5 -68h-60q4 51 23 93
t49 72.5t70.5 47.5t87.5 17z" />
    <glyph glyph-name="three" unicode="3" horiz-adv-x="554" 
d="M266 -11q-51 0 -92.5 15.5t-71.5 44t-46 69t-14 90.5h61q0 -36 13 -66t35 -51t52 -32.5t65 -11.5q33 0 64 10.5t55 30.5t38.5 48t14.5 64q0 31 -13.5 56t-35 42.5t-48.5 27t-55 9.5h-35l7 55h47q27 0 54.5 10t49.5 27.5t36 42.5t14 55q0 27 -11.5 48.5t-30.5 36.5
t-42 22.5t-47 7.5q-61 0 -106.5 -36t-55.5 -110h-60q5 48 24 86t48.5 64.5t68 40t82.5 13.5q36 0 70.5 -12t61.5 -33.5t43 -52.5t16 -69q0 -35 -11.5 -62.5t-30 -49t-43 -36t-50.5 -22.5q23 -9 44 -24t36.5 -36t25 -47t9.5 -56q0 -49 -20.5 -88t-53.5 -66t-75.5 -41
t-86.5 -14z" />
    <glyph glyph-name="four" unicode="4" horiz-adv-x="586" 
d="M25 213l427 473h72l-70 -465h99l-8 -55h-99l-25 -166h-60l25 166h-368zM394 221l58 385l-349 -385h291z" />
    <glyph glyph-name="five" unicode="5" horiz-adv-x="559" 
d="M266 47q39 0 73 15.5t59.5 42t40.5 61t15 72.5q0 36 -13 66.5t-35.5 52t-53 33.5t-64.5 12q-45 0 -87.5 -22.5t-71.5 -63.5l-54 12l103 360h354l-9 -57h-304l-70 -239q32 32 72.5 48.5t84.5 16.5q46 0 84.5 -16.5t66.5 -45t43.5 -68t15.5 -85.5q0 -53 -20.5 -99t-55 -80
t-80.5 -54t-98 -20q-48 0 -88.5 15t-69.5 43t-45.5 66.5t-16.5 85.5h62q0 -32 12.5 -60t34.5 -48.5t51.5 -32t63.5 -11.5z" />
    <glyph glyph-name="six" unicode="6" horiz-adv-x="580" 
d="M534 243q0 -53 -21 -99.5t-56.5 -81t-82.5 -54t-99 -19.5q-48 0 -89.5 16t-72 45.5t-48.5 70t-18 89.5q0 62 26.5 113t64.5 96l226 268h76l-215 -254q20 13 44 20t48 7q46 0 86 -17t69 -46.5t45.5 -69t16.5 -84.5zM277 47q39 0 74.5 15.5t62 41.5t42.5 61t16 74
q0 35 -13 65.5t-35.5 52.5t-52.5 34.5t-65 12.5q-40 0 -76 -14.5t-63 -40t-42.5 -60.5t-15.5 -75q0 -36 13 -66.5t35.5 -53t53 -35t66.5 -12.5z" />
    <glyph glyph-name="seven" unicode="7" horiz-adv-x="494" 
d="M132 0h-71l386 628h-354l9 58h428l-8 -47z" />
    <glyph glyph-name="eight" unicode="8" horiz-adv-x="547" 
d="M323 698q36 0 71 -11t62.5 -32.5t44.5 -52.5t17 -71q0 -31 -10.5 -58.5t-28.5 -50t-43 -38t-54 -21.5q51 -20 82 -63t31 -100q0 -49 -20.5 -88t-53.5 -66.5t-75.5 -42t-87.5 -14.5q-42 0 -81.5 13t-70.5 37t-50 59.5t-19 80.5q0 75 46 128t122 69q-42 15 -67.5 53
t-25.5 83q0 43 18 77.5t47 58.5t67 37t79 13zM259 46q34 0 65.5 11t56 31.5t39 49.5t14.5 65q0 33 -14 58.5t-36.5 43t-51 26.5t-58.5 9q-33 0 -65 -10.5t-56.5 -30t-39.5 -47.5t-15 -64q0 -33 13.5 -59.5t36 -45t51.5 -28t60 -9.5zM323 641q-29 0 -56 -8.5t-48 -25
t-34 -40.5t-13 -55q0 -26 11 -48t30 -37.5t43.5 -24t50.5 -8.5q28 0 55.5 9t48.5 25.5t34 40.5t13 54q0 28 -11.5 50t-30.5 37t-43.5 23t-49.5 8z" />
    <glyph glyph-name="nine" unicode="9" horiz-adv-x="580" 
d="M77 444q0 53 21 99.5t56.5 81t82.5 54t99 19.5q48 0 89.5 -16.5t72 -45.5t48.5 -69.5t18 -89.5q0 -62 -26.5 -113t-64.5 -96l-226 -268h-76l215 254q-20 -13 -44 -20t-48 -7q-47 0 -86.5 17t-68.5 46.5t-45.5 69t-16.5 84.5zM334 640q-39 0 -74.5 -15.5t-62 -41.5
t-42.5 -61t-16 -74q0 -35 13 -65.5t35.5 -52.5t52.5 -34.5t65 -12.5q40 0 76 14.5t63 40t42.5 60.5t15.5 75q0 36 -13 66.5t-35.5 53t-53 35t-66.5 12.5z" />
    <glyph glyph-name="numbersign.LT" 
d="M496 495h107l-7 -48h-114l-59 -201h112l-7 -48h-119l-57 -198h-54l57 198h-165l-57 -198h-54l57 198h-107l7 48h114l59 201h-112l7 48h119l56 192h54l-56 -192h165l56 192h54zM204 246h165l59 201h-165z" />
    <glyph glyph-name="zero.LT" 
d="M568 416q0 -43 -7 -91.5t-22 -96t-38 -91t-55 -76.5t-73.5 -52.5t-92.5 -19.5q-60 0 -101.5 24t-67.5 64t-38 90.5t-12 103.5q0 43 7 91.5t22 96t38 90.5t55 76.5t73.5 53t93.5 19.5q60 0 101.5 -24.5t67.5 -64t37.5 -90.5t11.5 -103zM283 48q41 0 74 18t57.5 48t42 68
t28.5 79t16 80.5t5 72.5q0 39 -7.5 79t-26 72.5t-49 53t-76.5 20.5q-42 0 -74.5 -18t-57.5 -47.5t-42.5 -68t-28.5 -79t-16 -80.5t-5 -73q0 -39 7.5 -79t26 -72.5t49.5 -53t77 -20.5z" />
    <glyph glyph-name="one.LT" 
d="M56 56h197l86 573h-136l9 58h197l-95 -631h192l-8 -56h-450z" />
    <glyph glyph-name="two.LT" 
d="M348 698q43 0 81 -14t65.5 -39.5t43.5 -61t16 -77.5q0 -36 -10.5 -67t-30 -59.5t-48.5 -57t-66 -58.5l-252 -206h349l-8 -58h-447l8 51l316 260q59 49 93 93t34 100q0 29 -11 54t-30.5 43t-46 28t-57.5 10q-34 0 -63 -13t-51 -36t-36.5 -54t-18.5 -68h-60q4 51 23 93
t49 72.5t70.5 47.5t87.5 17z" />
    <glyph glyph-name="three.LT" 
d="M289 -11q-51 0 -92.5 15.5t-71.5 44t-46 69t-14 90.5h61q0 -36 13 -66t35 -51t52 -32.5t65 -11.5q33 0 64 10.5t55 30.5t38.5 48t14.5 64q0 31 -13.5 56t-35 42.5t-48.5 27t-55 9.5h-35l7 55h47q27 0 54.5 10t49.5 27.5t36 42.5t14 55q0 27 -11.5 48.5t-30.5 36.5
t-42 22.5t-47 7.5q-61 0 -106.5 -36t-55.5 -110h-60q5 48 24 86t48.5 64.5t68 40t82.5 13.5q36 0 70.5 -12t61.5 -33.5t43 -52.5t16 -69q0 -35 -11.5 -62.5t-30 -49t-43 -36t-50.5 -22.5q23 -9 44 -24t36.5 -36t25 -47t9.5 -56q0 -49 -20.5 -88t-53.5 -66t-75.5 -41
t-86.5 -14z" />
    <glyph glyph-name="four.LT" 
d="M42 213l414 473h73l-70 -465h91l-8 -55h-91l-25 -166h-60l25 166h-356zM399 221l58 384l-338 -384h280z" />
    <glyph glyph-name="five.LT" 
d="M286 47q39 0 73 15.5t59.5 42t40.5 61t15 72.5q0 36 -13 66.5t-35.5 52t-53 33.5t-64.5 12q-45 0 -87.5 -22.5t-71.5 -63.5l-54 12l103 360h354l-9 -57h-304l-70 -239q32 32 72.5 48.5t84.5 16.5q46 0 84.5 -16.5t66.5 -45t43.5 -68t15.5 -85.5q0 -53 -20.5 -99t-55 -80
t-80.5 -54t-98 -20q-48 0 -88.5 15t-69.5 43t-45.5 66.5t-16.5 85.5h62q0 -32 12.5 -60t34.5 -48.5t51.5 -32t63.5 -11.5z" />
    <glyph glyph-name="six.LT" 
d="M544 243q0 -53 -21 -99.5t-56.5 -81t-82.5 -54t-99 -19.5q-48 0 -89.5 16t-72 45.5t-48.5 70t-18 89.5q0 62 26.5 113t64.5 96l226 268h76l-215 -254q20 13 44 20t48 7q46 0 86 -17t69 -46.5t45.5 -69t16.5 -84.5zM287 47q39 0 74.5 15.5t62 41.5t42.5 61t16 74
q0 35 -13 65.5t-35.5 52.5t-52.5 34.5t-65 12.5q-40 0 -76 -14.5t-63 -40t-42.5 -60.5t-15.5 -75q0 -36 13 -66.5t35.5 -53t53 -35t66.5 -12.5z" />
    <glyph glyph-name="seven.LT" 
d="M185 0h-71l386 628h-354l9 58h428l-8 -47z" />
    <glyph glyph-name="eight.LT" 
d="M349 698q36 0 71 -11t62.5 -32.5t44.5 -52.5t17 -71q0 -31 -10.5 -58.5t-28.5 -50t-43 -38t-54 -21.5q51 -20 82 -63t31 -100q0 -49 -20.5 -88t-53.5 -66.5t-75.5 -42t-87.5 -14.5q-42 0 -81.5 13t-70.5 37t-50 59.5t-19 80.5q0 75 46 128t122 69q-42 15 -67.5 53
t-25.5 83q0 43 18 77.5t47 58.5t67 37t79 13zM285 46q34 0 65.5 11t56 31.5t39 49.5t14.5 65q0 33 -14 58.5t-36.5 43t-51 26.5t-58.5 9q-33 0 -65 -10.5t-56.5 -30t-39.5 -47.5t-15 -64q0 -33 13.5 -59.5t36 -45t51.5 -28t60 -9.5zM349 641q-29 0 -56 -8.5t-48 -25
t-34 -40.5t-13 -55q0 -26 11 -48t30 -37.5t43.5 -24t50.5 -8.5q28 0 55.5 9t48.5 25.5t34 40.5t13 54q0 28 -11.5 50t-30.5 37t-43.5 23t-49.5 8z" />
    <glyph glyph-name="nine.LT" 
d="M87 444q0 53 21 99.5t56.5 81t82.5 54t99 19.5q48 0 89.5 -16.5t72 -45.5t48.5 -69.5t18 -89.5q0 -62 -26.5 -113t-64.5 -96l-226 -268h-76l215 254q-20 -13 -44 -20t-48 -7q-47 0 -86.5 17t-68.5 46.5t-45.5 69t-16.5 84.5zM344 640q-39 0 -74.5 -15.5t-62 -41.5
t-42.5 -61t-16 -74q0 -35 13 -65.5t35.5 -52.5t52.5 -34.5t65 -12.5q40 0 76 14.5t63 40t42.5 60.5t15.5 75q0 36 -13 66.5t-35.5 53t-53 35t-66.5 12.5z" />
    <glyph glyph-name="Euro.LT" 
d="M429 251h-259q9 -44 28.5 -80.5t48.5 -62.5t65.5 -41t78.5 -15q37 0 72.5 10t68.5 28l-9 -61q-31 -16 -65.5 -24.5t-69.5 -8.5q-54 0 -101 19t-83.5 52.5t-61.5 80.5t-34 103h-93l7 50h81v13q0 35 6 70h-74l7 50h80q17 53 48 99.5t73 81t93 54.5t108 20q45 0 88.5 -12.5
t81.5 -37.5l-9 -60q-71 54 -163 54q-45 0 -85 -15.5t-73 -42.5t-58.5 -63t-40.5 -78h270l-7 -50h-277q-7 -31 -7 -68v-15h273z" />
    <glyph glyph-name="dollar.LT" 
d="M242 5q-66 13 -109.5 59t-56.5 119l57 16q11 -53 41 -89.5t76 -47.5l41 275l-26 14q-56 30 -84 69.5t-28 90.5q0 39 14.5 71.5t40 56t60 36t75.5 12.5h1l13 89h49l-14 -95q54 -13 90.5 -52t48.5 -99l-56 -17q-8 42 -31 71.5t-61 40.5l-37 -248l37 -19q117 -60 117 -162
q0 -44 -16.5 -80t-45 -61.5t-66.5 -39.5t-82 -14l-14 -97h-49zM337 314l-38 -257q29 1 54.5 11t44.5 27.5t30 42t11 53.5q0 68 -87 115zM213 516q0 -71 84 -114l4 -2l34 231q-51 -2 -86.5 -33t-35.5 -82z" />
    <glyph glyph-name="cent.LT" 
d="M294 111q-36 9 -67 28t-53 46.5t-34.5 63t-12.5 76.5q0 50 18.5 95t50.5 79.5t75.5 56.5t93.5 25l16 106h48l-16 -107q66 -8 117 -46l-8 -58q-26 20 -55.5 33t-62.5 17l-55 -367h3q34 0 67.5 12.5t62.5 30.5l-10 -62q-56 -35 -122 -35h-9l-16 -110h-48zM187 328
q0 -59 31.5 -103t83.5 -59l54 359q-36 -5 -67 -22.5t-53.5 -44t-35.5 -60t-13 -70.5z" />
    <glyph glyph-name="sterling.LT" 
d="M179 477q7 46 24.5 85t45 67.5t66 44t86.5 15.5q41 0 76.5 -14t61 -39.5t39 -62.5t10.5 -83h-59q4 65 -32.5 103.5t-97.5 38.5q-36 0 -63.5 -12.5t-47 -34.5t-31.5 -51.5t-17 -63.5l-16 -110h192l-8 -53h-193l-23 -159q-6 -41 -19 -62t-27 -29h370l-9 -57h-481l9 57h18
q26 0 47.5 21t29.5 72l23 157h-81l8 53h82z" />
    <glyph glyph-name="florin.LT" 
d="M354 398h133l-8 -54h-139l-98 -361q-20 -75 -62.5 -111.5t-104.5 -36.5q-24 0 -44 4t-34 11l8 56q12 -6 29 -10.5t35 -4.5q88 0 115 100l96 353h-108l8 54h114l47 171q20 75 62.5 111.5t104.5 36.5q24 0 44 -4.5t35 -11.5l-9 -58q-12 7 -29.5 12.5t-35.5 5.5
q-42 0 -71 -24.5t-43 -75.5z" />
    <glyph glyph-name="yen.LT" 
d="M107 360h161l-156 324h67l140 -298l229 298h71l-252 -324h161l-8 -49h-180l-12 -80h180l-7 -49h-180l-27 -182h-61l27 182h-180l7 49h180l12 80h-180z" />
    <glyph glyph-name="zero.OP" horiz-adv-x="626" 
d="M585 342q0 -63 -19 -126t-56 -113.5t-91 -82t-124 -31.5q-57 0 -101.5 21t-74.5 57.5t-45.5 85t-15.5 102.5q0 63 19 126t55.5 113.5t90.5 82t124 31.5q57 0 101.5 -21t75 -57t46 -84.5t15.5 -103.5zM299 47q56 0 98 27.5t70 70t42 94t14 99.5q0 42 -11 80.5t-33 67.5
t-55.5 46.5t-78.5 17.5q-56 0 -98 -27.5t-70 -70t-42.5 -94t-14.5 -99.5q0 -42 11 -80t33.5 -67.5t56 -47t78.5 -17.5z" />
    <glyph glyph-name="one.OP" horiz-adv-x="305" 
d="M127 0l80 538h-127l9 58h189l-89 -596h-62z" />
    <glyph glyph-name="two.OP" horiz-adv-x="514" 
d="M121 58h324l-9 -58h-427l8 51l274 199q34 25 60 46t43 42t26 43t9 49t-10.5 49t-28.5 38t-42 24.5t-52 8.5q-31 0 -59 -12.5t-49.5 -34.5t-35.5 -52t-17 -65h-60q4 49 22.5 89.5t48.5 70t68.5 46t83.5 16.5q38 0 73 -12t61.5 -34.5t42 -54.5t15.5 -72q0 -35 -10 -64.5
t-32 -57t-56 -56.5t-82 -63z" />
    <glyph glyph-name="three.OP" horiz-adv-x="547" 
d="M251 -102q-51 0 -92.5 15.5t-71.5 44t-46 69t-14 90.5h61q0 -36 13 -66t35 -51t52 -32.5t65 -11.5q33 0 64 10.5t55 30.5t38.5 48t14.5 64q0 31 -13.5 56t-35 42.5t-48.5 27t-55 9.5h-35l7 55h47q27 0 54.5 10t49.5 27.5t36 42.5t14 55q0 27 -11.5 48.5t-30.5 36.5
t-42 22.5t-47 7.5q-61 0 -106.5 -36t-55.5 -110h-60q5 48 24 86t48.5 64.5t68 40t82.5 13.5q36 0 70.5 -12t61.5 -33.5t43 -52.5t16 -69q0 -35 -11.5 -62.5t-30 -49t-43 -36t-50.5 -22.5q23 -9 44 -24t36.5 -36t25 -47t9.5 -56q0 -49 -20.5 -88t-53.5 -66t-75.5 -41
t-86.5 -14z" />
    <glyph glyph-name="four.OP" horiz-adv-x="579" 
d="M2 94l430 502h73l-74 -493h99l-8 -55h-99l-21 -138h-61l21 138h-367zM370 103l62 412l-353 -412h291z" />
    <glyph glyph-name="five.OP" horiz-adv-x="551" 
d="M249 -44q39 0 73 15.5t59.5 42t40.5 61t15 72.5q0 36 -13 66.5t-35.5 52t-53 33.5t-64.5 12q-45 0 -87.5 -22.5t-71.5 -63.5l-54 12l103 360h354l-9 -57h-304l-70 -239q32 32 72.5 48.5t84.5 16.5q46 0 84.5 -16.5t66.5 -45t43.5 -68t15.5 -85.5q0 -53 -20.5 -99t-55 -80
t-80.5 -54t-98 -20q-48 0 -88.5 15t-69.5 43t-45.5 66.5t-16.5 85.5h62q0 -32 12.5 -60t34.5 -48.5t51.5 -32t63.5 -11.5z" />
    <glyph glyph-name="six.OP" horiz-adv-x="580" 
d="M534 243q0 -53 -21 -99.5t-56.5 -81t-82.5 -54t-99 -19.5q-48 0 -89.5 16t-72 45.5t-48.5 70t-18 89.5q0 62 26.5 113t64.5 96l226 268h76l-215 -254q20 13 44 20t48 7q46 0 86 -17t69 -46.5t45.5 -69t16.5 -84.5zM277 47q39 0 74.5 15.5t62 41.5t42.5 61t16 74
q0 35 -13 65.5t-35.5 52.5t-52.5 34.5t-65 12.5q-40 0 -76 -14.5t-63 -40t-42.5 -60.5t-15.5 -75q0 -36 13 -66.5t35.5 -53t53 -35t66.5 -12.5z" />
    <glyph glyph-name="seven.OP" horiz-adv-x="486" 
d="M110 -90h-71l386 628h-354l9 58h428l-8 -47z" />
    <glyph glyph-name="eight.OP" horiz-adv-x="546" 
d="M322 698q36 0 71 -11t62.5 -32.5t44.5 -52.5t17 -71q0 -31 -10.5 -58.5t-28.5 -50t-43 -38t-54 -21.5q51 -20 82 -63t31 -100q0 -49 -20.5 -88t-53.5 -66.5t-75.5 -42t-87.5 -14.5q-42 0 -81.5 13t-70.5 37t-50 59.5t-19 80.5q0 75 46 128t122 69q-42 15 -67.5 53
t-25.5 83q0 43 18 77.5t47 58.5t67 37t79 13zM258 46q34 0 65.5 11t56 31.5t39 49.5t14.5 65q0 33 -14 58.5t-36.5 43t-51 26.5t-58.5 9q-33 0 -65 -10.5t-56.5 -30t-39.5 -47.5t-15 -64q0 -33 13.5 -59.5t36 -45t51.5 -28t60 -9.5zM322 641q-29 0 -56 -8.5t-48 -25
t-34 -40.5t-13 -55q0 -26 11 -48t30 -37.5t43.5 -24t50.5 -8.5q28 0 55.5 9t48.5 25.5t34 40.5t13 54q0 28 -11.5 50t-30.5 37t-43.5 23t-49.5 8z" />
    <glyph glyph-name="nine.OP" horiz-adv-x="573" 
d="M60 354q0 53 21 99.5t56.5 81t82.5 54t99 19.5q48 0 89.5 -16.5t72 -45.5t48.5 -69.5t18 -89.5q0 -62 -26.5 -113t-64.5 -96l-226 -268h-76l215 254q-20 -13 -44 -20t-48 -7q-47 0 -86.5 17t-68.5 46.5t-45.5 69t-16.5 84.5zM317 550q-39 0 -74.5 -15.5t-62 -41.5
t-42.5 -61t-16 -74q0 -35 13 -65.5t35.5 -52.5t52.5 -34.5t65 -12.5q40 0 76 14.5t63 40t42.5 60.5t15.5 75q0 36 -13 66.5t-35.5 53t-53 35t-66.5 12.5z" />
    <glyph glyph-name="zero.OT" 
d="M559 348q0 -61 -17 -125t-51 -116t-86.5 -85t-122.5 -33q-56 0 -98 21t-70 56.5t-42 83t-14 100.5q0 61 17 124.5t51 115.5t86 85t123 33q56 0 98 -21t70 -56.5t42 -82.5t14 -100zM284 48q55 0 95.5 29t66.5 73t38.5 96t12.5 99q0 39 -9.5 76t-29.5 65.5t-51 45.5t-74 17
q-56 0 -96 -28.5t-66 -72.5t-38.5 -96t-12.5 -99q0 -39 9.5 -76t29.5 -65.5t51 -46t74 -17.5z" />
    <glyph glyph-name="one.OT" 
d="M59 56h190l72 482h-131l9 58h193l-81 -540h184l-8 -56h-436z" />
    <glyph glyph-name="two.OT" 
d="M164 58h324l-9 -58h-427l8 51l274 199q34 25 60 46t43 42t26 43t9 49t-10.5 49t-28.5 38t-42 24.5t-52 8.5q-31 0 -59 -12.5t-49.5 -34.5t-35.5 -52t-17 -65h-60q4 49 22.5 89.5t48.5 70t68.5 46t83.5 16.5q38 0 73 -12t61.5 -34.5t42 -54.5t15.5 -72q0 -35 -10 -64.5
t-32 -57t-56 -56.5t-82 -63z" />
    <glyph glyph-name="three.OT" 
d="M277 -102q-51 0 -92.5 15.5t-71.5 44t-46 69t-14 90.5h61q0 -36 13 -66t35 -51t52 -32.5t65 -11.5q33 0 64 10.5t55 30.5t38.5 48t14.5 64q0 31 -13.5 56t-35 42.5t-48.5 27t-55 9.5h-35l7 55h47q27 0 54.5 10t49.5 27.5t36 42.5t14 55q0 27 -11.5 48.5t-30.5 36.5
t-42 22.5t-47 7.5q-61 0 -106.5 -36t-55.5 -110h-60q5 48 24 86t48.5 64.5t68 40t82.5 13.5q36 0 70.5 -12t61.5 -33.5t43 -52.5t16 -69q0 -35 -11.5 -62.5t-30 -49t-43 -36t-50.5 -22.5q23 -9 44 -24t36.5 -36t25 -47t9.5 -56q0 -49 -20.5 -88t-53.5 -66t-75.5 -41
t-86.5 -14z" />
    <glyph glyph-name="four.OT" 
d="M23 95l417 501h73l-74 -493h91l-8 -55h-91l-21 -138h-60l21 138h-355zM379 103l62 412l-343 -412h281z" />
    <glyph glyph-name="five.OT" 
d="M273 -44q39 0 73 15.5t59.5 42t40.5 61t15 72.5q0 36 -13 66.5t-35.5 52t-53 33.5t-64.5 12q-45 0 -87.5 -22.5t-71.5 -63.5l-54 12l103 360h354l-9 -57h-304l-70 -239q32 32 72.5 48.5t84.5 16.5q46 0 84.5 -16.5t66.5 -45t43.5 -68t15.5 -85.5q0 -53 -20.5 -99t-55 -80
t-80.5 -54t-98 -20q-48 0 -88.5 15t-69.5 43t-45.5 66.5t-16.5 85.5h62q0 -32 12.5 -60t34.5 -48.5t51.5 -32t63.5 -11.5z" />
    <glyph glyph-name="six.OT" 
d="M544 243q0 -53 -21 -99.5t-56.5 -81t-82.5 -54t-99 -19.5q-48 0 -89.5 16t-72 45.5t-48.5 70t-18 89.5q0 62 26.5 113t64.5 96l226 268h76l-215 -254q20 13 44 20t48 7q46 0 86 -17t69 -46.5t45.5 -69t16.5 -84.5zM287 47q39 0 74.5 15.5t62 41.5t42.5 61t16 74
q0 35 -13 65.5t-35.5 52.5t-52.5 34.5t-65 12.5q-40 0 -76 -14.5t-63 -40t-42.5 -60.5t-15.5 -75q0 -36 13 -66.5t35.5 -53t53 -35t66.5 -12.5z" />
    <glyph glyph-name="seven.OT" 
d="M167 -90h-71l386 628h-354l9 58h428l-8 -47z" />
    <glyph glyph-name="eight.OT" 
d="M349 698q36 0 71 -11t62.5 -32.5t44.5 -52.5t17 -71q0 -31 -10.5 -58.5t-28.5 -50t-43 -38t-54 -21.5q51 -20 82 -63t31 -100q0 -49 -20.5 -88t-53.5 -66.5t-75.5 -42t-87.5 -14.5q-42 0 -81.5 13t-70.5 37t-50 59.5t-19 80.5q0 75 46 128t122 69q-42 15 -67.5 53
t-25.5 83q0 43 18 77.5t47 58.5t67 37t79 13zM285 46q34 0 65.5 11t56 31.5t39 49.5t14.5 65q0 33 -14 58.5t-36.5 43t-51 26.5t-58.5 9q-33 0 -65 -10.5t-56.5 -30t-39.5 -47.5t-15 -64q0 -33 13.5 -59.5t36 -45t51.5 -28t60 -9.5zM349 641q-29 0 -56 -8.5t-48 -25
t-34 -40.5t-13 -55q0 -26 11 -48t30 -37.5t43.5 -24t50.5 -8.5q28 0 55.5 9t48.5 25.5t34 40.5t13 54q0 28 -11.5 50t-30.5 37t-43.5 23t-49.5 8z" />
    <glyph glyph-name="nine.OT" 
d="M73 354q0 53 21 99.5t56.5 81t82.5 54t99 19.5q48 0 89.5 -16.5t72 -45.5t48.5 -69.5t18 -89.5q0 -62 -26.5 -113t-64.5 -96l-226 -268h-76l215 254q-20 -13 -44 -20t-48 -7q-47 0 -86.5 17t-68.5 46.5t-45.5 69t-16.5 84.5zM330 550q-39 0 -74.5 -15.5t-62 -41.5
t-42.5 -61t-16 -74q0 -35 13 -65.5t35.5 -52.5t52.5 -34.5t65 -12.5q40 0 76 14.5t63 40t42.5 60.5t15.5 75q0 36 -13 66.5t-35.5 53t-53 35t-66.5 12.5z" />
    <glyph glyph-name="uni2070" unicode="&#x2070;" horiz-adv-x="361" 
d="M367 535q0 -38 -9 -80.5t-29 -78.5t-52 -60t-78 -24q-34 0 -58.5 12.5t-40 34t-23 51t-7.5 62.5q0 37 8.5 79.5t28 78.5t51.5 60t78 24q34 0 59 -12.5t41 -34.5t23.5 -50.5t7.5 -61.5zM201 340q33 0 54.5 20.5t35 50.5t19 63.5t5.5 59.5q0 19 -4 39t-13.5 36.5t-25 26.5
t-38.5 10q-32 0 -53.5 -21t-34.5 -51t-18.5 -63t-5.5 -57q0 -20 3.5 -40t12.5 -36.5t24.5 -27t38.5 -10.5z" />
    <glyph glyph-name="onesuperior" unicode="&#xb9;" horiz-adv-x="210" 
d="M105 299l51 340h-70l7 48h121l-58 -388h-51z" />
    <glyph glyph-name="twosuperior" unicode="&#xb2;" horiz-adv-x="324" 
d="M224 694q25 0 47.5 -8t38.5 -22.5t25.5 -35t9.5 -44.5q0 -41 -22.5 -73t-65.5 -65l-129 -100h187l-7 -47h-267l6 42l179 139q32 26 49.5 49t17.5 54q0 28 -20.5 45.5t-50.5 17.5q-35 0 -59 -25.5t-29 -60.5h-51q3 28 14.5 52.5t30 42.5t43 28.5t53.5 10.5z" />
    <glyph glyph-name="threesuperior" unicode="&#xb3;" horiz-adv-x="329" 
d="M205 524q15 0 29.5 4t26.5 12.5t19.5 21t7.5 30.5q0 25 -20.5 40t-43.5 15q-28 0 -51 -16t-28 -53h-48q1 29 12.5 50.5t29 36t40 22t46.5 7.5q21 0 41.5 -6.5t36 -19t25.5 -30.5t10 -41q0 -35 -21 -60.5t-51 -34.5q26 -11 44 -33t18 -56q0 -28 -12 -50.5t-31.5 -38
t-44 -24t-49.5 -8.5q-26 0 -50 7.5t-42 23t-29.5 39t-11.5 55.5h51q0 -37 24.5 -57t57.5 -20q34 0 60.5 20t26.5 55q0 30 -23.5 48t-55.5 18h-19l6 43h19v0z" />
    <glyph glyph-name="uni2074" unicode="&#x2074;" horiz-adv-x="335" 
d="M299 432h50l-7 -45h-50l-13 -88h-50l13 88h-199l6 39l226 261h62zM111 432h138l29 192z" />
    <glyph glyph-name="uni2075" unicode="&#x2075;" horiz-adv-x="334" 
d="M336 436q0 -30 -11.5 -56.5t-31 -46t-46.5 -30.5t-57 -11q-29 0 -53 9t-41 25.5t-27 38.5t-10 48h51q-1 -30 22.5 -51.5t59.5 -21.5q19 0 36 7.5t30 20.5t20.5 30t7.5 36q0 38 -24.5 59.5t-59.5 21.5q-22 0 -42 -9.5t-34 -28.5l-49 12l58 198h211l-7 -45h-171l-33 -113
q16 17 36.5 23.5t40.5 6.5q55 0 89.5 -34.5t34.5 -88.5z" />
    <glyph glyph-name="uni2076" unicode="&#x2076;" horiz-adv-x="346" 
d="M344 439q0 -32 -12 -58.5t-32.5 -46.5t-47.5 -31t-57 -11q-28 0 -52.5 9.5t-42.5 26t-28 40t-10 52.5q0 34 15 64t36 56l123 147h62l-120 -139q17 11 44 11q25 0 47.5 -9t39 -25t26 -38t9.5 -48zM196 339q41 0 70 27.5t29 68.5q0 37 -26 59t-61 22q-20 0 -37.5 -7
t-31 -19.5t-21.5 -30t-8 -37.5q0 -36 25 -59.5t61 -23.5z" />
    <glyph glyph-name="uni2077" unicode="&#x2077;" horiz-adv-x="308" 
d="M68 299l216 341h-199l7 47h261l-6 -38l-220 -350h-59z" />
    <glyph glyph-name="uni2078" unicode="&#x2078;" horiz-adv-x="333" 
d="M186 292q-24 0 -47 7.5t-41.5 21.5t-29.5 34.5t-11 47.5q0 19 6.5 37t18 32.5t27.5 25t35 15.5q-21 11 -33 31t-12 43q0 25 10.5 45t28 33.5t40 21t45.5 7.5q21 0 42 -6t37.5 -18.5t26.5 -31t10 -42.5q0 -32 -20 -57.5t-50 -35.5q26 -11 42 -35.5t16 -53.5t-12 -51.5
t-32 -38t-45.5 -24t-51.5 -8.5zM107 408q0 -34 25.5 -52t56.5 -18q33 0 60.5 20.5t27.5 56.5q0 17 -7 30t-19 22t-27 13.5t-30 4.5q-16 0 -31.5 -5.5t-28 -15.5t-20 -24.5t-7.5 -31.5zM217 527q28 0 51 17t23 46t-22 44.5t-48 15.5q-28 0 -51 -17.5t-23 -47.5
q0 -29 22 -43.5t48 -14.5z" />
    <glyph glyph-name="uni2079" unicode="&#x2079;" horiz-adv-x="346" 
d="M77 547q0 31 12 58t32.5 47t47.5 31t57 11q28 0 52.5 -9.5t42.5 -26t28 -40.5t10 -52q0 -34 -15 -64t-36 -56l-123 -147h-62l120 139q-17 -11 -44 -11q-25 0 -47.5 9t-39 25t-26 38t-9.5 48zM225 647q-41 0 -70 -27.5t-29 -68.5q0 -37 26 -59t61 -22q19 0 37 7t31.5 19.5
t21.5 30t8 37.5q0 36 -25 59.5t-61 23.5z" />
    <glyph glyph-name="uni207A" unicode="&#x207a;" horiz-adv-x="338" 
d="M81 516h106l16 106h46l-16 -106h106l-7 -46h-106l-16 -106h-46l16 106h-106z" />
    <glyph glyph-name="uni207B" unicode="&#x207b;" horiz-adv-x="338" 
d="M81 516h258l-7 -46h-258z" />
    <glyph glyph-name="uni207C" unicode="&#x207c;" horiz-adv-x="338" 
d="M73 461h258l-7 -45h-258zM89 571h258l-7 -45h-258z" />
    <glyph glyph-name="uni207D" unicode="&#x207d;" horiz-adv-x="196" 
d="M69 457q0 72 33 144t96 129h50q-65 -63 -98 -133t-33 -139q0 -51 15 -104.5t45 -98.5h-45q-32 40 -47.5 94t-15.5 108z" />
    <glyph glyph-name="uni207E" unicode="&#x207e;" horiz-adv-x="196" 
d="M202 528q0 -72 -33 -144t-96 -129h-50q65 63 98 133t33 139q0 51 -15 104.5t-45 98.5h45q32 -40 47.5 -94t15.5 -108z" />
    <glyph glyph-name="uni2080" unicode="&#x2080;" horiz-adv-x="361" 
d="M323 236q0 -38 -9 -80.5t-29 -78.5t-52 -60t-78 -24q-34 0 -58.5 12.5t-40 34t-23 51t-7.5 62.5q0 37 8.5 79.5t28 78.5t51.5 60t78 24q34 0 59 -12.5t41 -34.5t23.5 -50.5t7.5 -61.5zM157 41q33 0 54.5 20.5t35 50.5t19 63.5t5.5 59.5q0 19 -4 39t-13.5 36.5t-25 26.5
t-38.5 10q-32 0 -53.5 -21t-34.5 -51t-18.5 -63t-5.5 -57q0 -20 3.5 -40t12.5 -36.5t24.5 -27t38.5 -10.5z" />
    <glyph glyph-name="uni2081" unicode="&#x2081;" horiz-adv-x="209" 
d="M62 0l51 340h-70l7 48h121l-58 -388h-51z" />
    <glyph glyph-name="uni2082" unicode="&#x2082;" horiz-adv-x="324" 
d="M178 395q25 0 47.5 -8t38.5 -22.5t25.5 -35t9.5 -44.5q0 -41 -22.5 -73t-65.5 -65l-129 -100h187l-7 -47h-267l6 42l179 139q32 26 49.5 49t17.5 54q0 28 -20.5 45.5t-50.5 17.5q-35 0 -59 -25.5t-29 -60.5h-51q3 28 14.5 52.5t30 42.5t43 28.5t53.5 10.5z" />
    <glyph glyph-name="uni2083" unicode="&#x2083;" horiz-adv-x="329" 
d="M160 225q15 0 29.5 4t26.5 12.5t19.5 21t7.5 30.5q0 25 -20.5 40t-43.5 15q-28 0 -51 -16t-28 -53h-48q1 29 12.5 50.5t29 36t40 22t46.5 7.5q21 0 41.5 -6.5t36 -19t25.5 -30.5t10 -41q0 -35 -21 -60.5t-51 -34.5q26 -11 44 -33t18 -56q0 -28 -12 -50.5t-31.5 -38
t-44 -24t-49.5 -8.5q-26 0 -50 7.5t-42 23t-29.5 39t-11.5 55.5h51q0 -37 24.5 -57t57.5 -20q34 0 60.5 20t26.5 55q0 30 -23.5 48t-55.5 18h-19l6 43h19v0z" />
    <glyph glyph-name="uni2084" unicode="&#x2084;" horiz-adv-x="335" 
d="M253 133h50l-7 -45h-50l-13 -88h-50l13 88h-199l6 39l226 261h62zM65 133h138l29 192z" />
    <glyph glyph-name="uni2085" unicode="&#x2085;" horiz-adv-x="334" 
d="M290 137q0 -30 -11.5 -56.5t-31 -46t-46.5 -30.5t-57 -11q-29 0 -53 9t-41 25.5t-27 38.5t-10 48h51q-1 -30 22.5 -51.5t59.5 -21.5q19 0 36 7.5t30 20.5t20.5 30t7.5 36q0 38 -24.5 59.5t-59.5 21.5q-22 0 -42 -9.5t-34 -28.5l-49 12l58 198h211l-7 -45h-171l-33 -113
q16 17 36.5 23.5t40.5 6.5q55 0 89.5 -34.5t34.5 -88.5z" />
    <glyph glyph-name="uni2086" unicode="&#x2086;" horiz-adv-x="346" 
d="M297 140q0 -32 -12 -58.5t-32.5 -46.5t-47.5 -31t-57 -11q-28 0 -52.5 9.5t-42.5 26t-28 40t-10 52.5q0 34 15 64t36 56l123 147h62l-120 -139q17 11 44 11q25 0 47.5 -9t39 -25t26 -38t9.5 -48zM149 40q41 0 70 27.5t29 68.5q0 37 -26 59t-61 22q-20 0 -37.5 -7
t-31 -19.5t-21.5 -30t-8 -37.5q0 -36 25 -59.5t61 -23.5z" />
    <glyph glyph-name="uni2087" unicode="&#x2087;" horiz-adv-x="308" 
d="M23 0l216 341h-199l7 47h261l-6 -38l-220 -350h-59z" />
    <glyph glyph-name="uni2088" unicode="&#x2088;" horiz-adv-x="333" 
d="M140 -7q-24 0 -47 7.5t-41.5 21.5t-29.5 34.5t-11 47.5q0 19 6.5 37t18 32.5t27.5 25t35 15.5q-21 11 -33 31t-12 43q0 25 10.5 45t28 33.5t40 21t45.5 7.5q21 0 42 -6t37.5 -18.5t26.5 -31t10 -42.5q0 -32 -20 -57.5t-50 -35.5q26 -11 42 -35.5t16 -53.5t-12 -51.5
t-32 -38t-45.5 -24t-51.5 -8.5zM61 109q0 -34 25.5 -52t56.5 -18q33 0 60.5 20.5t27.5 56.5q0 17 -7 30t-19 22t-27 13.5t-30 4.5q-16 0 -31.5 -5.5t-28 -15.5t-20 -24.5t-7.5 -31.5zM171 228q28 0 51 17t23 46t-22 44.5t-48 15.5q-28 0 -51 -17.5t-23 -47.5q0 -29 22 -43.5
t48 -14.5z" />
    <glyph glyph-name="uni2089" unicode="&#x2089;" horiz-adv-x="346" 
d="M33 248q0 31 12 58t32.5 47t47.5 31t57 11q28 0 52.5 -9.5t42.5 -26t28 -40.5t10 -52q0 -34 -15 -64t-36 -56l-123 -147h-62l120 139q-17 -11 -44 -11q-25 0 -47.5 9t-39 25t-26 38t-9.5 48zM181 348q-41 0 -70 -27.5t-29 -68.5q0 -37 26 -59t61 -22q19 0 37 7t31.5 19.5
t21.5 30t8 37.5q0 36 -25 59.5t-61 23.5z" />
    <glyph glyph-name="uni208A" unicode="&#x208a;" horiz-adv-x="338" 
d="M36 217h106l16 106h46l-16 -106h106l-7 -46h-106l-16 -106h-46l16 106h-106z" />
    <glyph glyph-name="uni208B" unicode="&#x208b;" horiz-adv-x="338" 
d="M36 217h258l-7 -46h-258z" />
    <glyph glyph-name="uni208C" unicode="&#x208c;" horiz-adv-x="338" 
d="M29 162h258l-7 -45h-258zM45 272h258l-7 -45h-258z" />
    <glyph glyph-name="uni208D" unicode="&#x208d;" horiz-adv-x="196" 
d="M24 158q0 72 33 144t96 129h50q-65 -63 -98 -133t-33 -139q0 -51 15 -104.5t45 -98.5h-45q-32 40 -47.5 94t-15.5 108z" />
    <glyph glyph-name="uni208E" unicode="&#x208e;" horiz-adv-x="196" 
d="M157 229q0 -72 -33 -144t-96 -129h-50q65 63 98 133t33 139q0 51 -15 104.5t-45 98.5h45q32 -40 47.5 -94t15.5 -108z" />
    <glyph glyph-name="zero.inf" horiz-adv-x="361" 
d="M306 128q0 -38 -9 -80.5t-29 -78.5t-52 -60t-78 -24q-34 0 -58.5 12.5t-40 34t-23 51t-7.5 62.5q0 37 8.5 79.5t28 78.5t51.5 60t78 24q34 0 59 -12.5t41 -34.5t23.5 -50.5t7.5 -61.5zM140 -67q33 0 54.5 20.5t35 50.5t19 63.5t5.5 59.5q0 19 -4 39t-13.5 36.5t-25 26.5
t-38.5 10q-32 0 -53.5 -21t-34.5 -51t-18.5 -63t-5.5 -57q0 -20 3.5 -40t12.5 -36.5t24.5 -27t38.5 -10.5z" />
    <glyph glyph-name="one.inf" horiz-adv-x="209" 
d="M43 -108l51 340h-70l7 48h121l-58 -388h-51z" />
    <glyph glyph-name="two.inf" horiz-adv-x="324" 
d="M161 287q25 0 47.5 -8t38.5 -22.5t25.5 -35t9.5 -44.5q0 -41 -22.5 -73t-65.5 -65l-129 -100h187l-7 -47h-267l6 42l179 139q32 26 49.5 49t17.5 54q0 28 -20.5 45.5t-50.5 17.5q-35 0 -59 -25.5t-29 -60.5h-51q3 28 14.5 52.5t30 42.5t43 28.5t53.5 10.5z" />
    <glyph glyph-name="three.inf" horiz-adv-x="329" 
d="M142 117q15 0 29.5 4t26.5 12.5t19.5 21t7.5 30.5q0 25 -20.5 40t-43.5 15q-28 0 -51 -16t-28 -53h-48q1 29 12.5 50.5t29 36t40 22t46.5 7.5q21 0 41.5 -6.5t36 -19t25.5 -30.5t10 -41q0 -35 -21 -60.5t-51 -34.5q26 -11 44 -33t18 -56q0 -28 -12 -50.5t-31.5 -38
t-44 -24t-49.5 -8.5q-26 0 -50 7.5t-42 23t-29.5 39t-11.5 55.5h51q0 -37 24.5 -57t57.5 -20q34 0 60.5 20t26.5 55q0 30 -23.5 48t-55.5 18h-19l6 43h19v0z" />
    <glyph glyph-name="four.inf" horiz-adv-x="335" 
d="M238 25h50l-7 -45h-50l-13 -88h-50l13 88h-199l6 39l226 261h62zM50 25h138l29 192z" />
    <glyph glyph-name="five.inf" horiz-adv-x="334" 
d="M273 29q0 -30 -11.5 -56.5t-31 -46t-46.5 -30.5t-57 -11q-29 0 -53 9t-41 25.5t-27 38.5t-10 48h51q-1 -30 22.5 -51.5t59.5 -21.5q19 0 36 7.5t30 20.5t20.5 30t7.5 36q0 38 -24.5 59.5t-59.5 21.5q-22 0 -42 -9.5t-34 -28.5l-49 12l58 198h211l-7 -45h-171l-33 -113
q16 17 36.5 23.5t40.5 6.5q55 0 89.5 -34.5t34.5 -88.5z" />
    <glyph glyph-name="six.inf" horiz-adv-x="346" 
d="M281 32q0 -32 -12 -58.5t-32.5 -46.5t-47.5 -31t-57 -11q-28 0 -52.5 9.5t-42.5 26t-28 40t-10 52.5q0 34 15 64t36 56l123 147h62l-120 -139q17 11 44 11q25 0 47.5 -9t39 -25t26 -38t9.5 -48zM133 -68q41 0 70 27.5t29 68.5q0 37 -26 59t-61 22q-20 0 -37.5 -7
t-31 -19.5t-21.5 -30t-8 -37.5q0 -36 25 -59.5t61 -23.5z" />
    <glyph glyph-name="seven.inf" horiz-adv-x="308" 
d="M6 -108l216 341h-199l7 47h261l-6 -38l-220 -350h-59z" />
    <glyph glyph-name="eight.inf" horiz-adv-x="333" 
d="M125 -115q-24 0 -47 7.5t-41.5 21.5t-29.5 34.5t-11 47.5q0 19 6.5 37t18 32.5t27.5 25t35 15.5q-21 11 -33 31t-12 43q0 25 10.5 45t28 33.5t40 21t45.5 7.5q21 0 42 -6t37.5 -18.5t26.5 -31t10 -42.5q0 -32 -20 -57.5t-50 -35.5q26 -11 42 -35.5t16 -53.5t-12 -51.5
t-32 -38t-45.5 -24t-51.5 -8.5zM46 1q0 -34 25.5 -52t56.5 -18q33 0 60.5 20.5t27.5 56.5q0 17 -7 30t-19 22t-27 13.5t-30 4.5q-16 0 -31.5 -5.5t-28 -15.5t-20 -24.5t-7.5 -31.5zM156 120q28 0 51 17t23 46t-22 44.5t-48 15.5q-28 0 -51 -17.5t-23 -47.5q0 -29 22 -43.5
t48 -14.5z" />
    <glyph glyph-name="nine.inf" horiz-adv-x="346" 
d="M17 140q0 31 12 58t32.5 47t47.5 31t57 11q28 0 52.5 -9.5t42.5 -26t28 -40.5t10 -52q0 -34 -15 -64t-36 -56l-123 -147h-62l120 139q-17 -11 -44 -11q-25 0 -47.5 9t-39 25t-26 38t-9.5 48zM165 240q-41 0 -70 -27.5t-29 -68.5q0 -37 26 -59t61 -22q19 0 37 7t31.5 19.5
t21.5 30t8 37.5q0 36 -25 59.5t-61 23.5z" />
    <glyph glyph-name="plus.inf" horiz-adv-x="338" 
d="M20 110h106l16 106h46l-16 -106h106l-7 -46h-106l-16 -106h-46l16 106h-106z" />
    <glyph glyph-name="minus.inf" horiz-adv-x="338" 
d="M20 110h258l-7 -46h-258z" />
    <glyph glyph-name="equal.inf" horiz-adv-x="338" 
d="M12 54h258l-7 -45h-258zM28 164h258l-7 -45h-258z" />
    <glyph glyph-name="parenleft.inf" horiz-adv-x="196" 
d="M8 50q0 72 33 144t96 129h50q-65 -63 -98 -133t-33 -139q0 -51 15 -104.5t45 -98.5h-45q-32 40 -47.5 94t-15.5 108z" />
    <glyph glyph-name="parenright.inf" horiz-adv-x="196" 
d="M140 121q0 -72 -33 -144t-96 -129h-50q65 63 98 133t33 139q0 51 -15 104.5t-45 98.5h45q32 -40 47.5 -94t15.5 -108z" />
    <glyph glyph-name="fraction" unicode="&#x2044;" horiz-adv-x="166" 
d="M-172 0h-67l608 687h67z" />
    <glyph glyph-name="uni215F" unicode="&#x215f;" horiz-adv-x="401" 
d="M105 299l51 340h-70l7 48h121l-58 -388h-51zM63 0h-67l608 687h67z" />
    <glyph glyph-name="onehalf" unicode="&#xbd;" horiz-adv-x="737" 
d="M63 0h-67l608 687h67zM591 395q25 0 47.5 -8t38.5 -22.5t25.5 -35t9.5 -44.5q0 -41 -22.5 -73t-65.5 -65l-129 -100h187l-7 -47h-267l6 42l179 139q32 26 49.5 49t17.5 54q0 28 -20.5 45.5t-50.5 17.5q-35 0 -59 -25.5t-29 -60.5h-51q3 28 14.5 52.5t30 42.5t43 28.5
t53.5 10.5zM105 299l51 340h-70l7 48h121l-58 -388h-51z" />
    <glyph glyph-name="uni2153" unicode="&#x2153;" horiz-adv-x="743" 
d="M63 0h-67l608 687h67zM574 225q15 0 29.5 4t26.5 12.5t19.5 21t7.5 30.5q0 25 -20.5 40t-43.5 15q-28 0 -51 -16t-28 -53h-48q1 29 12.5 50.5t29 36t40 22t46.5 7.5q21 0 41.5 -6.5t36 -19t25.5 -30.5t10 -41q0 -35 -21 -60.5t-51 -34.5q26 -11 44 -33t18 -56
q0 -28 -12 -50.5t-31.5 -38t-44 -24t-49.5 -8.5q-26 0 -50 7.5t-42 23t-29.5 39t-11.5 55.5h51q0 -37 24.5 -57t57.5 -20q34 0 60.5 20t26.5 55q0 30 -23.5 48t-55.5 18h-19l6 43h19zM105 299l51 340h-70l7 48h121l-58 -388h-51z" />
    <glyph glyph-name="uni2154" unicode="&#x2154;" horiz-adv-x="869" 
d="M224 694q25 0 47.5 -8t38.5 -22.5t25.5 -35t9.5 -44.5q0 -41 -22.5 -73t-65.5 -65l-129 -100h187l-7 -47h-267l6 42l179 139q32 26 49.5 49t17.5 54q0 28 -20.5 45.5t-50.5 17.5q-35 0 -59 -25.5t-29 -60.5h-51q3 28 14.5 52.5t30 42.5t43 28.5t53.5 10.5zM189 0h-67
l608 687h67zM700 225q15 0 29.5 4t26.5 12.5t19.5 21t7.5 30.5q0 25 -20.5 40t-43.5 15q-28 0 -51 -16t-28 -53h-48q1 29 12.5 50.5t29 36t40 22t46.5 7.5q21 0 41.5 -6.5t36 -19t25.5 -30.5t10 -41q0 -35 -21 -60.5t-51 -34.5q26 -11 44 -33t18 -56q0 -28 -12 -50.5
t-31.5 -38t-44 -24t-49.5 -8.5q-26 0 -50 7.5t-42 23t-29.5 39t-11.5 55.5h51q0 -37 24.5 -57t57.5 -20q34 0 60.5 20t26.5 55q0 30 -23.5 48t-55.5 18h-19l6 43h19z" />
    <glyph glyph-name="onequarter" unicode="&#xbc;" horiz-adv-x="693" 
d="M63 0h-67l608 687h67zM611 133h50l-7 -45h-50l-13 -88h-50l13 88h-199l6 39l226 261h62zM423 133h138l29 192zM105 299l51 340h-70l7 48h121l-58 -388h-51z" />
    <glyph glyph-name="threequarters" unicode="&#xbe;" horiz-adv-x="799" 
d="M205 524q15 0 29.5 4t26.5 12.5t19.5 21t7.5 30.5q0 25 -20.5 40t-43.5 15q-28 0 -51 -16t-28 -53h-48q1 29 12.5 50.5t29 36t40 22t46.5 7.5q21 0 41.5 -6.5t36 -19t25.5 -30.5t10 -41q0 -35 -21 -60.5t-51 -34.5q26 -11 44 -33t18 -56q0 -28 -12 -50.5t-31.5 -38
t-44 -24t-49.5 -8.5q-26 0 -50 7.5t-42 23t-29.5 39t-11.5 55.5h51q0 -37 24.5 -57t57.5 -20q34 0 60.5 20t26.5 55q0 30 -23.5 48t-55.5 18h-19l6 43h19zM169 0h-67l608 687h67zM717 133h50l-7 -45h-50l-13 -88h-50l13 88h-199l6 39l226 261h62zM529 133h138l29 192z" />
    <glyph glyph-name="uni2155" unicode="&#x2155;" horiz-adv-x="745" 
d="M63 0h-67l608 687h67zM701 137q0 -30 -11.5 -56.5t-31 -46t-46.5 -30.5t-57 -11q-29 0 -53 9t-41 25.5t-27 38.5t-10 48h51q-1 -30 22.5 -51.5t59.5 -21.5q19 0 36 7.5t30 20.5t20.5 30t7.5 36q0 38 -24.5 59.5t-59.5 21.5q-22 0 -42 -9.5t-34 -28.5l-49 12l58 198h211
l-7 -45h-171l-33 -113q16 17 36.5 23.5t40.5 6.5q55 0 89.5 -34.5t34.5 -88.5zM105 299l51 340h-70l7 48h121l-58 -388h-51z" />
    <glyph glyph-name="uni2156" unicode="&#x2156;" horiz-adv-x="871" 
d="M224 694q25 0 47.5 -8t38.5 -22.5t25.5 -35t9.5 -44.5q0 -41 -22.5 -73t-65.5 -65l-129 -100h187l-7 -47h-267l6 42l179 139q32 26 49.5 49t17.5 54q0 28 -20.5 45.5t-50.5 17.5q-35 0 -59 -25.5t-29 -60.5h-51q3 28 14.5 52.5t30 42.5t43 28.5t53.5 10.5zM189 0h-67
l608 687h67zM827 137q0 -30 -11.5 -56.5t-31 -46t-46.5 -30.5t-57 -11q-29 0 -53 9t-41 25.5t-27 38.5t-10 48h51q-1 -30 22.5 -51.5t59.5 -21.5q19 0 36 7.5t30 20.5t20.5 30t7.5 36q0 38 -24.5 59.5t-59.5 21.5q-22 0 -42 -9.5t-34 -28.5l-49 12l58 198h211l-7 -45h-171
l-33 -113q16 17 36.5 23.5t40.5 6.5q55 0 89.5 -34.5t34.5 -88.5z" />
    <glyph glyph-name="uni2157" unicode="&#x2157;" horiz-adv-x="851" 
d="M205 524q15 0 29.5 4t26.5 12.5t19.5 21t7.5 30.5q0 25 -20.5 40t-43.5 15q-28 0 -51 -16t-28 -53h-48q1 29 12.5 50.5t29 36t40 22t46.5 7.5q21 0 41.5 -6.5t36 -19t25.5 -30.5t10 -41q0 -35 -21 -60.5t-51 -34.5q26 -11 44 -33t18 -56q0 -28 -12 -50.5t-31.5 -38
t-44 -24t-49.5 -8.5q-26 0 -50 7.5t-42 23t-29.5 39t-11.5 55.5h51q0 -37 24.5 -57t57.5 -20q34 0 60.5 20t26.5 55q0 30 -23.5 48t-55.5 18h-19l6 43h19zM169 0h-67l608 687h67zM807 137q0 -30 -11.5 -56.5t-31 -46t-46.5 -30.5t-57 -11q-29 0 -53 9t-41 25.5t-27 38.5
t-10 48h51q-1 -30 22.5 -51.5t59.5 -21.5q19 0 36 7.5t30 20.5t20.5 30t7.5 36q0 38 -24.5 59.5t-59.5 21.5q-22 0 -42 -9.5t-34 -28.5l-49 12l58 198h211l-7 -45h-171l-33 -113q16 17 36.5 23.5t40.5 6.5q55 0 89.5 -34.5t34.5 -88.5z" />
    <glyph glyph-name="uni2158" unicode="&#x2158;" horiz-adv-x="865" 
d="M299 432h50l-7 -45h-50l-13 -88h-50l13 88h-199l6 39l226 261h62zM111 432h138l29 192zM183 0h-67l608 687h67zM821 137q0 -30 -11.5 -56.5t-31 -46t-46.5 -30.5t-57 -11q-29 0 -53 9t-41 25.5t-27 38.5t-10 48h51q-1 -30 22.5 -51.5t59.5 -21.5q19 0 36 7.5t30 20.5
t20.5 30t7.5 36q0 38 -24.5 59.5t-59.5 21.5q-22 0 -42 -9.5t-34 -28.5l-49 12l58 198h211l-7 -45h-171l-33 -113q16 17 36.5 23.5t40.5 6.5q55 0 89.5 -34.5t34.5 -88.5z" />
    <glyph glyph-name="uni2159" unicode="&#x2159;" horiz-adv-x="705" 
d="M63 0h-67l608 687h67zM656 140q0 -32 -12 -58.5t-32.5 -46.5t-47.5 -31t-57 -11q-28 0 -52.5 9.5t-42.5 26t-28 40t-10 52.5q0 34 15 64t36 56l123 147h62l-120 -139q17 11 44 11q25 0 47.5 -9t39 -25t26 -38t9.5 -48zM508 40q41 0 70 27.5t29 68.5q0 37 -26 59t-61 22
q-20 0 -37.5 -7t-31 -19.5t-21.5 -30t-8 -37.5q0 -36 25 -59.5t61 -23.5zM105 299l51 340h-70l7 48h121l-58 -388h-51z" />
    <glyph glyph-name="uni215A" unicode="&#x215a;" horiz-adv-x="811" 
d="M336 436q0 -30 -11.5 -56.5t-31 -46t-46.5 -30.5t-57 -11q-29 0 -53 9t-41 25.5t-27 38.5t-10 48h51q-1 -30 22.5 -51.5t59.5 -21.5q19 0 36 7.5t30 20.5t20.5 30t7.5 36q0 38 -24.5 59.5t-59.5 21.5q-22 0 -42 -9.5t-34 -28.5l-49 12l58 198h211l-7 -45h-171l-33 -113
q16 17 36.5 23.5t40.5 6.5q55 0 89.5 -34.5t34.5 -88.5zM169 0h-67l608 687h67zM762 140q0 -32 -12 -58.5t-32.5 -46.5t-47.5 -31t-57 -11q-28 0 -52.5 9.5t-42.5 26t-28 40t-10 52.5q0 34 15 64t36 56l123 147h62l-120 -139q17 11 44 11q25 0 47.5 -9t39 -25t26 -38
t9.5 -48zM614 40q41 0 70 27.5t29 68.5q0 37 -26 59t-61 22q-20 0 -37.5 -7t-31 -19.5t-21.5 -30t-8 -37.5q0 -36 25 -59.5t61 -23.5z" />
    <glyph glyph-name="uni215B" unicode="&#x215b;" horiz-adv-x="736" 
d="M63 0h-67l608 687h67zM543 -7q-24 0 -47 7.5t-41.5 21.5t-29.5 34.5t-11 47.5q0 19 6.5 37t18 32.5t27.5 25t35 15.5q-21 11 -33 31t-12 43q0 25 10.5 45t28 33.5t40 21t45.5 7.5q21 0 42 -6t37.5 -18.5t26.5 -31t10 -42.5q0 -32 -20 -57.5t-50 -35.5q26 -11 42 -35.5
t16 -53.5t-12 -51.5t-32 -38t-45.5 -24t-51.5 -8.5zM464 109q0 -34 25.5 -52t56.5 -18q33 0 60.5 20.5t27.5 56.5q0 17 -7 30t-19 22t-27 13.5t-30 4.5q-16 0 -31.5 -5.5t-28 -15.5t-20 -24.5t-7.5 -31.5zM574 228q28 0 51 17t23 46t-22 44.5t-48 15.5q-28 0 -51 -17.5
t-23 -47.5q0 -29 22 -43.5t48 -14.5zM105 299l51 340h-70l7 48h121l-58 -388h-51z" />
    <glyph glyph-name="uni215C" unicode="&#x215c;" horiz-adv-x="842" 
d="M205 524q15 0 29.5 4t26.5 12.5t19.5 21t7.5 30.5q0 25 -20.5 40t-43.5 15q-28 0 -51 -16t-28 -53h-48q1 29 12.5 50.5t29 36t40 22t46.5 7.5q21 0 41.5 -6.5t36 -19t25.5 -30.5t10 -41q0 -35 -21 -60.5t-51 -34.5q26 -11 44 -33t18 -56q0 -28 -12 -50.5t-31.5 -38
t-44 -24t-49.5 -8.5q-26 0 -50 7.5t-42 23t-29.5 39t-11.5 55.5h51q0 -37 24.5 -57t57.5 -20q34 0 60.5 20t26.5 55q0 30 -23.5 48t-55.5 18h-19l6 43h19zM169 0h-67l608 687h67zM649 -7q-24 0 -47 7.5t-41.5 21.5t-29.5 34.5t-11 47.5q0 19 6.5 37t18 32.5t27.5 25t35 15.5
q-21 11 -33 31t-12 43q0 25 10.5 45t28 33.5t40 21t45.5 7.5q21 0 42 -6t37.5 -18.5t26.5 -31t10 -42.5q0 -32 -20 -57.5t-50 -35.5q26 -11 42 -35.5t16 -53.5t-12 -51.5t-32 -38t-45.5 -24t-51.5 -8.5zM570 109q0 -34 25.5 -52t56.5 -18q33 0 60.5 20.5t27.5 56.5
q0 17 -7 30t-19 22t-27 13.5t-30 4.5q-16 0 -31.5 -5.5t-28 -15.5t-20 -24.5t-7.5 -31.5zM680 228q28 0 51 17t23 46t-22 44.5t-48 15.5q-28 0 -51 -17.5t-23 -47.5q0 -29 22 -43.5t48 -14.5z" />
    <glyph glyph-name="uni215D" unicode="&#x215d;" horiz-adv-x="835" 
d="M336 436q0 -30 -11.5 -56.5t-31 -46t-46.5 -30.5t-57 -11q-29 0 -53 9t-41 25.5t-27 38.5t-10 48h51q-1 -30 22.5 -51.5t59.5 -21.5q19 0 36 7.5t30 20.5t20.5 30t7.5 36q0 38 -24.5 59.5t-59.5 21.5q-22 0 -42 -9.5t-34 -28.5l-49 12l58 198h211l-7 -45h-171l-33 -113
q16 17 36.5 23.5t40.5 6.5q55 0 89.5 -34.5t34.5 -88.5zM162 0h-67l608 687h67zM642 -7q-24 0 -47 7.5t-41.5 21.5t-29.5 34.5t-11 47.5q0 19 6.5 37t18 32.5t27.5 25t35 15.5q-21 11 -33 31t-12 43q0 25 10.5 45t28 33.5t40 21t45.5 7.5q21 0 42 -6t37.5 -18.5t26.5 -31
t10 -42.5q0 -32 -20 -57.5t-50 -35.5q26 -11 42 -35.5t16 -53.5t-12 -51.5t-32 -38t-45.5 -24t-51.5 -8.5zM563 109q0 -34 25.5 -52t56.5 -18q33 0 60.5 20.5t27.5 56.5q0 17 -7 30t-19 22t-27 13.5t-30 4.5q-16 0 -31.5 -5.5t-28 -15.5t-20 -24.5t-7.5 -31.5zM673 228
q28 0 51 17t23 46t-22 44.5t-48 15.5q-28 0 -51 -17.5t-23 -47.5q0 -29 22 -43.5t48 -14.5z" />
    <glyph glyph-name="uni215E" unicode="&#x215e;" horiz-adv-x="771" 
d="M68 299l216 341h-199l7 47h261l-6 -38l-220 -350h-59zM98 0h-67l608 687h67zM578 -7q-24 0 -47 7.5t-41.5 21.5t-29.5 34.5t-11 47.5q0 19 6.5 37t18 32.5t27.5 25t35 15.5q-21 11 -33 31t-12 43q0 25 10.5 45t28 33.5t40 21t45.5 7.5q21 0 42 -6t37.5 -18.5t26.5 -31
t10 -42.5q0 -32 -20 -57.5t-50 -35.5q26 -11 42 -35.5t16 -53.5t-12 -51.5t-32 -38t-45.5 -24t-51.5 -8.5zM499 109q0 -34 25.5 -52t56.5 -18q33 0 60.5 20.5t27.5 56.5q0 17 -7 30t-19 22t-27 13.5t-30 4.5q-16 0 -31.5 -5.5t-28 -15.5t-20 -24.5t-7.5 -31.5zM609 228
q28 0 51 17t23 46t-22 44.5t-48 15.5q-28 0 -51 -17.5t-23 -47.5q0 -29 22 -43.5t48 -14.5z" />
    <glyph glyph-name="percent" unicode="%" horiz-adv-x="801" 
d="M251 641q-23 0 -43 -9t-35 -25t-23.5 -36.5t-8.5 -42.5q0 -40 26.5 -67.5t67.5 -27.5q23 0 43.5 9t35.5 25t23.5 36t8.5 43q0 41 -27 68t-68 27zM232 380q-31 0 -58 11t-47 30t-31.5 45.5t-11.5 58.5q0 34 13 65t36 54t54 36.5t67 13.5q31 0 58 -11t47.5 -30.5t32 -46
t11.5 -57.5q0 -35 -13.5 -66t-36.5 -54t-54 -36t-67 -13zM76 0l609 687h73l-609 -687h-73zM597 254q-23 0 -43 -9t-35 -25t-23.5 -36.5t-8.5 -42.5q0 -40 26.5 -67.5t67.5 -27.5q23 0 43.5 9t35.5 25t23.5 36t8.5 43q0 41 -27 68t-68 27zM578 -7q-31 0 -58 11t-47 30
t-31.5 45.5t-11.5 58.5q0 34 13 65t36 54t54 36.5t67 13.5q31 0 58 -11t47.5 -30.5t32 -46t11.5 -57.5q0 -35 -13.5 -66t-36.5 -54t-54 -36t-67 -13z" />
    <glyph glyph-name="perthousand" unicode="&#x2030;" horiz-adv-x="1190" 
d="M251 641q-23 0 -43 -9t-35 -25t-23.5 -36.5t-8.5 -42.5q0 -40 26.5 -67.5t67.5 -27.5q23 0 43.5 9t35.5 25t23.5 36t8.5 43q0 41 -27 68t-68 27zM232 380q-31 0 -58 11t-47 30t-31.5 45.5t-11.5 58.5q0 34 13 65t36 54t54 36.5t67 13.5q31 0 58 -11t47.5 -30.5t32 -46
t11.5 -57.5q0 -35 -13.5 -66t-36.5 -54t-54 -36t-67 -13zM76 0l609 687h73l-609 -687h-73zM597 254q-23 0 -43 -9t-35 -25t-23.5 -36.5t-8.5 -42.5q0 -40 26.5 -67.5t67.5 -27.5q23 0 43.5 9t35.5 25t23.5 36t8.5 43q0 41 -27 68t-68 27zM578 -7q-31 0 -58 11t-47 30
t-31.5 45.5t-11.5 58.5q0 34 13 65t36 54t54 36.5t67 13.5q31 0 58 -11t47.5 -30.5t32 -46t11.5 -57.5q0 -35 -13.5 -66t-36.5 -54t-54 -36t-67 -13zM986 254q-23 0 -43 -9t-35 -25t-23.5 -36.5t-8.5 -42.5q0 -40 26.5 -67.5t67.5 -27.5q23 0 43.5 9t35.5 25t23.5 36t8.5 43
q0 41 -27 68t-68 27zM967 -7q-31 0 -58 11t-47 30t-31.5 45.5t-11.5 58.5q0 34 13 65t36 54t54 36.5t67 13.5q31 0 58 -11t47.5 -30.5t32 -46t11.5 -57.5q0 -35 -13.5 -66t-36.5 -54t-54 -36t-67 -13z" />
    <glyph glyph-name="currency" unicode="&#xa4;" 
d="M547 345q0 -47 -18 -89t-50 -74l66 -76l-43 -36l-66 77q-29 -20 -63 -30.5t-71 -10.5q-43 0 -80.5 14t-66.5 40l-79 -69l-36 42l79 68q-17 25 -26.5 54t-9.5 64q0 47 18 88.5t50 73.5l-65 77l42 36l66 -78q29 20 63 31t71 11q43 0 80 -14t66 -40l80 70l36 -42l-79 -68
q17 -25 26.5 -55t9.5 -64zM304 160q37 0 71 14.5t59.5 39.5t40.5 58t15 71q0 33 -12.5 62.5t-35 51.5t-52.5 34.5t-64 12.5q-37 0 -70.5 -14.5t-59 -39.5t-40.5 -58.5t-15 -70.5q0 -34 12.5 -63.5t34.5 -51t51.5 -34t64.5 -12.5z" />
    <glyph glyph-name="afii61289" unicode="&#x2113;" horiz-adv-x="399" 
d="M40 273q45 10 91 32l38 250q9 62 40.5 102t90.5 40q50 0 80.5 -30t30.5 -80t-17.5 -95.5t-47.5 -86t-71 -74.5t-89 -59l-19 -128q-7 -45 12.5 -71.5t65.5 -26.5q30 0 50 10l-8 -57q-11 -5 -25 -7.5t-29 -2.5q-69 0 -102.5 43.5t-22.5 115.5l14 94q-23 -8 -45 -14.5
t-45 -11.5zM297 641q-15 0 -27 -7.5t-20.5 -20.5t-13.5 -29t-8 -34l-32 -208q33 22 61.5 49t49.5 57.5t33 63t12 66.5q0 63 -55 63z" />
    <glyph glyph-name="estimated" unicode="&#x212e;" horiz-adv-x="781" 
d="M187 333l-29 -197q36 -52 93 -82.5t130 -30.5q81 0 153 42.5t120 113.5h43q-25 -44 -60 -79t-76.5 -59.5t-87.5 -38t-93 -13.5q-69 0 -126.5 24.5t-99 67t-64.5 100t-23 123.5q0 75 28.5 142.5t78 118t116 80.5t142.5 30q67 0 124 -24t98.5 -65.5t64.5 -98t23 -122.5
q0 -8 -0.5 -16t-1.5 -16h-553zM429 641q-60 0 -113 -21t-95 -58l-29 -196h433l25 167q-36 50 -92.5 79t-128.5 29z" />
    <glyph glyph-name="arrowleft" unicode="&#x2190;" horiz-adv-x="850" 
d="M345 52l-257 301l343 297l31 -38l-272 -237h596l-8 -50h-597l202 -238z" />
    <glyph glyph-name="arrowright" unicode="&#x2192;" horiz-adv-x="850" 
d="M537 648l257 -301l-343 -297l-31 38l272 237h-596l8 50h597l-202 238z" />
    <glyph glyph-name="arrowup" unicode="&#x2191;" horiz-adv-x="800" 
d="M683 382l-202 238l-92 -620h-51l92 620l-272 -238l-31 37l340 297l255 -301z" />
    <glyph glyph-name="arrowdown" unicode="&#x2193;" horiz-adv-x="800" 
d="M148 318l202 -238l92 620h51l-92 -620l272 238l31 -37l-341 -297l-255 301z" />
    <glyph glyph-name="uni2196" unicode="&#x2196;" horiz-adv-x="750" 
d="M616 650h-338l366 -431l-39 -34l-367 431l-50 -338h-50l63 422h422z" />
    <glyph glyph-name="uni2197" unicode="&#x2197;" horiz-adv-x="750" 
d="M265 700h422l-63 -422h-50l50 334l-493 -429l-32 38l492 429h-334z" />
    <glyph glyph-name="uni2198" unicode="&#x2198;" horiz-adv-x="750" 
d="M518 0h-422l63 422h50l-50 -334l493 429l32 -38l-492 -429h333z" />
    <glyph glyph-name="uni2199" unicode="&#x2199;" horiz-adv-x="750" 
d="M167 50h338l-366 431l39 34l367 -431l50 338h50l-63 -422h-422z" />
    <glyph glyph-name="plus" unicode="+" 
d="M96 359h197l29 198h50l-29 -198h197l-8 -51h-197l-30 -200h-50l30 200h-197z" />
    <glyph glyph-name="minus" unicode="&#x2212;" 
d="M96 359h444l-8 -51h-444z" />
    <glyph glyph-name="plusminus" unicode="&#xb1;" 
d="M109 447h197l29 193h50l-29 -193h197l-7 -51h-197l-29 -192h-50l29 192h-197zM60 115h444l-8 -51h-444z" />
    <glyph glyph-name="multiply" unicode="&#xd7;" 
d="M167 546l151 -178l206 179l33 -36l-207 -180l151 -177l-39 -33l-151 177l-206 -179l-32 37l207 179l-152 178z" />
    <glyph glyph-name="divide" unicode="&#xf7;" 
d="M532 308h-444l8 51h444zM298 494q0 17 12 29.5t30 12.5q17 0 28.5 -11.5t11.5 -28.5t-12.5 -29.5t-30.5 -12.5q-17 0 -28 11.5t-11 28.5zM249 170q0 17 12 29.5t30 12.5q17 0 28.5 -11.5t11.5 -28.5t-12.5 -29.5t-30.5 -12.5q-17 0 -28 11.5t-11 28.5z" />
    <glyph glyph-name="equal" unicode="=" 
d="M82 266h444l-8 -51h-444zM109 452h444l-7 -51h-444z" />
    <glyph glyph-name="notequal" unicode="&#x2260;" 
d="M109 452h252l64 104h58l-63 -104h133l-7 -51h-157l-82 -135h219l-8 -51h-242l-65 -107h-59l65 107h-143l8 51h166l82 135h-228z" />
    <glyph glyph-name="approxequal" unicode="&#x2248;" 
d="M95 190q1 26 11 47t26.5 36t37.5 23t44 8q36 0 59 -11t40.5 -24t34 -24t41.5 -11q29 0 47 19t20 47h54q-2 -26 -12 -47t-26 -36t-37 -23t-45 -8q-36 0 -58.5 11t-40 24t-34.5 24t-41 11q-29 0 -47 -19t-20 -47h-54zM123 367q1 26 11 47t26.5 36t37.5 23t44 8q36 0 59 -11
t40.5 -24t34 -24t41.5 -11q29 0 47 19t20 47h54q-2 -26 -12 -47t-26 -36t-37 -23t-45 -8q-36 0 -58.5 11t-40 24t-34.5 24t-41 11q-29 0 -47 -19t-20 -47h-54z" />
    <glyph glyph-name="less" unicode="&#x3c;" 
d="M109 360l449 206l-9 -63l-378 -172l326 -173l-9 -58l-387 206z" />
    <glyph glyph-name="greater" unicode="&#x3e;" 
d="M519 306l-449 -206l9 63l378 172l-326 173l9 58l387 -206z" />
    <glyph glyph-name="lessequal" unicode="&#x2264;" 
d="M72 115h418l-8 -51h-418zM122 450l446 188l-9 -59l-376 -161l328 -160l-8 -54l-390 188z" />
    <glyph glyph-name="greaterequal" unicode="&#x2265;" 
d="M483 64h-418l8 51h418zM532 392l-446 -188l9 60l375 159l-328 160l8 55l391 -188z" />
    </font>
</defs>
</svg>
